STARTFONT 2.1
COMMENT
COMMENT Converted from OpenType font "SourceSansPro-Black.otf" by "otf2bdf 3.0".
COMMENT
FONT -FreeType-Source Sans Pro Black-Medium-R-Normal--86-620-100-100-P-448-ISO10646-1
SIZE 62 100 100
FONTBOUNDINGBOX 225 112 -39 -24
STARTPROPERTIES 19
FOUNDRY "FreeType"
FAMILY_NAME "Source Sans Pro Black"
WEIGHT_NAME "Medium"
SLANT "R"
SETWIDTH_NAME "Normal"
ADD_STYLE_NAME ""
PIXEL_SIZE 86
POINT_SIZE 620
RESOLUTION_X 100
RESOLUTION_Y 100
SPACING "P"
AVERAGE_WIDTH 448
CHARSET_REGISTRY "ISO10646"
CHARSET_ENCODING "1"
FONT_ASCENT 84
FONT_DESCENT 23
COPYRIGHT "Copyright 2010, 2012, 2014 Adobe Systems Incorporated (http://www.adobe.com/), with Reserved Font Name Source."
_OTF_FONTFILE "SourceSansPro-Black.otf"
_OTF_PSNAME "SourceSansPro-Black"
ENDPROPERTIES
CHARS 1296
STARTCHAR 0020
ENCODING 32
SWIDTH 197 0
DWIDTH 17 0
BBX 0 0 0 0
BITMAP
ENDCHAR
STARTCHAR 0021
ENCODING 33
SWIDTH 360 0
DWIDTH 31 0
BBX 17 59 7 -1
BITMAP
7FFF00
7FFF00
7FFF00
7FFF00
7FFF00
7FFF00
7FFF00
7FFF00
7FFF00
7FFF00
7FFE00
3FFE00
3FFE00
3FFE00
3FFE00
3FFE00
3FFE00
3FFE00
3FFE00
3FFE00
3FFE00
3FFE00
3FFE00
1FFC00
1FFC00
1FFC00
1FFC00
1FFC00
1FFC00
1FFC00
1FFC00
1FFC00
1FFC00
1FFC00
1FFC00
0FF800
0FF800
000000
000000
000000
000000
03E000
0FF800
1FFE00
3FFE00
7FFF00
7FFF00
FFFF80
FFFF80
FFFF80
FFFF80
FFFF80
FFFF80
FFFF00
7FFF00
3FFE00
3FFE00
0FF800
07E000
ENDCHAR
STARTCHAR 0022
ENCODING 34
SWIDTH 580 0
DWIDTH 50 0
BBX 38 31 6 28
BITMAP
FFFE01FFFC
FFFE01FFFC
FFFE01FFF8
FFFE01FFF8
7FFE01FFF8
7FFE01FFF8
7FFE01FFF8
7FFE01FFF8
7FFE01FFF8
7FFE01FFF8
7FFE01FFF8
7FFE01FFF8
7FFE01FFF8
7FFE01FFF8
7FFC00FFF8
7FFC00FFF8
7FFC00FFF0
3FFC00FFF0
3FFC00FFF0
3FFC00FFF0
3FF8007FF0
3FF8007FF0
3FF8007FE0
1FF8007FE0
1FF8007FE0
1FF8007FE0
1FF0007FE0
1FF0003FE0
1FF0003FE0
0FF0003FC0
0FF0003FC0
ENDCHAR
STARTCHAR 0023
ENCODING 35
SWIDTH 545 0
DWIDTH 47 0
BBX 41 56 3 0
BITMAP
001FE01FF000
001FE01FF000
001FE01FE000
001FE01FE000
001FE01FE000
003FE01FE000
003FE01FE000
003FE01FE000
003FC03FE000
003FC03FE000
003FC03FE000
003FC03FC000
003FC03FC000
007FC03FC000
3FFFFFFFFF80
3FFFFFFFFF80
3FFFFFFFFF80
3FFFFFFFFF80
3FFFFFFFFF80
3FFFFFFFFF80
3FFFFFFFFF80
3FFFFFFFFF80
3FFFFFFFFF80
00FF80FF8000
00FF00FF8000
00FF00FF8000
00FF00FF8000
00FF00FF0000
01FF00FF0000
01FF00FF0000
01FF00FF0000
FFFFFFFFFE00
FFFFFFFFFE00
FFFFFFFFFE00
FFFFFFFFFE00
FFFFFFFFFE00
FFFFFFFFFE00
FFFFFFFFFE00
FFFFFFFFFE00
FFFFFFFFFE00
03FE03FE0000
03FC03FE0000
03FC03FE0000
03FC03FE0000
03FC03FC0000
03FC03FC0000
07FC03FC0000
07FC03FC0000
07FC07FC0000
07F807FC0000
07F807FC0000
07F807FC0000
07F807F80000
07F807F80000
0FF807F80000
0FF807F80000
ENDCHAR
STARTCHAR 0024
ENCODING 36
SWIDTH 545 0
DWIDTH 47 0
BBX 38 73 3 -9
BITMAP
0001FF8000
0001FF8000
0001FF8000
0001FF8000
0001FF8000
0001FF8000
0001FF8000
0001FF8000
0001FFE000
0003FFFC00
001FFFFF00
007FFFFFC0
00FFFFFFE0
01FFFFFFF0
03FFFFFFF8
07FFFFFFFC
0FFFFFFFF8
0FFFFFFFF0
1FFFFFFFE0
1FFFFFFFE0
1FFFF1FFC0
3FFF803F80
3FFF800F00
3FFF000600
3FFF000000
3FFF000000
3FFF800000
3FFFC00000
3FFFE00000
1FFFF80000
1FFFFE0000
0FFFFF8000
0FFFFFE000
07FFFFF800
03FFFFFE00
01FFFFFF00
00FFFFFF80
007FFFFFC0
001FFFFFE0
0007FFFFF0
0001FFFFF8
00007FFFF8
00001FFFFC
00000FFFFC
000003FFFC
000001FFFC
000000FFFC
000000FFFC
020000FFFC
078000FFFC
07C000FFFC
0FF001FFFC
1FFF0FFFFC
1FFFFFFFF8
3FFFFFFFF8
3FFFFFFFF0
7FFFFFFFF0
FFFFFFFFE0
FFFFFFFFC0
7FFFFFFFC0
1FFFFFFF00
0FFFFFFE00
03FFFFF800
007FFFE000
000FFF8000
0001FF8000
0001FF8000
0001FF8000
0001FF8000
0001FF8000
0001FF8000
0001FF8000
0001FF8000
ENDCHAR
STARTCHAR 0025
ENCODING 37
SWIDTH 870 0
DWIDTH 75 0
BBX 71 58 2 -1
BITMAP
001FC0000003FC0000
00FFF8000003FC0000
03FFFC000007F80000
07FFFF000007F80000
0FFFFF80000FF00000
1FFFFF80000FF00000
1FFFFFC0001FE00000
3FFFFFE0001FE00000
3FF8FFE0003FC00000
7FF07FE0007FC00000
7FE03FF0007F800000
7FE03FF000FF800000
FFE03FF000FF000000
FFC03FF801FF000000
FFC01FF801FE000000
FFC01FF803FE000000
FFC01FF803FC000000
FFC01FF807FC000000
FFC01FF807F8000000
FFC01FF80FF8000000
FFC01FF80FF0000000
FFC01FF81FF0000000
FFC03FF01FE007F000
FFE03FF03FE03FFE00
7FE03FF03FC07FFF80
7FE03FF07F81FFFFC0
7FF07FE07F83FFFFE0
3FF8FFE0FF03FFFFF0
3FFFFFE0FF07FFFFF0
1FFFFFC1FE0FFFFFF8
1FFFFF81FE0FFE3FF8
0FFFFF03FC0FFC1FFC
07FFFE03FC1FF80FFC
03FFFC07F81FF80FFC
00FFF807F81FF80FFC
001FC00FF03FF807FE
0000000FF03FF007FE
0000001FE03FF007FE
0000003FE03FF007FE
0000003FC03FF007FE
0000007FC03FF007FE
0000007F803FF007FE
000000FF803FF007FE
000000FF003FF007FE
000001FF003FF807FE
000001FE001FF80FFE
000003FE001FF80FFC
000003FC001FF80FFC
000007FC000FFC1FFC
000007F8000FFE3FF8
00000FF8000FFFFFF8
00000FF00007FFFFF0
00001FF00003FFFFE0
00001FE00003FFFFE0
00003FE00001FFFFC0
00003FC000007FFF00
00007F8000003FFE00
00007F80000007F000
ENDCHAR
STARTCHAR 0026
ENCODING 38
SWIDTH 685 0
DWIDTH 59 0
BBX 56 58 2 -1
BITMAP
00003FE0000000
0001FFFC000000
0007FFFF000000
000FFFFF800000
001FFFFFC00000
003FFFFFE00000
007FFFFFF00000
007FFFFFF00000
00FFFFFFF80000
00FFFFFFF80000
01FFF07FF80000
01FFF03FF80000
01FFE03FF80000
01FFE03FF80000
03FFE03FF80000
03FFE03FF80000
01FFE07FF80000
01FFE0FFF80000
01FFE1FFF00000
01FFF3FFF00000
01FFF7FFE00000
00FFFFFFE00000
00FFFFFFC00000
00FFFFFF800000
007FFFFF000000
007FFFFE003FFE
007FFFFC003FFE
00FFFFF0007FFE
01FFFFE0007FFC
07FFFFE0007FFC
0FFFFFF000FFFC
0FFFFFF800FFF8
1FFFFFFC01FFF8
3FFFFFFE01FFF0
3FFFFFFF83FFF0
7FFFFFFFC7FFE0
7FFF7FFFE7FFE0
FFFE3FFFFFFFC0
FFFC1FFFFFFFC0
FFFC0FFFFFFF80
FFFC07FFFFFF00
FFFC03FFFFFF00
FFFC01FFFFFE00
FFFC00FFFFFE00
FFFE007FFFFFC0
FFFF003FFFFFF8
7FFFE1FFFFFFFF
7FFFFFFFFFFFFE
7FFFFFFFFFFFFE
3FFFFFFFFFFFFE
3FFFFFFFFFFFFC
1FFFFFFFFFFFFC
0FFFFFFFFFFFFC
07FFFFFFF1FFFC
03FFFFFFC07FF8
00FFFFFF001FF8
003FFFF80003F8
0003FF80000030
ENDCHAR
STARTCHAR 0027
ENCODING 39
SWIDTH 325 0
DWIDTH 28 0
BBX 15 31 6 28
BITMAP
FFFE
FFFE
FFFE
FFFE
7FFE
7FFE
7FFE
7FFE
7FFE
7FFE
7FFE
7FFE
7FFE
7FFE
7FFC
7FFC
7FFC
3FFC
3FFC
3FFC
3FF8
3FF8
3FF8
1FF8
1FF8
1FF8
1FF0
1FF0
1FF0
0FF0
0FF0
ENDCHAR
STARTCHAR 0028
ENCODING 40
SWIDTH 360 0
DWIDTH 31 0
BBX 20 79 6 -15
BITMAP
001000
003E00
003F80
007FE0
007FF0
00FFF0
00FFE0
01FFE0
01FFC0
03FFC0
03FF80
07FF80
07FF80
07FF00
0FFF00
0FFF00
0FFE00
1FFE00
1FFE00
1FFC00
3FFC00
3FFC00
3FFC00
3FF800
7FF800
7FF800
7FF800
7FF800
7FF800
7FF000
FFF000
FFF000
FFF000
FFF000
FFF000
FFF000
FFF000
FFF000
FFF000
FFF000
FFF000
FFF000
FFF000
FFF000
FFF000
FFF000
FFF000
FFF000
FFF000
FFF000
7FF800
7FF800
7FF800
7FF800
7FF800
3FF800
3FFC00
3FFC00
3FFC00
1FFC00
1FFE00
1FFE00
1FFE00
0FFF00
0FFF00
07FF00
07FF80
07FF80
03FF80
03FFC0
01FFC0
01FFE0
00FFE0
00FFF0
007FF0
007FF0
003F80
003E00
001000
ENDCHAR
STARTCHAR 0029
ENCODING 41
SWIDTH 360 0
DWIDTH 31 0
BBX 20 79 5 -15
BITMAP
008000
07C000
1FC000
FFE000
FFE000
FFF000
7FF000
7FF800
3FF800
3FFC00
1FFC00
1FFE00
1FFE00
0FFE00
0FFF00
07FF00
07FF80
07FF80
07FF80
03FF80
03FFC0
03FFC0
03FFC0
01FFC0
01FFE0
01FFE0
01FFE0
01FFE0
00FFE0
00FFF0
00FFF0
00FFF0
00FFF0
00FFF0
00FFF0
00FFF0
00FFF0
00FFF0
00FFF0
00FFF0
00FFF0
00FFF0
00FFF0
00FFF0
00FFF0
00FFF0
00FFF0
00FFF0
00FFF0
00FFF0
00FFE0
01FFE0
01FFE0
01FFE0
01FFE0
01FFC0
03FFC0
03FFC0
03FFC0
03FF80
03FF80
07FF80
07FF80
07FF00
0FFF00
0FFE00
0FFE00
1FFE00
1FFC00
3FFC00
3FF800
7FF800
7FF000
FFF000
FFE000
FFE000
1FC000
07C000
008000
ENDCHAR
STARTCHAR 002A
ENCODING 42
SWIDTH 476 0
DWIDTH 41 0
BBX 35 34 3 27
BITMAP
0007F80000
0007F80000
0007F80000
0007FC0000
0007FC0000
0007FC0000
0007FC0000
0007FC0000
0007FC0080
3E0FFC0F80
7FFFFDFF80
7FFFFFFFC0
7FFFFFFFC0
FFFFFFFFC0
FFFFFFFFE0
FFFFFFFFE0
3FFFFFFF80
0FFFFFFE00
03FFFFF800
00FFFFE000
007FFFC000
00FFFFC000
00FFFFE000
01FFFFE000
01FFFFF000
03FFFFF000
03FFBFF800
07FF1FFC00
0FFE0FFC00
0FFC07FC00
03F803F800
01F001F000
00E001C000
0000008000
ENDCHAR
STARTCHAR 002B
ENCODING 43
SWIDTH 545 0
DWIDTH 47 0
BBX 41 41 3 8
BITMAP
0001FFC00000
0001FFC00000
0001FFC00000
0001FFC00000
0001FFC00000
0001FFC00000
0001FFC00000
0001FFC00000
0001FFC00000
0001FFC00000
0001FFC00000
0001FFC00000
0001FFC00000
0001FFC00000
0001FFC00000
0001FFC00000
FFFFFFFFFF80
FFFFFFFFFF80
FFFFFFFFFF80
FFFFFFFFFF80
FFFFFFFFFF80
FFFFFFFFFF80
FFFFFFFFFF80
FFFFFFFFFF80
FFFFFFFFFF80
FFFFFFFFFF80
0001FFC00000
0001FFC00000
0001FFC00000
0001FFC00000
0001FFC00000
0001FFC00000
0001FFC00000
0001FFC00000
0001FFC00000
0001FFC00000
0001FFC00000
0001FFC00000
0001FFC00000
0001FFC00000
0001FFC00000
ENDCHAR
STARTCHAR 002C
ENCODING 44
SWIDTH 325 0
DWIDTH 28 0
BBX 20 34 4 -17
BITMAP
01F800
07FE00
0FFF80
1FFF80
3FFFC0
3FFFE0
7FFFE0
7FFFE0
7FFFF0
7FFFF0
7FFFF0
3FFFF0
3FFFF0
1FFFF0
0FFFF0
03FFF0
003FF0
003FF0
003FE0
003FE0
007FE0
00FFE0
00FFC0
03FFC0
07FF80
1FFF00
7FFF00
FFFE00
7FFC00
7FF800
7FE000
3FC000
3F0000
3C0000
ENDCHAR
STARTCHAR 002D
ENCODING 45
SWIDTH 336 0
DWIDTH 29 0
BBX 21 10 4 17
BITMAP
FFFFF8
FFFFF8
FFFFF8
FFFFF8
FFFFF8
FFFFF8
FFFFF8
FFFFF8
FFFFF8
FFFFF8
ENDCHAR
STARTCHAR 002E
ENCODING 46
SWIDTH 325 0
DWIDTH 28 0
BBX 17 18 5 -1
BITMAP
03F000
0FFC00
1FFE00
3FFF00
7FFF00
7FFF80
7FFF80
FFFF80
FFFF80
FFFF80
FFFF80
FFFF80
7FFF80
7FFF00
3FFF00
1FFE00
0FFC00
03F000
ENDCHAR
STARTCHAR 002F
ENCODING 47
SWIDTH 336 0
DWIDTH 29 0
BBX 25 75 1 -14
BITMAP
0001FF80
0001FF80
0001FF00
0001FF00
0003FF00
0003FF00
0003FF00
0003FE00
0003FE00
0007FE00
0007FE00
0007FC00
0007FC00
0007FC00
000FFC00
000FFC00
000FF800
000FF800
000FF800
001FF800
001FF800
001FF000
001FF000
001FF000
003FF000
003FF000
003FE000
003FE000
003FE000
007FE000
007FE000
007FC000
007FC000
007FC000
00FFC000
00FFC000
00FF8000
00FF8000
00FF8000
01FF8000
01FF8000
01FF0000
01FF0000
01FF0000
03FF0000
03FF0000
03FE0000
03FE0000
03FE0000
07FE0000
07FE0000
07FC0000
07FC0000
07FC0000
0FFC0000
0FFC0000
0FF80000
0FF80000
0FF80000
1FF80000
1FF80000
1FF00000
1FF00000
1FF00000
3FF00000
3FF00000
3FE00000
3FE00000
3FE00000
7FE00000
7FE00000
7FC00000
7FC00000
FFC00000
FFC00000
ENDCHAR
STARTCHAR 0030
ENCODING 48
SWIDTH 545 0
DWIDTH 47 0
BBX 41 57 3 -1
BITMAP
0000FF800000
0007FFF00000
001FFFFC0000
007FFFFE0000
00FFFFFF8000
01FFFFFFC000
03FFFFFFE000
07FFFFFFE000
07FFFFFFF000
0FFFFFFFF800
0FFFFFFFF800
1FFFE7FFFC00
1FFF81FFFC00
3FFF00FFFC00
3FFF007FFE00
3FFE007FFE00
7FFE003FFE00
7FFE003FFF00
7FFE003FFF00
7FFC003FFF00
FFFC003FFF00
FFFC003FFF00
FFFC003FFF00
FFFC001FFF00
FFFC001FFF00
FFFC001FFF80
FFFC001FFF80
FFFC001FFF80
FFFC001FFF80
FFFC001FFF80
FFFC001FFF80
FFFC001FFF80
FFFC001FFF00
FFFC003FFF00
FFFC003FFF00
FFFC003FFF00
7FFC003FFF00
7FFE003FFF00
7FFE003FFF00
7FFE003FFE00
7FFE007FFE00
3FFE007FFE00
3FFF007FFE00
3FFF00FFFC00
1FFF81FFFC00
1FFFE3FFF800
0FFFFFFFF800
0FFFFFFFF000
07FFFFFFF000
07FFFFFFE000
03FFFFFFC000
01FFFFFF8000
00FFFFFF0000
007FFFFE0000
001FFFFC0000
0007FFF00000
0000FF800000
ENDCHAR
STARTCHAR 0031
ENCODING 49
SWIDTH 545 0
DWIDTH 47 0
BBX 36 55 6 0
BITMAP
0001FFC000
0007FFC000
001FFFC000
00FFFFC000
07FFFFC000
7FFFFFC000
7FFFFFC000
7FFFFFC000
7FFFFFC000
7FFFFFC000
7FFFFFC000
7FFFFFC000
7FFFFFC000
7FFFFFC000
001FFFC000
001FFFC000
001FFFC000
001FFFC000
001FFFC000
001FFFC000
001FFFC000
001FFFC000
001FFFC000
001FFFC000
001FFFC000
001FFFC000
001FFFC000
001FFFC000
001FFFC000
001FFFC000
001FFFC000
001FFFC000
001FFFC000
001FFFC000
001FFFC000
001FFFC000
001FFFC000
001FFFC000
001FFFC000
001FFFC000
001FFFC000
001FFFC000
001FFFC000
FFFFFFFFF0
FFFFFFFFF0
FFFFFFFFF0
FFFFFFFFF0
FFFFFFFFF0
FFFFFFFFF0
FFFFFFFFF0
FFFFFFFFF0
FFFFFFFFF0
FFFFFFFFF0
FFFFFFFFF0
FFFFFFFFF0
ENDCHAR
STARTCHAR 0032
ENCODING 50
SWIDTH 545 0
DWIDTH 47 0
BBX 40 56 3 0
BITMAP
0007FE0000
003FFFE000
01FFFFF800
03FFFFFC00
0FFFFFFE00
1FFFFFFF80
3FFFFFFF80
7FFFFFFFC0
FFFFFFFFE0
FFFFFFFFE0
7FFFFFFFF0
3FFFFFFFF0
1FF80FFFF0
0FE007FFF8
07C003FFF8
038003FFF8
010001FFF8
000001FFF8
000001FFF8
000001FFF8
000001FFF8
000001FFF8
000003FFF8
000003FFF0
000007FFF0
000007FFE0
00000FFFE0
00000FFFE0
00001FFFC0
00003FFF80
00007FFF80
0000FFFF00
0000FFFE00
0001FFFE00
0003FFFC00
0007FFF800
000FFFF000
001FFFF000
003FFFE000
007FFFC000
00FFFF8000
01FFFF0000
03FFFE0000
07FFFC0000
1FFFFFFFFF
3FFFFFFFFF
7FFFFFFFFF
FFFFFFFFFF
FFFFFFFFFF
FFFFFFFFFF
FFFFFFFFFF
FFFFFFFFFF
FFFFFFFFFF
FFFFFFFFFF
FFFFFFFFFF
FFFFFFFFFF
ENDCHAR
STARTCHAR 0033
ENCODING 51
SWIDTH 545 0
DWIDTH 47 0
BBX 40 57 2 -1
BITMAP
0003FF8000
003FFFF800
00FFFFFE00
03FFFFFF80
07FFFFFFC0
1FFFFFFFE0
3FFFFFFFF0
7FFFFFFFF8
3FFFFFFFF8
1FFFFFFFFC
0FFFFFFFFC
07FFFFFFFC
03FC03FFFC
03F001FFFE
01C001FFFE
008000FFFE
000000FFFE
000000FFFE
000000FFFC
000001FFFC
000003FFFC
000007FFF8
00003FFFF0
000FFFFFF0
000FFFFFE0
000FFFFF80
000FFFFF00
000FFFFC00
000FFFFF00
000FFFFFC0
000FFFFFE0
000FFFFFF8
000FFFFFF8
0003FFFFFC
000003FFFE
000000FFFE
0000007FFF
0000007FFF
0000007FFF
0000003FFF
0200003FFF
0700007FFF
07C0007FFF
0FF000FFFF
1FFC03FFFF
3FFFFFFFFF
3FFFFFFFFE
7FFFFFFFFE
FFFFFFFFFC
FFFFFFFFFC
7FFFFFFFF8
3FFFFFFFF0
1FFFFFFFE0
07FFFFFF80
01FFFFFE00
007FFFF800
0007FF8000
ENDCHAR
STARTCHAR 0034
ENCODING 52
SWIDTH 545 0
DWIDTH 47 0
BBX 43 55 2 0
BITMAP
00003FFFF800
00007FFFF800
00007FFFF800
0000FFFFF800
0000FFFFF800
0001FFFFF800
0001FFFFF800
0003FFFFF800
0007FFFFF800
0007FFFFF800
000FFFFFF800
000FFFFFF800
001FFFFFF800
001FFFFFF800
003FFDFFF800
007FFDFFF800
007FF9FFF800
00FFF9FFF800
00FFF1FFF800
01FFF1FFF800
01FFE1FFF800
03FFE1FFF800
03FFC1FFF800
07FFC1FFF800
0FFF81FFF800
0FFF81FFF800
1FFF01FFF800
1FFF01FFF800
3FFE01FFF800
3FFE01FFF800
7FFC01FFF800
FFFC01FFF800
FFFFFFFFFFE0
FFFFFFFFFFE0
FFFFFFFFFFE0
FFFFFFFFFFE0
FFFFFFFFFFE0
FFFFFFFFFFE0
FFFFFFFFFFE0
FFFFFFFFFFE0
FFFFFFFFFFE0
FFFFFFFFFFE0
FFFFFFFFFFE0
000001FFF800
000001FFF800
000001FFF800
000001FFF800
000001FFF800
000001FFF800
000001FFF800
000001FFF800
000001FFF800
000001FFF800
000001FFF800
000001FFF800
ENDCHAR
STARTCHAR 0035
ENCODING 53
SWIDTH 545 0
DWIDTH 47 0
BBX 40 56 2 -1
BITMAP
03FFFFFFFC
07FFFFFFFC
07FFFFFFFC
07FFFFFFFC
07FFFFFFFC
07FFFFFFFC
07FFFFFFFC
07FFFFFFFC
07FFFFFFFC
07FFFFFFFC
07FFFFFFFC
07FFFFFFFC
07FFC00000
07FFC00000
07FFC00000
07FFC00000
07FFC00000
07FFC00000
07FFC00000
07FFC00000
07FFFFF000
07FFFFFE00
0FFFFFFF80
0FFFFFFFE0
0FFFFFFFF0
0FFFFFFFF8
0FFFFFFFF8
0FFFFFFFFC
0FFFFFFFFE
03FFFFFFFE
01FE07FFFE
007001FFFF
002000FFFF
0000007FFF
0000007FFF
0000007FFF
0000003FFF
0000003FFF
0000007FFF
0200007FFF
0700007FFF
07C000FFFF
0FE001FFFF
1FFC03FFFE
1FFFFFFFFE
3FFFFFFFFC
7FFFFFFFFC
FFFFFFFFF8
FFFFFFFFF8
7FFFFFFFF0
3FFFFFFFE0
0FFFFFFFC0
07FFFFFF00
01FFFFFC00
003FFFF000
0003FF8000
ENDCHAR
STARTCHAR 0036
ENCODING 54
SWIDTH 545 0
DWIDTH 47 0
BBX 41 57 3 -1
BITMAP
00003FF00000
0001FFFF0000
0007FFFFC000
001FFFFFF000
003FFFFFF800
007FFFFFFC00
00FFFFFFFF00
01FFFFFFFE00
03FFFFFFFC00
07FFFFFFFC00
07FFFFFFF800
0FFFFFFFF000
0FFFF01FE000
1FFFE007C000
1FFFC0018000
3FFF80000000
3FFF00000000
3FFF00000000
3FFE00000000
7FFE00000000
7FFE00000000
7FFC07F80000
7FFC1FFF0000
7FFC7FFFC000
7FFCFFFFE000
FFFDFFFFF000
FFFFFFFFF800
FFFFFFFFFC00
FFFFFFFFFC00
FFFFFFFFFE00
FFFFFFFFFE00
FFFFF3FFFF00
FFFF807FFF00
FFFF003FFF00
7FFE001FFF00
7FFC001FFF00
7FFC001FFF80
7FFC001FFF80
7FFE001FFF80
7FFE001FFF80
3FFE001FFF00
3FFF001FFF00
3FFF003FFF00
1FFF803FFF00
1FFFC07FFF00
0FFFE0FFFE00
0FFFFFFFFE00
07FFFFFFFC00
07FFFFFFFC00
03FFFFFFF800
01FFFFFFF000
00FFFFFFF000
007FFFFFC000
003FFFFF8000
000FFFFF0000
0003FFFC0000
00007FC00000
ENDCHAR
STARTCHAR 0037
ENCODING 55
SWIDTH 545 0
DWIDTH 47 0
BBX 39 55 4 0
BITMAP
FFFFFFFFFE
FFFFFFFFFE
FFFFFFFFFE
FFFFFFFFFE
FFFFFFFFFE
FFFFFFFFFE
FFFFFFFFFE
FFFFFFFFFE
FFFFFFFFFE
FFFFFFFFFE
FFFFFFFFFC
FFFFFFFFF8
000001FFF0
000003FFE0
000003FFE0
000007FFC0
00000FFF80
00000FFF80
00001FFF00
00001FFE00
00003FFE00
00003FFC00
00007FFC00
0000FFF800
0000FFF800
0000FFF800
0001FFF000
0001FFF000
0003FFE000
0003FFE000
0007FFE000
0007FFE000
0007FFC000
000FFFC000
000FFFC000
000FFFC000
000FFFC000
001FFF8000
001FFF8000
001FFF8000
001FFF8000
001FFF8000
003FFF8000
003FFF8000
003FFF8000
003FFF8000
003FFF0000
003FFF0000
003FFF0000
003FFF0000
007FFF0000
007FFF0000
007FFF0000
007FFF0000
007FFF0000
ENDCHAR
STARTCHAR 0038
ENCODING 56
SWIDTH 545 0
DWIDTH 47 0
BBX 39 57 4 -1
BITMAP
0001FF8000
001FFFF000
007FFFFC00
01FFFFFE00
03FFFFFF00
07FFFFFF80
0FFFFFFFC0
0FFFFFFFE0
1FFFFFFFE0
1FFFFFFFF0
3FFF87FFF0
3FFF01FFF0
3FFE00FFF0
7FFE00FFF8
7FFC007FF8
7FFC007FF8
7FFC007FF8
7FFE007FF0
3FFE007FF0
3FFF00FFF0
3FFF80FFE0
1FFFE1FFE0
1FFFF9FFC0
0FFFFFFF80
0FFFFFFF00
07FFFFFE00
03FFFFFC00
01FFFFFC00
00FFFFFF00
00FFFFFF80
03FFFFFFE0
07FFFFFFE0
0FFFFFFFF0
1FFE7FFFF8
3FFC1FFFFC
7FF807FFFC
7FF801FFFC
FFF800FFFE
FFF0007FFE
FFF0007FFE
FFF0007FFE
FFF0007FFE
FFF8007FFE
FFF8007FFE
FFFC007FFE
FFFE00FFFE
FFFF83FFFC
7FFFFFFFFC
7FFFFFFFF8
3FFFFFFFF8
1FFFFFFFF0
0FFFFFFFE0
07FFFFFFC0
03FFFFFF00
00FFFFFE00
003FFFF000
0003FF0000
ENDCHAR
STARTCHAR 0039
ENCODING 57
SWIDTH 545 0
DWIDTH 47 0
BBX 40 57 3 -1
BITMAP
0003FE0000
001FFFE000
007FFFF800
01FFFFFC00
03FFFFFF00
07FFFFFF80
0FFFFFFFC0
1FFFFFFFC0
1FFFFFFFE0
3FFFFFFFF0
7FFFFFFFF0
7FFF87FFF8
7FFE01FFF8
FFFC00FFFC
FFFC00FFFC
FFFC007FFC
FFF8007FFE
FFF8007FFE
FFF8003FFE
FFF8003FFE
FFF8003FFF
FFFC003FFF
FFFC007FFF
FFFC00FFFF
FFFE01FFFF
7FFFCFFFFF
7FFFFFFFFF
7FFFFFFFFF
3FFFFFFFFF
1FFFFFFFFF
1FFFFFFFFF
0FFFFFDFFF
07FFFFBFFF
01FFFE3FFF
00FFFC3FFF
001FE03FFE
0000003FFE
0000003FFE
0000007FFE
0000007FFE
000000FFFC
000000FFFC
01C001FFFC
03E003FFF8
07F80FFFF8
07FFFFFFF0
0FFFFFFFF0
1FFFFFFFE0
3FFFFFFFC0
7FFFFFFF80
7FFFFFFF80
3FFFFFFF00
1FFFFFFC00
07FFFFF800
01FFFFE000
007FFF8000
000FFC0000
ENDCHAR
STARTCHAR 003A
ENCODING 58
SWIDTH 325 0
DWIDTH 28 0
BBX 17 45 5 -1
BITMAP
03F000
0FFC00
1FFE00
3FFF00
7FFF00
7FFF80
7FFF80
FFFF80
FFFF80
FFFF80
FFFF80
FFFF80
7FFF80
7FFF00
3FFF00
1FFE00
0FFC00
03E000
000000
000000
000000
000000
000000
000000
000000
000000
000000
03F000
0FFC00
1FFE00
3FFF00
7FFF00
7FFF80
7FFF80
FFFF80
FFFF80
FFFF80
FFFF80
FFFF80
7FFF80
7FFF00
3FFF00
1FFE00
0FFC00
03F000
ENDCHAR
STARTCHAR 003B
ENCODING 59
SWIDTH 325 0
DWIDTH 28 0
BBX 20 61 4 -17
BITMAP
01F800
07FE00
0FFF00
1FFF80
3FFF80
3FFFC0
3FFFC0
7FFFC0
7FFFC0
7FFFC0
7FFFC0
7FFFC0
3FFFC0
3FFF80
1FFF80
0FFF00
07FE00
01F000
000000
000000
000000
000000
000000
000000
000000
000000
000000
01F800
07FE00
0FFF80
1FFF80
3FFFC0
3FFFE0
7FFFE0
7FFFE0
7FFFF0
7FFFF0
7FFFF0
3FFFF0
3FFFF0
1FFFF0
0FFFF0
03FFF0
003FF0
003FF0
003FE0
003FE0
007FE0
00FFE0
00FFC0
03FFC0
07FF80
1FFF00
7FFF00
FFFE00
7FFC00
7FF800
7FE000
3FC000
3F0000
180000
ENDCHAR
STARTCHAR 003C
ENCODING 60
SWIDTH 545 0
DWIDTH 47 0
BBX 41 41 3 8
BITMAP
000000000180
000000000780
000000003F80
00000001FF80
00000007FF80
0000003FFF80
000000FFFF80
000007FFFF80
00003FFFFF80
0000FFFFFF80
0007FFFFFF80
003FFFFFFF80
00FFFFFFFE00
07FFFFFFF000
1FFFFFFF8000
FFFFFFF80000
FFFFFFC00000
FFFFFE000000
FFFFF0000000
FFFF80000000
FFFE00000000
FFFF80000000
FFFFF0000000
FFFFFE000000
FFFFFFC00000
FFFFFFF80000
1FFFFFFF8000
07FFFFFFF000
00FFFFFFFE00
003FFFFFFF80
0007FFFFFF80
0000FFFFFF80
00003FFFFF80
000007FFFF80
000000FFFF80
0000003FFF80
00000007FF80
00000001FF80
000000003F80
000000000780
000000000180
ENDCHAR
STARTCHAR 003D
ENCODING 61
SWIDTH 545 0
DWIDTH 47 0
BBX 41 31 3 13
BITMAP
FFFFFFFFFF80
FFFFFFFFFF80
FFFFFFFFFF80
FFFFFFFFFF80
FFFFFFFFFF80
FFFFFFFFFF80
FFFFFFFFFF80
FFFFFFFFFF80
FFFFFFFFFF80
FFFFFFFFFF80
000000000000
000000000000
000000000000
000000000000
000000000000
000000000000
000000000000
000000000000
000000000000
000000000000
000000000000
FFFFFFFFFF80
FFFFFFFFFF80
FFFFFFFFFF80
FFFFFFFFFF80
FFFFFFFFFF80
FFFFFFFFFF80
FFFFFFFFFF80
FFFFFFFFFF80
FFFFFFFFFF80
FFFFFFFFFF80
ENDCHAR
STARTCHAR 003E
ENCODING 62
SWIDTH 545 0
DWIDTH 47 0
BBX 41 41 3 8
BITMAP
800000000000
F00000000000
FC0000000000
FF8000000000
FFF000000000
FFFC00000000
FFFF80000000
FFFFF0000000
FFFFFC000000
FFFFFF800000
FFFFFFE00000
FFFFFFFC0000
7FFFFFFF8000
07FFFFFFE000
00FFFFFFFC00
001FFFFFFF80
0003FFFFFF80
00007FFFFF80
00000FFFFF80
000001FFFF80
0000003FFF80
000001FFFF80
00000FFFFF80
00007FFFFF80
0003FFFFFF80
001FFFFFFF80
00FFFFFFFC00
07FFFFFFE000
7FFFFFFF8000
FFFFFFFC0000
FFFFFFE00000
FFFFFF800000
FFFFFC000000
FFFFF0000000
FFFF80000000
FFFC00000000
FFF000000000
FF8000000000
FC0000000000
F00000000000
800000000000
ENDCHAR
STARTCHAR 003F
ENCODING 63
SWIDTH 476 0
DWIDTH 41 0
BBX 34 60 4 -1
BITMAP
0007F80000
007FFF8000
01FFFFE000
07FFFFF800
0FFFFFFC00
3FFFFFFE00
7FFFFFFE00
FFFFFFFF00
FFFFFFFF00
7FFFFFFF80
3FFFFFFF80
1FFFFFFF80
0FF07FFFC0
07C01FFFC0
03801FFFC0
00000FFFC0
00000FFFC0
00001FFFC0
00001FFF80
00003FFF80
00003FFF00
00007FFF00
0000FFFE00
0001FFFE00
0003FFFC00
0007FFF800
0007FFF000
000FFFE000
001FFFC000
001FFF8000
003FFF0000
003FFF0000
007FFE0000
007FFE0000
007FFC0000
007FFC0000
007FFC0000
007FFC0000
0000000000
0000000000
0000000000
0000000000
0007C00000
001FF00000
003FF80000
007FFC0000
00FFFE0000
00FFFE0000
01FFFF0000
01FFFF0000
01FFFF0000
01FFFF0000
01FFFF0000
01FFFF0000
01FFFE0000
00FFFE0000
007FFC0000
007FFC0000
001FF00000
000FC00000
ENDCHAR
STARTCHAR 0040
ENCODING 64
SWIDTH 929 0
DWIDTH 80 0
BBX 71 73 4 -15
BITMAP
000000003FFC000000
00000007FFFFE00000
0000003FFFFFFC0000
000001FFFFFFFF0000
000007FFFFFFFFC000
00001FFFFFFFFFE000
00003FFFFFFFFFF000
0000FFFFFFFFFFFC00
0001FFFFFFFFFFFE00
0003FFFF8003FFFF00
0007FFF800007FFF80
000FFFE000001FFF80
001FFF80000007FFC0
003FFF00000001FFE0
007FFC00000000FFE0
00FFF8000000007FF0
01FFF0000000003FF0
01FFE0000000003FF8
03FFC0000000001FF8
07FF80000000000FFC
07FF0000FF0FF80FFC
0FFF0007FF8FF80FFC
0FFE000FFFDFF807FC
1FFC003FFFDFF007FE
1FFC007FFFFFF007FE
1FF800FFFFFFF003FE
3FF801FFFFFFF003FE
3FF001FFFFFFE003FE
3FF003FFFFFFE003FE
7FF007FFE1FFE003FE
7FE007FF80FFE003FE
7FE00FFF00FFE003FE
7FE00FFF00FFC003FE
7FE00FFE00FFC003FE
7FC01FFE01FFC003FE
FFC01FFC01FFC003FE
FFC01FFC01FFC003FE
FFC01FFC01FF8003FE
FFC01FFC01FF8007FE
FFC03FF801FF8007FC
FFC03FF803FF800FFC
FFC03FFC03FF800FFC
FFC03FFC03FF801FF8
FFC01FFC07FF803FF8
FFC01FFE1FFF807FF0
FFC01FFFFFFFC1FFF0
7FE01FFFFFFFFFFFE0
7FE00FFFFFFFFFFFC0
7FE00FFFFF7FFFFF80
7FF007FFFF7FFFFF00
7FF003FFFE7FFFFE00
3FF001FFF83FFFFC00
3FF800FFF01FFFF000
3FF8003FC007FFC000
1FFC00000001FE0000
1FFE00000000000000
0FFF00000000000000
0FFF80000000000000
07FFC0000000000000
07FFE0000000000000
03FFF8000000000000
01FFFC000001000000
00FFFF800007000000
007FFFF0007F800000
003FFFFFFFFF800000
001FFFFFFFFF800000
000FFFFFFFFFC00000
0003FFFFFFFFC00000
0001FFFFFFFFE00000
00007FFFFFFFC00000
00000FFFFFFF000000
000001FFFFF8000000
0000001FFF00000000
ENDCHAR
STARTCHAR 0041
ENCODING 65
SWIDTH 580 0
DWIDTH 50 0
BBX 52 56 -1 0
BITMAP
00007FFFE00000
00007FFFF00000
0000FFFFF00000
0000FFFFF00000
0000FFFFF00000
0000FFFFF80000
0001FFFFF80000
0001FFFFF80000
0001FFFFFC0000
0003FFFFFC0000
0003FFFFFC0000
0003FFFFFE0000
0007FFBFFE0000
0007FF9FFE0000
0007FF9FFF0000
000FFF9FFF0000
000FFF1FFF0000
000FFF1FFF0000
000FFF0FFF8000
001FFF0FFF8000
001FFF0FFF8000
001FFE0FFFC000
003FFE07FFC000
003FFE07FFC000
003FFE07FFE000
007FFC07FFE000
007FFC03FFE000
007FFC03FFE000
00FFFC03FFF000
00FFF803FFF000
00FFF801FFF000
00FFF801FFF800
01FFF801FFF800
01FFFFFFFFF800
01FFFFFFFFFC00
03FFFFFFFFFC00
03FFFFFFFFFC00
03FFFFFFFFFE00
07FFFFFFFFFE00
07FFFFFFFFFE00
07FFFFFFFFFE00
07FFFFFFFFFF00
0FFFFFFFFFFF00
0FFFFFFFFFFF00
0FFFC0003FFF80
1FFFC0003FFF80
1FFF80003FFF80
1FFF80001FFFC0
3FFF80001FFFC0
3FFF80001FFFC0
3FFF80001FFFC0
7FFF00001FFFE0
7FFF00000FFFE0
7FFF00000FFFE0
7FFF00000FFFF0
FFFE00000FFFF0
ENDCHAR
STARTCHAR 0042
ENCODING 66
SWIDTH 615 0
DWIDTH 53 0
BBX 44 56 6 0
BITMAP
FFFFFFF00000
FFFFFFFF0000
FFFFFFFFE000
FFFFFFFFF000
FFFFFFFFFC00
FFFFFFFFFE00
FFFFFFFFFF00
FFFFFFFFFF00
FFFFFFFFFF80
FFFFFFFFFF80
FFFFFFFFFF80
FFFE07FFFF80
FFFE007FFF80
FFFE003FFFC0
FFFE001FFFC0
FFFE001FFF80
FFFE001FFF80
FFFE001FFF80
FFFE001FFF80
FFFE003FFF00
FFFE007FFF00
FFFE01FFFE00
FFFFFFFFFE00
FFFFFFFFFC00
FFFFFFFFF800
FFFFFFFFF000
FFFFFFFFE000
FFFFFFFFF800
FFFFFFFFFE00
FFFFFFFFFF00
FFFFFFFFFF80
FFFFFFFFFFC0
FFFFFFFFFFC0
FFFE003FFFE0
FFFE000FFFE0
FFFE0007FFF0
FFFE0007FFF0
FFFE0003FFF0
FFFE0003FFF0
FFFE0003FFF0
FFFE0007FFF0
FFFE0007FFF0
FFFE000FFFF0
FFFE001FFFF0
FFFE03FFFFE0
FFFFFFFFFFE0
FFFFFFFFFFE0
FFFFFFFFFFC0
FFFFFFFFFF80
FFFFFFFFFF80
FFFFFFFFFF00
FFFFFFFFFC00
FFFFFFFFF800
FFFFFFFFE000
FFFFFFFF0000
FFFFFFF00000
ENDCHAR
STARTCHAR 0043
ENCODING 67
SWIDTH 580 0
DWIDTH 50 0
BBX 45 58 4 -1
BITMAP
000003FF0000
00003FFFE000
0001FFFFFC00
0003FFFFFE00
000FFFFFFF80
001FFFFFFFC0
007FFFFFFFE0
00FFFFFFFFF0
01FFFFFFFFE0
03FFFFFFFFE0
03FFFFFFFFC0
07FFFFFFFF80
0FFFFFFFFF00
0FFFFE01FE00
1FFFF8007C00
1FFFF0001C00
3FFFE0000800
3FFFC0000000
7FFFC0000000
7FFF80000000
7FFF80000000
7FFF00000000
FFFF00000000
FFFF00000000
FFFE00000000
FFFE00000000
FFFE00000000
FFFE00000000
FFFE00000000
FFFE00000000
FFFE00000000
FFFE00000000
FFFE00000000
FFFE00000000
FFFF00000000
FFFF00000000
FFFF00000000
7FFF00000000
7FFF80000000
7FFF80000000
7FFFC0000000
3FFFE0000C00
3FFFF0001E00
1FFFF8007F00
1FFFFE01FF80
0FFFFFFFFF80
0FFFFFFFFFC0
07FFFFFFFFE0
03FFFFFFFFF0
03FFFFFFFFF8
01FFFFFFFFF0
00FFFFFFFFE0
003FFFFFFFC0
001FFFFFFF80
0007FFFFFE00
0003FFFFFC00
00007FFFE000
000007FF0000
ENDCHAR
STARTCHAR 0044
ENCODING 68
SWIDTH 638 0
DWIDTH 55 0
BBX 45 56 6 0
BITMAP
FFFFFF000000
FFFFFFF00000
FFFFFFFE0000
FFFFFFFF8000
FFFFFFFFE000
FFFFFFFFF000
FFFFFFFFFC00
FFFFFFFFFE00
FFFFFFFFFF00
FFFFFFFFFF00
FFFFFFFFFF80
FFFFFFFFFFC0
FFFE07FFFFC0
FFFE00FFFFE0
FFFE003FFFE0
FFFE001FFFF0
FFFE000FFFF0
FFFE000FFFF0
FFFE0007FFF8
FFFE0007FFF8
FFFE0007FFF8
FFFE0003FFF8
FFFE0003FFF8
FFFE0003FFF8
FFFE0003FFF8
FFFE0003FFF8
FFFE0003FFF8
FFFE0003FFF8
FFFE0003FFF8
FFFE0003FFF8
FFFE0003FFF8
FFFE0003FFF8
FFFE0003FFF8
FFFE0003FFF8
FFFE0003FFF8
FFFE0007FFF8
FFFE0007FFF8
FFFE0007FFF0
FFFE000FFFF0
FFFE001FFFF0
FFFE001FFFE0
FFFE007FFFE0
FFFE00FFFFE0
FFFE07FFFFC0
FFFFFFFFFFC0
FFFFFFFFFF80
FFFFFFFFFF00
FFFFFFFFFE00
FFFFFFFFFC00
FFFFFFFFF800
FFFFFFFFF000
FFFFFFFFE000
FFFFFFFF8000
FFFFFFFE0000
FFFFFFF00000
FFFFFF000000
ENDCHAR
STARTCHAR 0045
ENCODING 69
SWIDTH 557 0
DWIDTH 48 0
BBX 37 56 6 0
BITMAP
FFFFFFFFF0
FFFFFFFFF0
FFFFFFFFF0
FFFFFFFFF0
FFFFFFFFF0
FFFFFFFFF0
FFFFFFFFF0
FFFFFFFFF0
FFFFFFFFF0
FFFFFFFFF0
FFFFFFFFF0
FFFFFFFFF0
FFFE000000
FFFE000000
FFFE000000
FFFE000000
FFFE000000
FFFE000000
FFFE000000
FFFE000000
FFFE000000
FFFFFFFF80
FFFFFFFF80
FFFFFFFF80
FFFFFFFF80
FFFFFFFF80
FFFFFFFF80
FFFFFFFF80
FFFFFFFF80
FFFFFFFF80
FFFFFFFF80
FFFFFFFF80
FFFFFFFF80
FFFE000000
FFFE000000
FFFE000000
FFFE000000
FFFE000000
FFFE000000
FFFE000000
FFFE000000
FFFE000000
FFFE000000
FFFE000000
FFFFFFFFF8
FFFFFFFFF8
FFFFFFFFF8
FFFFFFFFF8
FFFFFFFFF8
FFFFFFFFF8
FFFFFFFFF8
FFFFFFFFF8
FFFFFFFFF8
FFFFFFFFF8
FFFFFFFFF8
FFFFFFFFF8
ENDCHAR
STARTCHAR 0046
ENCODING 70
SWIDTH 534 0
DWIDTH 46 0
BBX 37 56 6 0
BITMAP
FFFFFFFFF8
FFFFFFFFF8
FFFFFFFFF8
FFFFFFFFF8
FFFFFFFFF8
FFFFFFFFF8
FFFFFFFFF8
FFFFFFFFF8
FFFFFFFFF8
FFFFFFFFF8
FFFFFFFFF8
FFFFFFFFF8
FFFE000000
FFFE000000
FFFE000000
FFFE000000
FFFE000000
FFFE000000
FFFE000000
FFFE000000
FFFE000000
FFFE000000
FFFE000000
FFFFFFFFC0
FFFFFFFFC0
FFFFFFFFC0
FFFFFFFFC0
FFFFFFFFC0
FFFFFFFFC0
FFFFFFFFC0
FFFFFFFFC0
FFFFFFFFC0
FFFFFFFFC0
FFFFFFFFC0
FFFFFFFFC0
FFFE000000
FFFE000000
FFFE000000
FFFE000000
FFFE000000
FFFE000000
FFFE000000
FFFE000000
FFFE000000
FFFE000000
FFFE000000
FFFE000000
FFFE000000
FFFE000000
FFFE000000
FFFE000000
FFFE000000
FFFE000000
FFFE000000
FFFE000000
FFFE000000
ENDCHAR
STARTCHAR 0047
ENCODING 71
SWIDTH 650 0
DWIDTH 56 0
BBX 47 58 4 -1
BITMAP
000003FF8000
00003FFFF800
0000FFFFFE00
0003FFFFFF80
000FFFFFFFE0
001FFFFFFFF0
007FFFFFFFF8
00FFFFFFFFFC
01FFFFFFFFF8
03FFFFFFFFF0
03FFFFFFFFE0
07FFFFFFFFE0
0FFFFFFFFFC0
0FFFFF007F80
1FFFFC001F00
1FFFF0000600
3FFFE0000000
3FFFC0000000
7FFFC0000000
7FFF80000000
7FFF00000000
7FFF00000000
FFFF00000000
FFFF00000000
FFFE003FFFFE
FFFE003FFFFE
FFFE003FFFFE
FFFE003FFFFE
FFFE003FFFFE
FFFE003FFFFE
FFFE003FFFFE
FFFE003FFFFE
FFFE003FFFFE
FFFE003FFFFE
FFFF003FFFFE
FFFF003FFFFE
FFFF00003FFE
7FFF80003FFE
7FFF80003FFE
7FFFC0003FFE
3FFFC0003FFE
3FFFE0003FFE
3FFFF0003FFE
1FFFFC003FFE
1FFFFF007FFE
0FFFFFFFFFFE
0FFFFFFFFFFE
07FFFFFFFFFE
03FFFFFFFFFE
01FFFFFFFFFE
00FFFFFFFFFE
007FFFFFFFFE
003FFFFFFFF8
001FFFFFFFF0
0007FFFFFFC0
0001FFFFFF00
00003FFFF800
000003FF8000
ENDCHAR
STARTCHAR 0048
ENCODING 72
SWIDTH 685 0
DWIDTH 59 0
BBX 47 56 6 0
BITMAP
FFFE0000FFFE
FFFE0000FFFE
FFFE0000FFFE
FFFE0000FFFE
FFFE0000FFFE
FFFE0000FFFE
FFFE0000FFFE
FFFE0000FFFE
FFFE0000FFFE
FFFE0000FFFE
FFFE0000FFFE
FFFE0000FFFE
FFFE0000FFFE
FFFE0000FFFE
FFFE0000FFFE
FFFE0000FFFE
FFFE0000FFFE
FFFE0000FFFE
FFFE0000FFFE
FFFE0000FFFE
FFFE0000FFFE
FFFFFFFFFFFE
FFFFFFFFFFFE
FFFFFFFFFFFE
FFFFFFFFFFFE
FFFFFFFFFFFE
FFFFFFFFFFFE
FFFFFFFFFFFE
FFFFFFFFFFFE
FFFFFFFFFFFE
FFFFFFFFFFFE
FFFFFFFFFFFE
FFFFFFFFFFFE
FFFFFFFFFFFE
FFFE0000FFFE
FFFE0000FFFE
FFFE0000FFFE
FFFE0000FFFE
FFFE0000FFFE
FFFE0000FFFE
FFFE0000FFFE
FFFE0000FFFE
FFFE0000FFFE
FFFE0000FFFE
FFFE0000FFFE
FFFE0000FFFE
FFFE0000FFFE
FFFE0000FFFE
FFFE0000FFFE
FFFE0000FFFE
FFFE0000FFFE
FFFE0000FFFE
FFFE0000FFFE
FFFE0000FFFE
FFFE0000FFFE
FFFE0000FFFE
ENDCHAR
STARTCHAR 0049
ENCODING 73
SWIDTH 313 0
DWIDTH 27 0
BBX 15 56 6 0
BITMAP
FFFE
FFFE
FFFE
FFFE
FFFE
FFFE
FFFE
FFFE
FFFE
FFFE
FFFE
FFFE
FFFE
FFFE
FFFE
FFFE
FFFE
FFFE
FFFE
FFFE
FFFE
FFFE
FFFE
FFFE
FFFE
FFFE
FFFE
FFFE
FFFE
FFFE
FFFE
FFFE
FFFE
FFFE
FFFE
FFFE
FFFE
FFFE
FFFE
FFFE
FFFE
FFFE
FFFE
FFFE
FFFE
FFFE
FFFE
FFFE
FFFE
FFFE
FFFE
FFFE
FFFE
FFFE
FFFE
FFFE
ENDCHAR
STARTCHAR 004A
ENCODING 74
SWIDTH 522 0
DWIDTH 45 0
BBX 38 57 1 -1
BITMAP
000001FFFC
000001FFFC
000001FFFC
000001FFFC
000001FFFC
000001FFFC
000001FFFC
000001FFFC
000001FFFC
000001FFFC
000001FFFC
000001FFFC
000001FFFC
000001FFFC
000001FFFC
000001FFFC
000001FFFC
000001FFFC
000001FFFC
000001FFFC
000001FFFC
000001FFFC
000001FFFC
000001FFFC
000001FFFC
000001FFFC
000001FFFC
000001FFFC
000001FFFC
000001FFFC
000001FFFC
000001FFFC
000001FFFC
000001FFFC
000001FFFC
000001FFFC
000001FFFC
000001FFFC
000001FFFC
004001FFFC
00E001FFFC
03F003FFF8
07F807FFF8
0FFC0FFFF8
3FFFFFFFF8
7FFFFFFFF0
FFFFFFFFF0
7FFFFFFFF0
7FFFFFFFE0
3FFFFFFFC0
1FFFFFFFC0
0FFFFFFF80
07FFFFFF00
03FFFFFE00
00FFFFF800
003FFFE000
0007FF0000
ENDCHAR
STARTCHAR 004B
ENCODING 75
SWIDTH 627 0
DWIDTH 54 0
BBX 49 56 6 0
BITMAP
FFFE0007FFF800
FFFE000FFFF800
FFFE000FFFF000
FFFE001FFFE000
FFFE003FFFC000
FFFE003FFFC000
FFFE007FFF8000
FFFE00FFFF0000
FFFE00FFFE0000
FFFE01FFFE0000
FFFE03FFFC0000
FFFE03FFF80000
FFFE07FFF00000
FFFE0FFFF00000
FFFE0FFFE00000
FFFE1FFFC00000
FFFE3FFFC00000
FFFE3FFF800000
FFFE7FFF000000
FFFEFFFE000000
FFFEFFFE000000
FFFFFFFC000000
FFFFFFF8000000
FFFFFFF8000000
FFFFFFFC000000
FFFFFFFE000000
FFFFFFFE000000
FFFFFFFF000000
FFFFFFFF000000
FFFFFFFF800000
FFFFFFFFC00000
FFFFFFFFC00000
FFFFFFFFE00000
FFFFFFFFE00000
FFFFFFFFF00000
FFFFF7FFF80000
FFFFE7FFF80000
FFFFC3FFFC0000
FFFFC1FFFC0000
FFFF81FFFE0000
FFFF00FFFF0000
FFFE00FFFF0000
FFFE007FFF8000
FFFE003FFF8000
FFFE003FFFC000
FFFE001FFFE000
FFFE001FFFE000
FFFE000FFFF000
FFFE000FFFF000
FFFE0007FFF800
FFFE0003FFFC00
FFFE0003FFFC00
FFFE0001FFFE00
FFFE0001FFFE00
FFFE0000FFFF00
FFFE0000FFFF80
ENDCHAR
STARTCHAR 004C
ENCODING 76
SWIDTH 534 0
DWIDTH 46 0
BBX 36 56 6 0
BITMAP
FFFE000000
FFFE000000
FFFE000000
FFFE000000
FFFE000000
FFFE000000
FFFE000000
FFFE000000
FFFE000000
FFFE000000
FFFE000000
FFFE000000
FFFE000000
FFFE000000
FFFE000000
FFFE000000
FFFE000000
FFFE000000
FFFE000000
FFFE000000
FFFE000000
FFFE000000
FFFE000000
FFFE000000
FFFE000000
FFFE000000
FFFE000000
FFFE000000
FFFE000000
FFFE000000
FFFE000000
FFFE000000
FFFE000000
FFFE000000
FFFE000000
FFFE000000
FFFE000000
FFFE000000
FFFE000000
FFFE000000
FFFE000000
FFFE000000
FFFE000000
FFFE000000
FFFFFFFFF0
FFFFFFFFF0
FFFFFFFFF0
FFFFFFFFF0
FFFFFFFFF0
FFFFFFFFF0
FFFFFFFFF0
FFFFFFFFF0
FFFFFFFFF0
FFFFFFFFF0
FFFFFFFFF0
FFFFFFFFF0
ENDCHAR
STARTCHAR 004D
ENCODING 77
SWIDTH 778 0
DWIDTH 67 0
BBX 55 56 6 0
BITMAP
FFFF000001FFFE
FFFF800003FFFE
FFFF800003FFFE
FFFF800003FFFE
FFFFC00007FFFE
FFFFC00007FFFE
FFFFC0000FFFFE
FFFFE0000FFFFE
FFFFE0000FFFFE
FFFFF0001FFFFE
FFFFF0001FFFFE
FFFFF0001FFFFE
FFFFF8003FFFFE
FFFFF8003FFFFE
FFFFF8003FFFFE
FFFFFC007FFFFE
FFFFFC007FFFFE
FFFFFC007FFFFE
FFFFFE00FFFFFE
FFFFFE00FFFFFE
FFFFFF00FFDFFE
FFF7FF01FFDFFE
FFF7FF01FFDFFE
FFF7FF81FF9FFE
FFF3FF83FFBFFE
FFF3FF83FFBFFE
FFFBFFC3FF3FFE
FFF9FFC7FF3FFE
FFF9FFC7FF3FFE
FFF9FFE7FE3FFE
FFF8FFEFFE3FFE
FFF8FFEFFE3FFE
FFF8FFEFFC3FFE
FFF87FFFFC3FFE
FFF87FFFF87FFE
FFF87FFFF87FFE
FFF83FFFF87FFE
FFF83FFFF07FFE
FFF83FFFF07FFE
FFF81FFFF07FFE
FFF81FFFE07FFE
FFF80FFFE07FFE
FFF80FFFE07FFE
FFF80FFFC07FFE
FFF807FFC07FFE
FFF807FF807FFE
FFF807FF807FFE
FFF803FF807FFE
FFF803FF007FFE
FFF801FF007FFE
FFF801FF007FFE
FFF80000007FFE
FFF80000007FFE
FFF80000007FFE
FFF80000007FFE
FFF80000007FFE
ENDCHAR
STARTCHAR 004E
ENCODING 78
SWIDTH 673 0
DWIDTH 58 0
BBX 46 56 6 0
BITMAP
FFFF0000FFFC
FFFF0000FFFC
FFFF8000FFFC
FFFF8000FFFC
FFFFC000FFFC
FFFFC000FFFC
FFFFE000FFFC
FFFFE000FFFC
FFFFF000FFFC
FFFFF000FFFC
FFFFF800FFFC
FFFFF800FFFC
FFFFFC00FFFC
FFFFFC00FFFC
FFFFFE00FFFC
FFFFFE00FFFC
FFFFFF00FFFC
FFFFFF00FFFC
FFF7FF80FFFC
FFFFFF80FFFC
FFFBFFC0FFFC
FFFBFFC0FFFC
FFFBFFE0FFFC
FFF9FFE0FFFC
FFF9FFF0FFFC
FFF8FFF0FFFC
FFF8FFF0FFFC
FFFC7FF8FFFC
FFFC7FF8FFFC
FFFC7FFC7FFC
FFFC3FFC7FFC
FFFC3FFE7FFC
FFFC1FFE7FFC
FFFC1FFE7FFC
FFFC0FFF7FFC
FFFC0FFF7FFC
FFFC07FFFFFC
FFFC07FFFFFC
FFFC03FFFFFC
FFFC03FFFFFC
FFFC01FFFFFC
FFFC01FFFFFC
FFFC00FFFFFC
FFFC00FFFFFC
FFFC007FFFFC
FFFC007FFFFC
FFFC003FFFFC
FFFC003FFFFC
FFFC001FFFFC
FFFC001FFFFC
FFFC000FFFFC
FFFC000FFFFC
FFFC0007FFFC
FFFC0007FFFC
FFFC0003FFFC
FFFC0003FFFC
ENDCHAR
STARTCHAR 004F
ENCODING 79
SWIDTH 696 0
DWIDTH 60 0
BBX 52 58 4 -1
BITMAP
00000FFF000000
0000FFFFE00000
0003FFFFFC0000
000FFFFFFF0000
003FFFFFFF8000
007FFFFFFFE000
00FFFFFFFFF000
01FFFFFFFFF800
03FFFFFFFFFC00
07FFFFFFFFFC00
07FFFFFFFFFE00
0FFFFFFFFFFF00
1FFFFFFFFFFF00
1FFFFC03FFFF80
3FFFF001FFFF80
3FFFE0007FFFC0
3FFFC0007FFFC0
7FFF80003FFFC0
7FFF80001FFFE0
7FFF80001FFFE0
7FFF00001FFFE0
FFFF00000FFFE0
FFFF00000FFFE0
FFFE00000FFFF0
FFFE00000FFFF0
FFFE00000FFFF0
FFFE000007FFF0
FFFE000007FFF0
FFFE000007FFF0
FFFE000007FFF0
FFFE000007FFF0
FFFE000007FFF0
FFFE00000FFFF0
FFFE00000FFFF0
FFFF00000FFFE0
FFFF00000FFFE0
7FFF00000FFFE0
7FFF00001FFFE0
7FFF80001FFFE0
7FFF80001FFFC0
7FFFC0003FFFC0
3FFFC0007FFFC0
3FFFE000FFFF80
1FFFF001FFFF80
1FFFFC03FFFF00
0FFFFFFFFFFF00
0FFFFFFFFFFE00
07FFFFFFFFFE00
03FFFFFFFFFC00
03FFFFFFFFF800
01FFFFFFFFF000
00FFFFFFFFE000
007FFFFFFFC000
001FFFFFFF8000
000FFFFFFE0000
0003FFFFFC0000
0000FFFFE00000
00000FFE000000
ENDCHAR
STARTCHAR 0050
ENCODING 80
SWIDTH 603 0
DWIDTH 52 0
BBX 43 56 6 0
BITMAP
FFFFFFF00000
FFFFFFFF0000
FFFFFFFFC000
FFFFFFFFF000
FFFFFFFFF800
FFFFFFFFFE00
FFFFFFFFFF00
FFFFFFFFFF00
FFFFFFFFFF80
FFFFFFFFFFC0
FFFFFFFFFFC0
FFFFFFFFFFC0
FFFE007FFFE0
FFFE001FFFE0
FFFE000FFFE0
FFFE000FFFE0
FFFE0007FFE0
FFFE0007FFE0
FFFE0007FFE0
FFFE0007FFE0
FFFE0007FFE0
FFFE0007FFE0
FFFE000FFFE0
FFFE000FFFE0
FFFE001FFFE0
FFFE007FFFC0
FFFFFFFFFFC0
FFFFFFFFFF80
FFFFFFFFFF80
FFFFFFFFFF00
FFFFFFFFFF00
FFFFFFFFFE00
FFFFFFFFFC00
FFFFFFFFF000
FFFFFFFFE000
FFFFFFFF8000
FFFFFFFE0000
FFFFFFE00000
FFFE00000000
FFFE00000000
FFFE00000000
FFFE00000000
FFFE00000000
FFFE00000000
FFFE00000000
FFFE00000000
FFFE00000000
FFFE00000000
FFFE00000000
FFFE00000000
FFFE00000000
FFFE00000000
FFFE00000000
FFFE00000000
FFFE00000000
FFFE00000000
ENDCHAR
STARTCHAR 0051
ENCODING 81
SWIDTH 696 0
DWIDTH 60 0
BBX 55 73 4 -16
BITMAP
00000FFF000000
0000FFFFE00000
0003FFFFFC0000
000FFFFFFF0000
003FFFFFFF8000
007FFFFFFFE000
00FFFFFFFFF000
01FFFFFFFFF800
03FFFFFFFFFC00
07FFFFFFFFFC00
07FFFFFFFFFE00
0FFFFFFFFFFF00
1FFFFFFFFFFF00
1FFFFC03FFFF80
3FFFF001FFFF80
3FFFE0007FFFC0
3FFFC0007FFFC0
7FFF80003FFFC0
7FFF80001FFFE0
7FFF80001FFFE0
7FFF00001FFFE0
FFFF00000FFFE0
FFFF00000FFFE0
FFFE00000FFFF0
FFFE00000FFFF0
FFFE00000FFFF0
FFFE000007FFF0
FFFE000007FFF0
FFFE000007FFF0
FFFE000007FFF0
FFFE000007FFF0
FFFE000007FFF0
FFFE00000FFFF0
FFFE00000FFFF0
FFFE00000FFFE0
FFFF00000FFFE0
7FFF00000FFFE0
7FFF00000FFFE0
7FFF80001FFFE0
7FFF80001FFFC0
3FFF80003FFFC0
3FFFC0003FFFC0
3FFFE0007FFF80
1FFFF000FFFF80
1FFFF801FFFF00
0FFFFE0FFFFF00
0FFFFFFFFFFE00
07FFFFFFFFFE00
03FFFFFFFFFC00
03FFFFFFFFF800
01FFFFFFFFF000
00FFFFFFFFE000
007FFFFFFFC000
001FFFFFFF8000
000FFFFFFE0000
0003FFFFF80000
00007FFFE00000
00001FFFF00000
00000FFFF80000
00000FFFFC0000
000007FFFF8008
000003FFFFFFF8
000003FFFFFFF8
000001FFFFFFFC
000000FFFFFFFC
0000007FFFFFFC
0000003FFFFFFC
0000001FFFFFFE
00000007FFFFFE
00000003FFFFFE
00000000FFFFFE
000000001FFFFC
0000000001FFC0
ENDCHAR
STARTCHAR 0052
ENCODING 82
SWIDTH 627 0
DWIDTH 54 0
BBX 47 56 6 0
BITMAP
FFFFFFF00000
FFFFFFFF0000
FFFFFFFFE000
FFFFFFFFF800
FFFFFFFFFC00
FFFFFFFFFE00
FFFFFFFFFF00
FFFFFFFFFF80
FFFFFFFFFFC0
FFFFFFFFFFC0
FFFFFFFFFFE0
FFFFFFFFFFE0
FFFE003FFFE0
FFFE000FFFE0
FFFE000FFFF0
FFFE0007FFF0
FFFE0007FFF0
FFFE0007FFF0
FFFE0007FFF0
FFFE0007FFF0
FFFE0007FFF0
FFFE0007FFF0
FFFE000FFFE0
FFFE001FFFE0
FFFE007FFFE0
FFFFFFFFFFC0
FFFFFFFFFFC0
FFFFFFFFFFC0
FFFFFFFFFF80
FFFFFFFFFF00
FFFFFFFFFE00
FFFFFFFFFC00
FFFFFFFFF800
FFFFFFFFF000
FFFFFFFFE000
FFFFFFFFF000
FFFFFFFFF000
FFFE07FFF800
FFFE07FFF800
FFFE03FFFC00
FFFE03FFFC00
FFFE01FFFE00
FFFE01FFFE00
FFFE00FFFF00
FFFE00FFFF80
FFFE007FFF80
FFFE007FFFC0
FFFE003FFFC0
FFFE001FFFE0
FFFE001FFFE0
FFFE000FFFF0
FFFE000FFFF0
FFFE0007FFF8
FFFE0007FFF8
FFFE0003FFFC
FFFE0003FFFE
ENDCHAR
STARTCHAR 0053
ENCODING 83
SWIDTH 569 0
DWIDTH 49 0
BBX 43 58 3 -1
BITMAP
00003FF00000
0003FFFF0000
000FFFFFC000
003FFFFFF000
00FFFFFFFC00
01FFFFFFFE00
03FFFFFFFF00
07FFFFFFFF80
07FFFFFFFF00
0FFFFFFFFF00
1FFFFFFFFE00
1FFFFFFFFC00
1FFFFFFFF800
3FFFE00FF000
3FFF8003F000
3FFF8000E000
3FFF80004000
3FFF80000000
3FFFC0000000
3FFFE0000000
3FFFF8000000
3FFFFF000000
1FFFFFC00000
1FFFFFF80000
1FFFFFFE0000
0FFFFFFFC000
07FFFFFFE000
07FFFFFFF800
03FFFFFFFC00
01FFFFFFFE00
007FFFFFFF00
003FFFFFFF80
000FFFFFFF80
0003FFFFFFC0
00007FFFFFC0
00001FFFFFC0
000003FFFFE0
000000FFFFE0
0000003FFFE0
0000001FFFE0
0080000FFFE0
01E0000FFFE0
03F0001FFFE0
07FC001FFFC0
0FFF803FFFC0
1FFFFFFFFFC0
1FFFFFFFFFC0
3FFFFFFFFF80
7FFFFFFFFF80
FFFFFFFFFF00
FFFFFFFFFE00
3FFFFFFFFC00
1FFFFFFFF800
07FFFFFFF000
03FFFFFFE000
007FFFFF8000
001FFFFC0000
0001FFC00000
ENDCHAR
STARTCHAR 0054
ENCODING 84
SWIDTH 569 0
DWIDTH 49 0
BBX 44 56 2 0
BITMAP
FFFFFFFFFFF0
FFFFFFFFFFF0
FFFFFFFFFFF0
FFFFFFFFFFF0
FFFFFFFFFFF0
FFFFFFFFFFF0
FFFFFFFFFFF0
FFFFFFFFFFF0
FFFFFFFFFFF0
FFFFFFFFFFF0
FFFFFFFFFFF0
FFFFFFFFFFF0
0001FFFC0000
0001FFFC0000
0001FFFC0000
0001FFFC0000
0001FFFC0000
0001FFFC0000
0001FFFC0000
0001FFFC0000
0001FFFC0000
0001FFFC0000
0001FFFC0000
0001FFFC0000
0001FFFC0000
0001FFFC0000
0001FFFC0000
0001FFFC0000
0001FFFC0000
0001FFFC0000
0001FFFC0000
0001FFFC0000
0001FFFC0000
0001FFFC0000
0001FFFC0000
0001FFFC0000
0001FFFC0000
0001FFFC0000
0001FFFC0000
0001FFFC0000
0001FFFC0000
0001FFFC0000
0001FFFC0000
0001FFFC0000
0001FFFC0000
0001FFFC0000
0001FFFC0000
0001FFFC0000
0001FFFC0000
0001FFFC0000
0001FFFC0000
0001FFFC0000
0001FFFC0000
0001FFFC0000
0001FFFC0000
0001FFFC0000
ENDCHAR
STARTCHAR 0055
ENCODING 85
SWIDTH 673 0
DWIDTH 58 0
BBX 46 57 6 -1
BITMAP
FFFE0000FFFC
FFFE0000FFFC
FFFE0000FFFC
FFFE0000FFFC
FFFE0000FFFC
FFFE0000FFFC
FFFE0000FFFC
FFFE0000FFFC
FFFE0000FFFC
FFFE0000FFFC
FFFE0000FFFC
FFFE0000FFFC
FFFE0000FFFC
FFFE0000FFFC
FFFE0000FFFC
FFFE0000FFFC
FFFE0000FFFC
FFFE0000FFFC
FFFE0000FFFC
FFFE0000FFFC
FFFE0000FFFC
FFFE0000FFFC
FFFE0000FFFC
FFFE0000FFFC
FFFE0000FFFC
FFFE0000FFFC
FFFE0000FFFC
FFFE0000FFFC
FFFE0000FFFC
FFFE0000FFFC
FFFE0000FFFC
FFFE0000FFFC
FFFE0000FFFC
FFFE0000FFFC
FFFE0000FFFC
FFFE0001FFFC
FFFE0001FFFC
7FFE0001FFF8
7FFF0001FFF8
7FFF0001FFF8
7FFF0003FFF8
7FFF8007FFF8
3FFFC007FFF0
3FFFE01FFFF0
3FFFFFFFFFF0
1FFFFFFFFFE0
1FFFFFFFFFE0
0FFFFFFFFFC0
0FFFFFFFFFC0
07FFFFFFFF80
03FFFFFFFF00
01FFFFFFFE00
00FFFFFFFC00
007FFFFFF800
001FFFFFE000
0007FFFF8000
00007FF80000
ENDCHAR
STARTCHAR 0056
ENCODING 86
SWIDTH 569 0
DWIDTH 49 0
BBX 51 56 -1 0
BITMAP
FFFF00000FFFE0
7FFF00000FFFE0
7FFF00001FFFC0
7FFF80001FFFC0
7FFF80001FFFC0
3FFF80001FFF80
3FFF80003FFF80
3FFFC0003FFF80
1FFFC0003FFF80
1FFFC0003FFF00
1FFFC0003FFF00
1FFFE0007FFF00
0FFFE0007FFE00
0FFFE0007FFE00
0FFFE0007FFE00
07FFF000FFFE00
07FFF000FFFC00
07FFF000FFFC00
03FFF000FFFC00
03FFF001FFF800
03FFF801FFF800
03FFF801FFF800
01FFF801FFF000
01FFF803FFF000
01FFFC03FFF000
00FFFC03FFF000
00FFFC03FFE000
00FFFC03FFE000
007FFE07FFE000
007FFE07FFC000
007FFE07FFC000
007FFE07FFC000
003FFF0FFFC000
003FFF0FFF8000
003FFF0FFF8000
001FFF0FFF8000
001FFF0FFF0000
001FFF9FFF0000
001FFF9FFF0000
000FFF9FFE0000
000FFF9FFE0000
000FFFFFFE0000
0007FFFFFE0000
0007FFFFFC0000
0007FFFFFC0000
0003FFFFFC0000
0003FFFFF80000
0003FFFFF80000
0003FFFFF80000
0001FFFFF00000
0001FFFFF00000
0001FFFFF00000
0000FFFFF00000
0000FFFFE00000
0000FFFFE00000
0000FFFFE00000
ENDCHAR
STARTCHAR 0057
ENCODING 87
SWIDTH 824 0
DWIDTH 71 0
BBX 69 56 1 0
BITMAP
FFFE0007FF8001FFF8
FFFE000FFFC001FFF8
FFFE000FFFC001FFF8
FFFE000FFFC001FFF0
7FFF000FFFC003FFF0
7FFF000FFFC003FFF0
7FFF001FFFE003FFF0
7FFF001FFFE003FFF0
7FFF001FFFE003FFF0
3FFF001FFFE003FFE0
3FFF003FFFE003FFE0
3FFF003FFFF003FFE0
3FFF803FFFF007FFE0
3FFF803FFFF007FFE0
3FFF803FFFF007FFE0
1FFF807FFFF807FFE0
1FFF807FFFF807FFC0
1FFF807FFFF807FFC0
1FFF807FFFF807FFC0
1FFF807FFFF80FFFC0
1FFFC0FFFFFC0FFFC0
0FFFC0FFDFFC0FFFC0
0FFFC0FFDFFC0FFF80
0FFFC0FFDFFC0FFF80
0FFFC1FFDFFE0FFF80
0FFFC1FFDFFE0FFF80
0FFFC1FF9FFE0FFF80
07FFE1FF8FFE0FFF80
07FFE1FF8FFE1FFF00
07FFE1FF8FFE1FFF00
07FFE3FF8FFF1FFF00
07FFE3FF8FFF1FFF00
03FFE3FF8FFF1FFF00
03FFE3FF07FF1FFF00
03FFE3FF07FF1FFE00
03FFE3FF07FF9FFE00
03FFE7FF07FF9FFE00
03FFF7FF07FFBFFE00
01FFF7FE03FFBFFE00
01FFF7FE03FFBFFE00
01FFF7FE03FFBFFC00
01FFFFFE03FFFFFC00
01FFFFFE03FFFFFC00
01FFFFFC01FFFFFC00
00FFFFFC01FFFFFC00
00FFFFFC01FFFFFC00
00FFFFFC01FFFFF800
00FFFFFC01FFFFF800
00FFFFF800FFFFF800
007FFFF800FFFFF800
007FFFF800FFFFF800
007FFFF800FFFFF800
007FFFF800FFFFF000
007FFFF8007FFFF000
007FFFF0007FFFF000
003FFFF0007FFFF000
ENDCHAR
STARTCHAR 0058
ENCODING 88
SWIDTH 592 0
DWIDTH 51 0
BBX 49 56 1 0
BITMAP
7FFF8000FFFF00
7FFFC000FFFE00
3FFFC001FFFE00
1FFFE001FFFC00
1FFFE003FFFC00
0FFFF003FFF800
0FFFF003FFF800
07FFF007FFF000
07FFF807FFF000
03FFF807FFE000
03FFFC0FFFE000
01FFFC0FFFC000
01FFFE0FFFC000
00FFFE1FFF8000
00FFFE1FFF0000
007FFF3FFF0000
007FFF3FFE0000
003FFFBFFE0000
003FFFFFFC0000
001FFFFFFC0000
001FFFFFF80000
000FFFFFF80000
0007FFFFF00000
0007FFFFF00000
0003FFFFE00000
0003FFFFE00000
0001FFFFC00000
0001FFFFC00000
0003FFFFC00000
0003FFFFC00000
0007FFFFE00000
0007FFFFF00000
000FFFFFF00000
000FFFFFF80000
001FFFFFF80000
001FFFFFFC0000
003FFFFFFC0000
003FFEFFFE0000
007FFE7FFE0000
007FFC7FFF0000
00FFFC7FFF0000
01FFFC3FFF8000
01FFF83FFF8000
03FFF81FFFC000
03FFF01FFFE000
07FFF00FFFE000
07FFF00FFFF000
0FFFE00FFFF000
0FFFE007FFF800
1FFFC007FFF800
1FFFC003FFFC00
3FFFC003FFFC00
3FFF8001FFFE00
7FFF8001FFFE00
7FFF0000FFFF00
FFFF0000FFFF80
ENDCHAR
STARTCHAR 0059
ENCODING 89
SWIDTH 545 0
DWIDTH 47 0
BBX 48 56 -1 0
BITMAP
FFFF00007FFF
7FFF80007FFF
7FFF8000FFFF
3FFF8000FFFE
3FFFC000FFFE
1FFFC001FFFC
1FFFC001FFFC
0FFFE001FFF8
0FFFE003FFF8
0FFFE003FFF0
07FFF007FFF0
07FFF007FFE0
03FFF007FFE0
03FFF80FFFC0
01FFF80FFFC0
01FFF80FFFC0
00FFFC1FFF80
00FFFC1FFF80
007FFC1FFF00
007FFE3FFF00
003FFE3FFE00
003FFE3FFE00
003FFF7FFC00
001FFF7FFC00
001FFFFFF800
000FFFFFF800
000FFFFFF800
0007FFFFF000
0007FFFFF000
0003FFFFE000
0003FFFFE000
0001FFFFC000
0001FFFFC000
0000FFFF8000
0000FFFF8000
0000FFFF0000
00007FFF0000
00007FFF0000
00007FFF0000
00007FFF0000
00007FFF0000
00007FFF0000
00007FFF0000
00007FFF0000
00007FFF0000
00007FFF0000
00007FFF0000
00007FFF0000
00007FFF0000
00007FFF0000
00007FFF0000
00007FFF0000
00007FFF0000
00007FFF0000
00007FFF0000
00007FFF0000
ENDCHAR
STARTCHAR 005A
ENCODING 90
SWIDTH 545 0
DWIDTH 47 0
BBX 41 56 3 0
BITMAP
3FFFFFFFFF80
3FFFFFFFFF80
3FFFFFFFFF80
3FFFFFFFFF80
3FFFFFFFFF80
3FFFFFFFFF80
3FFFFFFFFF80
3FFFFFFFFF80
3FFFFFFFFF80
3FFFFFFFFF80
3FFFFFFFFF00
3FFFFFFFFE00
000001FFFE00
000003FFFC00
000007FFF800
000007FFF800
00000FFFF000
00001FFFE000
00001FFFE000
00003FFFC000
00007FFF8000
00007FFF8000
0000FFFF0000
0001FFFE0000
0001FFFE0000
0003FFFC0000
0007FFF80000
0007FFF80000
000FFFF00000
001FFFE00000
001FFFE00000
003FFFC00000
007FFF800000
007FFF800000
00FFFF000000
01FFFE000000
01FFFE000000
03FFFC000000
07FFF8000000
07FFF8000000
0FFFF0000000
1FFFE0000000
1FFFE0000000
3FFFC0000000
7FFFFFFFFF80
7FFFFFFFFF80
FFFFFFFFFF80
FFFFFFFFFF80
FFFFFFFFFF80
FFFFFFFFFF80
FFFFFFFFFF80
FFFFFFFFFF80
FFFFFFFFFF80
FFFFFFFFFF80
FFFFFFFFFF80
FFFFFFFFFF80
ENDCHAR
STARTCHAR 005B
ENCODING 91
SWIDTH 360 0
DWIDTH 31 0
BBX 20 74 7 -13
BITMAP
FFFFF0
FFFFF0
FFFFF0
FFFFF0
FFFFF0
FFFFF0
FFFFF0
FFFFF0
FFE000
FFE000
FFE000
FFE000
FFE000
FFE000
FFE000
FFE000
FFE000
FFE000
FFE000
FFE000
FFE000
FFE000
FFE000
FFE000
FFE000
FFE000
FFE000
FFE000
FFE000
FFE000
FFE000
FFE000
FFE000
FFE000
FFE000
FFE000
FFE000
FFE000
FFE000
FFE000
FFE000
FFE000
FFE000
FFE000
FFE000
FFE000
FFE000
FFE000
FFE000
FFE000
FFE000
FFE000
FFE000
FFE000
FFE000
FFE000
FFE000
FFE000
FFE000
FFE000
FFE000
FFE000
FFE000
FFE000
FFE000
FFE000
FFFFF0
FFFFF0
FFFFF0
FFFFF0
FFFFF0
FFFFF0
FFFFF0
FFFFF0
ENDCHAR
STARTCHAR 005C
ENCODING 92
SWIDTH 336 0
DWIDTH 29 0
BBX 24 75 3 -14
BITMAP
FFC000
FFC000
FFC000
7FC000
7FC000
7FE000
7FE000
7FE000
3FE000
3FE000
3FF000
3FF000
3FF000
1FF000
1FF000
1FF800
1FF800
1FF800
0FF800
0FF800
0FFC00
0FFC00
0FFC00
07FC00
07FC00
07FE00
07FE00
07FE00
03FE00
03FE00
03FF00
03FF00
03FF00
01FF00
01FF00
01FF80
01FF80
01FF80
00FF80
00FF80
00FFC0
00FFC0
00FFC0
007FC0
007FC0
007FE0
007FE0
003FE0
003FE0
003FE0
003FF0
003FF0
001FF0
001FF0
001FF0
001FF8
001FF8
000FF8
000FF8
000FF8
000FFC
000FFC
0007FC
0007FC
0007FC
0007FE
0007FE
0003FE
0003FE
0003FE
0003FF
0003FF
0001FF
0001FF
0001FF
ENDCHAR
STARTCHAR 005D
ENCODING 93
SWIDTH 360 0
DWIDTH 31 0
BBX 20 74 4 -13
BITMAP
FFFFF0
FFFFF0
FFFFF0
FFFFF0
FFFFF0
FFFFF0
FFFFF0
FFFFF0
007FF0
007FF0
007FF0
007FF0
007FF0
007FF0
007FF0
007FF0
007FF0
007FF0
007FF0
007FF0
007FF0
007FF0
007FF0
007FF0
007FF0
007FF0
007FF0
007FF0
007FF0
007FF0
007FF0
007FF0
007FF0
007FF0
007FF0
007FF0
007FF0
007FF0
007FF0
007FF0
007FF0
007FF0
007FF0
007FF0
007FF0
007FF0
007FF0
007FF0
007FF0
007FF0
007FF0
007FF0
007FF0
007FF0
007FF0
007FF0
007FF0
007FF0
007FF0
007FF0
007FF0
007FF0
007FF0
007FF0
007FF0
007FF0
FFFFF0
FFFFF0
FFFFF0
FFFFF0
FFFFF0
FFFFF0
FFFFF0
FFFFF0
ENDCHAR
STARTCHAR 005E
ENCODING 94
SWIDTH 545 0
DWIDTH 47 0
BBX 38 35 4 23
BITMAP
0007FF8000
0007FFC000
000FFFC000
000FFFC000
000FFFE000
001FFFE000
001FFFF000
001FFFF000
003FFFF000
003FFFF800
007FFFF800
007FFFFC00
007FFFFC00
00FFFFFC00
00FFEFFE00
01FFCFFE00
01FFCFFF00
01FFC7FF00
03FF87FF00
03FF87FF80
03FF83FF80
07FF83FF80
07FF03FFC0
0FFF01FFC0
0FFF01FFE0
0FFE01FFE0
1FFE00FFE0
1FFE00FFF0
3FFC00FFF0
3FFC007FF8
3FFC007FF8
7FF8007FF8
7FF8003FFC
7FF8003FFC
FFF0000000
ENDCHAR
STARTCHAR 005F
ENCODING 95
SWIDTH 499 0
DWIDTH 43 0
BBX 41 8 1 -13
BITMAP
FFFFFFFFFF80
FFFFFFFFFF80
FFFFFFFFFF80
FFFFFFFFFF80
FFFFFFFFFF80
FFFFFFFFFF80
FFFFFFFFFF80
FFFFFFFFFF80
ENDCHAR
STARTCHAR 0060
ENCODING 96
SWIDTH 557 0
DWIDTH 48 0
BBX 23 23 6 49
BITMAP
006000
00F000
01F000
03F800
07FC00
0FFE00
1FFF00
3FFF80
7FFFC0
FFFFC0
7FFFE0
1FFFF0
0FFFF8
07FFFC
03FFFE
01FFFE
007FFE
003FFC
001FF8
000FF0
0007E0
0001C0
000080
ENDCHAR
STARTCHAR 0061
ENCODING 97
SWIDTH 534 0
DWIDTH 46 0
BBX 39 45 3 -1
BITMAP
0001FFC000
001FFFF800
00FFFFFE00
03FFFFFF00
0FFFFFFFC0
3FFFFFFFC0
3FFFFFFFE0
1FFFFFFFF0
1FFFFFFFF0
0FFFFFFFF8
0FFFFFFFF8
07FFFFFFF8
07F807FFFC
03C001FFFC
030001FFFC
000000FFFC
000007FFFC
0000FFFFFC
000FFFFFFE
007FFFFFFE
01FFFFFFFE
03FFFFFFFE
0FFFFFFFFE
1FFFFFFFFE
3FFFFFFFFE
3FFFF8FFFE
7FFFC0FFFE
7FFF00FFFE
7FFE00FFFE
FFFE00FFFE
FFFC00FFFE
FFFE01FFFE
FFFE03FFFE
FFFF9FFFFE
7FFFFFFFFE
7FFFFFFFFE
7FFFFFFFFE
7FFFFFFFFE
3FFFFFFFFE
1FFFFFFFFE
1FFFFF3FFE
0FFFFE3FFE
07FFFC3FFE
01FFF03FFE
007F800000
ENDCHAR
STARTCHAR 0062
ENCODING 98
SWIDTH 580 0
DWIDTH 50 0
BBX 42 61 5 -1
BITMAP
FFFE00000000
FFFE00000000
FFFE00000000
FFFE00000000
FFFE00000000
FFFE00000000
FFFE00000000
FFFE00000000
FFFE00000000
FFFE00000000
FFFE00000000
FFFE00000000
FFFE00000000
FFFE00000000
FFFE00000000
FFFE00000000
FFFE07F80000
FFFE1FFF0000
FFFE7FFFC000
FFFFFFFFE000
FFFFFFFFF000
FFFFFFFFF800
FFFFFFFFFC00
FFFFFFFFFC00
FFFFFFFFFE00
FFFFFFFFFE00
FFFFFFFFFF00
FFFFFFFFFF00
FFFFC1FFFF80
FFFF00FFFF80
FFFE007FFF80
FFFE003FFF80
FFFE003FFF80
FFFE003FFFC0
FFFE003FFFC0
FFFE001FFFC0
FFFE001FFFC0
FFFE001FFFC0
FFFE001FFFC0
FFFE001FFFC0
FFFE001FFFC0
FFFE003FFFC0
FFFE003FFFC0
FFFE003FFF80
FFFE003FFF80
FFFE007FFF80
FFFE007FFF80
FFFF00FFFF00
FFFFC1FFFF00
FFFFFFFFFF00
FFFFFFFFFE00
FFFFFFFFFE00
FFFFFFFFFC00
FFFFFFFFF800
FFFFFFFFF800
FFFFFFFFF000
FFF3FFFFE000
FFF1FFFFC000
FFF0FFFF0000
FFF03FFC0000
000007F00000
ENDCHAR
STARTCHAR 0063
ENCODING 99
SWIDTH 476 0
DWIDTH 41 0
BBX 35 45 3 -1
BITMAP
00003FE000
0003FFFE00
000FFFFF80
003FFFFFC0
007FFFFFE0
01FFFFFFE0
03FFFFFFC0
07FFFFFF80
0FFFFFFF00
0FFFFFFF00
1FFFFFFE00
3FFFFFFC00
3FFFF03C00
7FFFE00800
7FFF800000
7FFF800000
7FFF000000
FFFF000000
FFFE000000
FFFE000000
FFFE000000
FFFE000000
FFFE000000
FFFE000000
FFFE000000
FFFE000000
FFFE000000
FFFF000000
FFFF000000
7FFF800000
7FFFC00000
7FFFE00E00
3FFFF03E00
3FFFFFFF00
1FFFFFFF80
1FFFFFFF80
0FFFFFFFC0
07FFFFFFC0
07FFFFFFE0
03FFFFFFE0
00FFFFFFE0
007FFFFFC0
001FFFFF00
0007FFFC00
0000FFC000
ENDCHAR
STARTCHAR 0064
ENCODING 100
SWIDTH 580 0
DWIDTH 50 0
BBX 42 61 3 -1
BITMAP
0000001FFFC0
0000001FFFC0
0000001FFFC0
0000001FFFC0
0000001FFFC0
0000001FFFC0
0000001FFFC0
0000001FFFC0
0000001FFFC0
0000001FFFC0
0000001FFFC0
0000001FFFC0
0000001FFFC0
0000001FFFC0
0000001FFFC0
0000001FFFC0
0003FC1FFFC0
001FFF1FFFC0
003FFFDFFFC0
00FFFFEFFFC0
01FFFFFFFFC0
03FFFFFFFFC0
07FFFFFFFFC0
0FFFFFFFFFC0
0FFFFFFFFFC0
1FFFFFFFFFC0
1FFFFFFFFFC0
3FFFFFFFFFC0
3FFFE0FFFFC0
3FFFC03FFFC0
7FFF801FFFC0
7FFF001FFFC0
7FFF001FFFC0
7FFF001FFFC0
FFFF001FFFC0
FFFE001FFFC0
FFFE001FFFC0
FFFE001FFFC0
FFFE001FFFC0
FFFE001FFFC0
FFFE001FFFC0
FFFE001FFFC0
FFFF001FFFC0
FFFF001FFFC0
7FFF001FFFC0
7FFF001FFFC0
7FFF801FFFC0
7FFFC03FFFC0
3FFFE0FFFFC0
3FFFFFFFFFC0
3FFFFFFFFFC0
1FFFFFFFFFC0
1FFFFFFFFFC0
0FFFFFFFFFC0
07FFFFFFFFC0
07FFFFFFFFC0
03FFFFF7FFC0
01FFFFE7FFC0
007FFF87FFC0
001FFF03FFC0
0007F8000000
ENDCHAR
STARTCHAR 0065
ENCODING 101
SWIDTH 522 0
DWIDTH 45 0
BBX 39 45 3 -1
BITMAP
0000FF8000
0007FFF000
001FFFFE00
007FFFFF00
00FFFFFF80
01FFFFFFC0
03FFFFFFE0
07FFFFFFF0
0FFFFFFFF0
1FFFFFFFF8
1FFFFFFFF8
3FFFE1FFFC
3FFF807FFC
7FFF003FFC
7FFE003FFE
7FFC003FFE
FFFC001FFE
FFFFFFFFFE
FFFFFFFFFE
FFFFFFFFFE
FFFFFFFFFE
FFFFFFFFFE
FFFFFFFFFE
FFFFFFFFFE
FFFFFFFFFE
FFFFFFFFFE
FFFFFFFFFE
FFFC000000
FFFE000000
7FFE000000
7FFF000000
7FFF800080
3FFFC003C0
3FFFF81FC0
1FFFFFFFE0
1FFFFFFFE0
0FFFFFFFF0
07FFFFFFF0
03FFFFFFF8
01FFFFFFF8
00FFFFFFF8
007FFFFFE0
001FFFFF80
0007FFFE00
00007FE000
ENDCHAR
STARTCHAR 0066
ENCODING 102
SWIDTH 360 0
DWIDTH 31 0
BBX 32 61 2 0
BITMAP
00003FF0
0003FFFF
0007FFFF
001FFFFE
003FFFFE
007FFFFE
00FFFFFE
00FFFFFC
01FFFFFC
01FFFFFC
01FFFFFC
03FFFFF8
03FFFC00
03FFF800
03FFF800
03FFF000
03FFF000
03FFF000
FFFFFFF0
FFFFFFF0
FFFFFFF0
FFFFFFF0
FFFFFFF0
FFFFFFF0
FFFFFFF0
FFFFFFF0
FFFFFFF0
FFFFFFF0
FFFFFFF0
FFFFFFF0
03FFF000
03FFF000
03FFF000
03FFF000
03FFF000
03FFF000
03FFF000
03FFF000
03FFF000
03FFF000
03FFF000
03FFF000
03FFF000
03FFF000
03FFF000
03FFF000
03FFF000
03FFF000
03FFF000
03FFF000
03FFF000
03FFF000
03FFF000
03FFF000
03FFF000
03FFF000
03FFF000
03FFF000
03FFF000
03FFF000
03FFF000
ENDCHAR
STARTCHAR 0067
ENCODING 103
SWIDTH 545 0
DWIDTH 47 0
BBX 43 62 3 -18
BITMAP
0003FF000000
001FFFFFFFC0
00FFFFFFFFC0
01FFFFFFFFC0
03FFFFFFFFC0
07FFFFFFFFC0
0FFFFFFFFFC0
1FFFFFFFFFC0
3FFFFFFFFFC0
3FFFFFFFFFC0
7FFF87FFFFC0
7FFF01FFFFC0
7FFE01FFF000
7FFE01FFF000
7FFC00FFF000
7FFC00FFF000
7FFC00FFF000
7FFE00FFF000
7FFE01FFF000
7FFE01FFF000
7FFF03FFF000
3FFF87FFF000
3FFFFFFFE000
1FFFFFFFE000
0FFFFFFFC000
07FFFFFF8000
03FFFFFF0000
03FFFFFE0000
07FFFFFC0000
0FFFFFE00000
1FFCFE000000
1FF800000000
3FF800000000
3FFC00000000
3FFF00000000
3FFFFFFF8000
3FFFFFFFF000
3FFFFFFFFC00
3FFFFFFFFF00
1FFFFFFFFF80
0FFFFFFFFF80
0FFFFFFFFFC0
03FFFFFFFFC0
0FFFFFFFFFC0
1FFFFFFFFFE0
3FFFFFFFFFE0
7FF0001FFFE0
FFF0000FFFE0
FFF0000FFFC0
FFF0000FFFC0
FFF0000FFFC0
FFF8001FFF80
FFFF00FFFF80
FFFFFFFFFF00
FFFFFFFFFF00
7FFFFFFFFE00
7FFFFFFFF800
3FFFFFFFF000
1FFFFFFFC000
07FFFFFF0000
01FFFFF80000
001FFF000000
ENDCHAR
STARTCHAR 0068
ENCODING 104
SWIDTH 580 0
DWIDTH 50 0
BBX 40 60 5 0
BITMAP
FFFE000000
FFFE000000
FFFE000000
FFFE000000
FFFE000000
FFFE000000
FFFE000000
FFFE000000
FFFE000000
FFFE000000
FFFE000000
FFFE000000
FFFE000000
FFFE000000
FFFE000000
FFFE000000
FFFE01FE00
FFFC0FFFC0
FFFC3FFFE0
FFFC7FFFF0
FFFDFFFFF8
FFFFFFFFFC
FFFFFFFFFC
FFFFFFFFFE
FFFFFFFFFE
FFFFFFFFFF
FFFFFFFFFF
FFFFFFFFFF
FFFFFFFFFF
FFFFC0FFFF
FFFF007FFF
FFFE007FFF
FFFE007FFF
FFFE003FFF
FFFE003FFF
FFFE003FFF
FFFE003FFF
FFFE003FFF
FFFE003FFF
FFFE003FFF
FFFE003FFF
FFFE003FFF
FFFE003FFF
FFFE003FFF
FFFE003FFF
FFFE003FFF
FFFE003FFF
FFFE003FFF
FFFE003FFF
FFFE003FFF
FFFE003FFF
FFFE003FFF
FFFE003FFF
FFFE003FFF
FFFE003FFF
FFFE003FFF
FFFE003FFF
FFFE003FFF
FFFE003FFF
FFFE003FFF
ENDCHAR
STARTCHAR 0069
ENCODING 105
SWIDTH 290 0
DWIDTH 25 0
BBX 17 63 4 0
BITMAP
07F000
1FFC00
3FFE00
7FFF00
7FFF00
FFFF00
FFFF80
FFFF80
FFFF80
FFFF00
7FFF00
7FFE00
3FFE00
1FF800
03E000
000000
000000
000000
000000
000000
7FFF00
7FFF00
7FFF00
7FFF00
7FFF00
7FFF00
7FFF00
7FFF00
7FFF00
7FFF00
7FFF00
7FFF00
7FFF00
7FFF00
7FFF00
7FFF00
7FFF00
7FFF00
7FFF00
7FFF00
7FFF00
7FFF00
7FFF00
7FFF00
7FFF00
7FFF00
7FFF00
7FFF00
7FFF00
7FFF00
7FFF00
7FFF00
7FFF00
7FFF00
7FFF00
7FFF00
7FFF00
7FFF00
7FFF00
7FFF00
7FFF00
7FFF00
7FFF00
ENDCHAR
STARTCHAR 006A
ENCODING 106
SWIDTH 290 0
DWIDTH 25 0
BBX 26 79 -5 -16
BITMAP
0003F800
000FFE00
001FFF00
003FFF80
003FFF80
003FFFC0
007FFFC0
007FFFC0
007FFFC0
003FFFC0
003FFF80
001FFF80
001FFF00
0007FC00
0001F000
00000000
00000000
00000000
00000000
00000000
003FFF80
003FFF80
003FFF80
003FFF80
003FFF80
003FFF80
003FFF80
003FFF80
003FFF80
003FFF80
003FFF80
003FFF80
003FFF80
003FFF80
003FFF80
003FFF80
003FFF80
003FFF80
003FFF80
003FFF80
003FFF80
003FFF80
003FFF80
003FFF80
003FFF80
003FFF80
003FFF80
003FFF80
003FFF80
003FFF80
003FFF80
003FFF80
003FFF80
003FFF80
003FFF80
003FFF80
003FFF80
003FFF80
003FFF80
003FFF80
003FFF80
003FFF80
003FFF80
003FFF80
003FFF80
007FFF80
007FFF00
1FFFFF00
3FFFFF00
3FFFFF00
3FFFFE00
3FFFFE00
7FFFFC00
7FFFF800
7FFFF800
7FFFE000
FFFFC000
FFFF0000
1FF80000
ENDCHAR
STARTCHAR 006B
ENCODING 107
SWIDTH 569 0
DWIDTH 49 0
BBX 43 60 5 0
BITMAP
FFFC00000000
FFFC00000000
FFFC00000000
FFFC00000000
FFFC00000000
FFFC00000000
FFFC00000000
FFFC00000000
FFFC00000000
FFFC00000000
FFFC00000000
FFFC00000000
FFFC00000000
FFFC00000000
FFFC00000000
FFFC00000000
FFFC00000000
FFFC003FFFC0
FFFC007FFF80
FFFC007FFF80
FFFC00FFFF00
FFFC01FFFE00
FFFC03FFFC00
FFFC03FFF800
FFFC07FFF000
FFFC0FFFE000
FFFC1FFFE000
FFFC3FFFC000
FFFC3FFF8000
FFFC7FFF0000
FFFCFFFE0000
FFFDFFFC0000
FFFFFFF80000
FFFFFFF80000
FFFFFFF00000
FFFFFFF00000
FFFFFFF00000
FFFFFFF80000
FFFFFFFC0000
FFFFFFFC0000
FFFFFFFE0000
FFFFFFFF0000
FFFFFFFF0000
FFFFFFFF8000
FFFFFFFFC000
FFFFDFFFC000
FFFF8FFFE000
FFFF0FFFF000
FFFF07FFF000
FFFE03FFF800
FFFC03FFF800
FFFC01FFFC00
FFFC01FFFE00
FFFC00FFFE00
FFFC00FFFF00
FFFC007FFF80
FFFC003FFF80
FFFC003FFFC0
FFFC001FFFE0
FFFC001FFFE0
ENDCHAR
STARTCHAR 006C
ENCODING 108
SWIDTH 301 0
DWIDTH 26 0
BBX 20 61 5 -1
BITMAP
FFFE00
FFFE00
FFFE00
FFFE00
FFFE00
FFFE00
FFFE00
FFFE00
FFFE00
FFFE00
FFFE00
FFFE00
FFFE00
FFFE00
FFFE00
FFFE00
FFFE00
FFFE00
FFFE00
FFFE00
FFFE00
FFFE00
FFFE00
FFFE00
FFFE00
FFFE00
FFFE00
FFFE00
FFFE00
FFFE00
FFFE00
FFFE00
FFFE00
FFFE00
FFFE00
FFFE00
FFFE00
FFFE00
FFFE00
FFFE00
FFFE00
FFFE00
FFFE00
FFFE00
FFFE00
FFFE00
FFFE00
FFFE00
FFFF00
FFFFE0
FFFFE0
7FFFE0
7FFFE0
7FFFE0
3FFFF0
3FFFF0
1FFFF0
0FFFF0
07FFF0
03FFF0
007FC0
ENDCHAR
STARTCHAR 006D
ENCODING 109
SWIDTH 870 0
DWIDTH 75 0
BBX 65 44 5 0
BITMAP
000003FE0000FF0000
FFF00FFF8007FFC000
FFF03FFFE01FFFF000
FFF87FFFF03FFFF800
FFF9FFFFF87FFFFC00
FFFBFFFFF8FFFFFC00
FFFFFFFFFDFFFFFE00
FFFFFFFFFFFFFFFE00
FFFFFFFFFFFFFFFF00
FFFFFFFFFFFFFFFF00
FFFFFFFFFFFFFFFF00
FFFFFFFFFFFFFFFF80
FFFFFFFFFFFFFFFF80
FFFFC0FFFFE07FFF80
FFFF00FFFF803FFF80
FFFE007FFF003FFF80
FFFE007FFF003FFF80
FFFE007FFF003FFF80
FFFE007FFF003FFF80
FFFE007FFF003FFF80
FFFE007FFF003FFF80
FFFE007FFF003FFF80
FFFE007FFF003FFF80
FFFE007FFF003FFF80
FFFE007FFF003FFF80
FFFE007FFF003FFF80
FFFE007FFF003FFF80
FFFE007FFF003FFF80
FFFE007FFF003FFF80
FFFE007FFF003FFF80
FFFE007FFF003FFF80
FFFE007FFF003FFF80
FFFE007FFF003FFF80
FFFE007FFF003FFF80
FFFE007FFF003FFF80
FFFE007FFF003FFF80
FFFE007FFF003FFF80
FFFE007FFF003FFF80
FFFE007FFF003FFF80
FFFE007FFF003FFF80
FFFE007FFF003FFF80
FFFE007FFF003FFF80
FFFE007FFF003FFF80
FFFE007FFF003FFF80
ENDCHAR
STARTCHAR 006E
ENCODING 110
SWIDTH 580 0
DWIDTH 50 0
BBX 40 44 5 0
BITMAP
000001FE00
FFF00FFFC0
FFF03FFFE0
FFF87FFFF0
FFF9FFFFF8
FFFBFFFFFC
FFFFFFFFFC
FFFFFFFFFE
FFFFFFFFFE
FFFFFFFFFF
FFFFFFFFFF
FFFFFFFFFF
FFFFFFFFFF
FFFFC0FFFF
FFFF007FFF
FFFE007FFF
FFFE007FFF
FFFE003FFF
FFFE003FFF
FFFE003FFF
FFFE003FFF
FFFE003FFF
FFFE003FFF
FFFE003FFF
FFFE003FFF
FFFE003FFF
FFFE003FFF
FFFE003FFF
FFFE003FFF
FFFE003FFF
FFFE003FFF
FFFE003FFF
FFFE003FFF
FFFE003FFF
FFFE003FFF
FFFE003FFF
FFFE003FFF
FFFE003FFF
FFFE003FFF
FFFE003FFF
FFFE003FFF
FFFE003FFF
FFFE003FFF
FFFE003FFF
ENDCHAR
STARTCHAR 006F
ENCODING 111
SWIDTH 557 0
DWIDTH 48 0
BBX 42 45 3 -1
BITMAP
00007FC00000
0007FFF80000
001FFFFE0000
007FFFFF8000
00FFFFFFC000
01FFFFFFF000
03FFFFFFF800
07FFFFFFF800
0FFFFFFFFC00
1FFFFFFFFE00
1FFFFFFFFF00
3FFFFFFFFF00
3FFFE0FFFF80
7FFF807FFF80
7FFF803FFF80
7FFF003FFFC0
FFFF001FFFC0
FFFE001FFFC0
FFFE001FFFC0
FFFE001FFFC0
FFFE001FFFC0
FFFE001FFFC0
FFFE001FFFC0
FFFE001FFFC0
FFFE001FFFC0
FFFE001FFFC0
FFFE001FFFC0
FFFE001FFFC0
FFFF001FFFC0
7FFF003FFFC0
7FFF803FFF80
7FFF807FFF80
3FFFE0FFFF00
3FFFFFFFFF00
1FFFFFFFFE00
1FFFFFFFFE00
0FFFFFFFFC00
07FFFFFFF800
03FFFFFFF000
01FFFFFFE000
00FFFFFFC000
007FFFFF8000
001FFFFE0000
0007FFF80000
00007FC00000
ENDCHAR
STARTCHAR 0070
ENCODING 112
SWIDTH 580 0
DWIDTH 50 0
BBX 42 59 5 -15
BITMAP
000003F80000
FFF01FFF0000
FFF07FFFC000
FFF9FFFFE000
FFFBFFFFF000
FFFFFFFFF800
FFFFFFFFFC00
FFFFFFFFFC00
FFFFFFFFFE00
FFFFFFFFFE00
FFFFFFFFFF00
FFFFFFFFFF00
FFFFC1FFFF80
FFFF00FFFF80
FFFE007FFF80
FFFE003FFF80
FFFE003FFF80
FFFE003FFFC0
FFFE003FFFC0
FFFE001FFFC0
FFFE001FFFC0
FFFE001FFFC0
FFFE001FFFC0
FFFE001FFFC0
FFFE001FFFC0
FFFE003FFFC0
FFFE003FFFC0
FFFE003FFF80
FFFE003FFF80
FFFE007FFF80
FFFE007FFF80
FFFF00FFFF00
FFFFC1FFFF00
FFFFFFFFFF00
FFFFFFFFFE00
FFFFFFFFFE00
FFFFFFFFFC00
FFFFFFFFF800
FFFFFFFFF800
FFFFFFFFF000
FFFFFFFFE000
FFFDFFFFC000
FFFCFFFF0000
FFFE3FFC0000
FFFE0FF00000
FFFE00000000
FFFE00000000
FFFE00000000
FFFE00000000
FFFE00000000
FFFE00000000
FFFE00000000
FFFE00000000
FFFE00000000
FFFE00000000
FFFE00000000
FFFE00000000
FFFE00000000
FFFE00000000
ENDCHAR
STARTCHAR 0071
ENCODING 113
SWIDTH 580 0
DWIDTH 50 0
BBX 42 59 3 -15
BITMAP
0003FC000000
001FFF03FFC0
003FFFC3FFC0
00FFFFE3FFC0
01FFFFF7FFC0
03FFFFFFFFC0
07FFFFFFFFC0
0FFFFFFFFFC0
0FFFFFFFFFC0
1FFFFFFFFFC0
1FFFFFFFFFC0
3FFFFFFFFFC0
3FFFE0FFFFC0
3FFFC03FFFC0
7FFF801FFFC0
7FFF001FFFC0
7FFF001FFFC0
FFFF001FFFC0
FFFF001FFFC0
FFFE001FFFC0
FFFE001FFFC0
FFFE001FFFC0
FFFE001FFFC0
FFFE001FFFC0
FFFE001FFFC0
FFFE001FFFC0
FFFF001FFFC0
FFFF001FFFC0
7FFF001FFFC0
7FFF001FFFC0
7FFF801FFFC0
7FFFC03FFFC0
3FFFE0FFFFC0
3FFFFFFFFFC0
3FFFFFFFFFC0
1FFFFFFFFFC0
1FFFFFFFFFC0
0FFFFFFFFFC0
07FFFFFFFFC0
07FFFFFFFFC0
03FFFFFFFFC0
01FFFFEFFFC0
007FFF9FFFC0
001FFF1FFFC0
0007F81FFFC0
0000001FFFC0
0000001FFFC0
0000001FFFC0
0000001FFFC0
0000001FFFC0
0000001FFFC0
0000001FFFC0
0000001FFFC0
0000001FFFC0
0000001FFFC0
0000001FFFC0
0000001FFFC0
0000001FFFC0
0000001FFFC0
ENDCHAR
STARTCHAR 0072
ENCODING 114
SWIDTH 418 0
DWIDTH 36 0
BBX 31 44 5 0
BITMAP
000003FC
FFF00FFE
FFF01FFE
FFF07FFE
FFF8FFFC
FFF9FFFC
FFF9FFFC
FFFBFFFC
FFFFFFFC
FFFFFFF8
FFFFFFF8
FFFFFFF8
FFFFFFF8
FFFFF808
FFFFE000
FFFFC000
FFFF8000
FFFF0000
FFFF0000
FFFE0000
FFFE0000
FFFE0000
FFFE0000
FFFE0000
FFFE0000
FFFE0000
FFFE0000
FFFE0000
FFFE0000
FFFE0000
FFFE0000
FFFE0000
FFFE0000
FFFE0000
FFFE0000
FFFE0000
FFFE0000
FFFE0000
FFFE0000
FFFE0000
FFFE0000
FFFE0000
FFFE0000
FFFE0000
ENDCHAR
STARTCHAR 0073
ENCODING 115
SWIDTH 452 0
DWIDTH 39 0
BBX 35 45 2 -1
BITMAP
0003FF0000
001FFFE000
007FFFFC00
01FFFFFF00
03FFFFFF80
07FFFFFFC0
0FFFFFFFC0
1FFFFFFF80
1FFFFFFF80
1FFFFFFF00
3FFFFFFE00
3FFF01FC00
3FFF007C00
3FFF001800
3FFF000000
3FFF800000
3FFFF00000
3FFFFE0000
1FFFFF8000
1FFFFFE000
0FFFFFF800
07FFFFFC00
03FFFFFF00
01FFFFFF00
00FFFFFF80
003FFFFFC0
000FFFFFC0
0001FFFFC0
00007FFFE0
00001FFFE0
020007FFE0
078007FFE0
0FC007FFE0
1FF80FFFC0
1FFFFFFFC0
3FFFFFFFC0
7FFFFFFF80
7FFFFFFF80
FFFFFFFF00
FFFFFFFE00
3FFFFFFC00
1FFFFFF800
07FFFFF000
00FFFF8000
000FFC0000
ENDCHAR
STARTCHAR 0074
ENCODING 116
SWIDTH 394 0
DWIDTH 34 0
BBX 32 55 1 -1
BITMAP
00FFF800
00FFF800
00FFF800
00FFF800
00FFF800
00FFF800
01FFF800
01FFF800
01FFF800
01FFF800
01FFF800
7FFFFFFE
FFFFFFFE
FFFFFFFE
FFFFFFFE
FFFFFFFE
FFFFFFFE
FFFFFFFE
FFFFFFFE
FFFFFFFE
FFFFFFFE
FFFFFFFE
FFFFFFFE
03FFF800
03FFF800
03FFF800
03FFF800
03FFF800
03FFF800
03FFF800
03FFF800
03FFF800
03FFF800
03FFF800
03FFF800
03FFF800
03FFF800
03FFF800
03FFF800
03FFF800
03FFF800
03FFFC00
03FFFE00
03FFFFFC
01FFFFFC
01FFFFFC
01FFFFFC
00FFFFFE
00FFFFFE
007FFFFE
003FFFFE
001FFFFE
000FFFFF
0003FFFF
00007FF0
ENDCHAR
STARTCHAR 0075
ENCODING 117
SWIDTH 580 0
DWIDTH 50 0
BBX 40 44 5 -1
BITMAP
FFFC007FFF
FFFC007FFF
FFFC007FFF
FFFC007FFF
FFFC007FFF
FFFC007FFF
FFFC007FFF
FFFC007FFF
FFFC007FFF
FFFC007FFF
FFFC007FFF
FFFC007FFF
FFFC007FFF
FFFC007FFF
FFFC007FFF
FFFC007FFF
FFFC007FFF
FFFC007FFF
FFFC007FFF
FFFC007FFF
FFFC007FFF
FFFC007FFF
FFFC007FFF
FFFC007FFF
FFFC007FFF
FFFC007FFF
FFFE007FFF
FFFE007FFF
FFFE00FFFF
FFFE00FFFF
FFFF03FFFF
FFFFFFFFFF
FFFFFFFFFF
FFFFFFFFFF
7FFFFFFFFF
7FFFFFFFFF
7FFFFFFFFF
3FFFFFDFFF
3FFFFF9FFF
1FFFFF1FFF
0FFFFE1FFF
07FFFC1FFF
03FFF00FFF
007F800000
ENDCHAR
STARTCHAR 0076
ENCODING 118
SWIDTH 545 0
DWIDTH 47 0
BBX 45 43 1 0
BITMAP
FFFE0001FFF8
7FFE0003FFF0
7FFE0003FFF0
7FFF0003FFF0
3FFF0003FFE0
3FFF0007FFE0
3FFF0007FFE0
3FFF8007FFC0
1FFF8007FFC0
1FFF800FFFC0
1FFF800FFF80
0FFFC00FFF80
0FFFC00FFF80
0FFFC01FFF80
07FFC01FFF00
07FFE01FFF00
07FFE01FFF00
03FFE03FFE00
03FFE03FFE00
03FFF03FFE00
01FFF03FFC00
01FFF07FFC00
01FFF07FFC00
00FFF87FF800
00FFF87FF800
00FFF8FFF800
007FF8FFF000
007FFCFFF000
007FFCFFF000
003FFCFFE000
003FFDFFE000
003FFDFFE000
001FFFFFE000
001FFFFFC000
001FFFFFC000
000FFFFFC000
000FFFFF8000
000FFFFF8000
0007FFFF8000
0007FFFF0000
0007FFFF0000
0003FFFF0000
0003FFFE0000
ENDCHAR
STARTCHAR 0077
ENCODING 119
SWIDTH 801 0
DWIDTH 69 0
BBX 65 43 2 0
BITMAP
FFFE003FFE001FFF80
FFFE003FFE001FFF00
7FFE003FFF001FFF00
7FFE003FFF003FFF00
7FFF007FFF003FFF00
7FFF007FFF003FFE00
3FFF007FFF003FFE00
3FFF007FFF803FFE00
3FFF007FFF807FFE00
3FFF00FFFF807FFC00
1FFF80FFFF807FFC00
1FFF80FFFFC07FFC00
1FFF80FFFFC07FFC00
1FFF81FFFFC07FFC00
0FFF81FFFFC0FFF800
0FFFC1FFFFE0FFF800
0FFFC1FF7FE0FFF800
0FFFC1FF7FE0FFF800
0FFFC3FF7FE0FFF000
07FFC3FF7FE0FFF000
07FFC3FE7FF1FFF000
07FFE3FE7FF1FFF000
07FFE3FE3FF1FFF000
03FFE7FE3FF1FFE000
03FFE7FE3FF1FFE000
03FFE7FE3FF9FFE000
03FFE7FC3FF9FFE000
01FFE7FC3FF9FFC000
01FFEFFC1FFBFFC000
01FFEFFC1FFBFFC000
01FFFFFC1FFFFFC000
00FFFFFC1FFFFF8000
00FFFFF81FFFFF8000
00FFFFF80FFFFF8000
00FFFFF80FFFFF8000
007FFFF80FFFFF8000
007FFFF80FFFFF0000
007FFFF00FFFFF0000
007FFFF007FFFF0000
003FFFF007FFFF0000
003FFFF007FFFE0000
003FFFF007FFFE0000
003FFFE007FFFE0000
ENDCHAR
STARTCHAR 0078
ENCODING 120
SWIDTH 545 0
DWIDTH 47 0
BBX 44 43 1 0
BITMAP
7FFF800FFFE0
3FFFC00FFFE0
3FFFC01FFFC0
1FFFE01FFFC0
0FFFE01FFF80
0FFFF03FFF80
07FFF03FFF00
07FFF83FFF00
03FFF87FFE00
03FFF87FFC00
01FFFC7FFC00
00FFFCFFF800
00FFFEFFF800
007FFFFFF000
007FFFFFF000
003FFFFFE000
001FFFFFE000
001FFFFFC000
000FFFFF8000
000FFFFF8000
0007FFFF0000
0007FFFF0000
000FFFFE0000
001FFFFF0000
001FFFFF8000
003FFFFF8000
003FFFFFC000
007FFFFFE000
007FFFFFE000
00FFFFFFF000
01FFFBFFF000
01FFF3FFF800
03FFF1FFFC00
03FFE1FFFC00
07FFE0FFFE00
07FFE0FFFF00
0FFFC07FFF00
1FFFC07FFF80
1FFF803FFF80
3FFF803FFFC0
3FFF801FFFE0
7FFF000FFFE0
FFFF000FFFF0
ENDCHAR
STARTCHAR 0079
ENCODING 121
SWIDTH 545 0
DWIDTH 47 0
BBX 44 59 1 -16
BITMAP
FFFE0003FFF0
7FFE0003FFF0
7FFF0003FFF0
7FFF0003FFE0
3FFF0007FFE0
3FFF8007FFE0
1FFF8007FFC0
1FFF8007FFC0
1FFFC00FFFC0
0FFFC00FFF80
0FFFC00FFF80
07FFC00FFF80
07FFE01FFF00
07FFE01FFF00
03FFE01FFF00
03FFF03FFE00
01FFF03FFE00
01FFF03FFE00
01FFF83FFC00
00FFF87FFC00
00FFF87FFC00
007FF87FF800
007FFC7FF800
007FFC7FF800
003FFCFFF000
003FFCFFF000
001FFEFFF000
001FFEFFE000
001FFFFFE000
000FFFFFC000
000FFFFFC000
000FFFFFC000
0007FFFF8000
0007FFFF8000
0003FFFF8000
0003FFFF0000
0003FFFF0000
0001FFFF0000
0001FFFE0000
0000FFFE0000
0000FFFE0000
0000FFFC0000
0000FFFC0000
0000FFFC0000
0001FFF80000
0001FFF80000
0007FFF00000
03FFFFF00000
03FFFFE00000
03FFFFE00000
03FFFFC00000
07FFFFC00000
07FFFF800000
07FFFF000000
07FFFE000000
0FFFFC000000
0FFFF0000000
0FFFE0000000
03FE00000000
ENDCHAR
STARTCHAR 007A
ENCODING 122
SWIDTH 476 0
DWIDTH 41 0
BBX 36 43 3 0
BITMAP
3FFFFFFFE0
3FFFFFFFE0
3FFFFFFFE0
3FFFFFFFE0
3FFFFFFFE0
3FFFFFFFE0
3FFFFFFFE0
3FFFFFFFE0
3FFFFFFFE0
3FFFFFFFC0
3FFFFFFF80
3FFFFFFF80
0000FFFF00
0001FFFE00
0001FFFE00
0003FFFC00
0007FFF800
0007FFF800
000FFFF000
001FFFE000
001FFFC000
003FFFC000
007FFF8000
00FFFF0000
00FFFF0000
01FFFE0000
03FFFC0000
03FFFC0000
07FFF80000
0FFFF00000
0FFFF00000
1FFFFFFFF0
3FFFFFFFF0
3FFFFFFFF0
7FFFFFFFF0
FFFFFFFFF0
FFFFFFFFF0
FFFFFFFFF0
FFFFFFFFF0
FFFFFFFFF0
FFFFFFFFF0
FFFFFFFFF0
FFFFFFFFF0
ENDCHAR
STARTCHAR 007B
ENCODING 123
SWIDTH 360 0
DWIDTH 31 0
BBX 24 74 3 -13
BITMAP
0007FF
003FFF
007FFF
00FFFF
00FFFF
01FFFF
01FFFF
01FFFF
03FFE0
03FFC0
03FFC0
03FFC0
03FFC0
03FFC0
03FFC0
03FFC0
03FFC0
03FFC0
03FFC0
01FFC0
01FFC0
01FFC0
01FFC0
01FFC0
01FFC0
01FFC0
01FFC0
01FFC0
01FFC0
03FFC0
03FFC0
07FFC0
1FFFC0
FFFF80
FFFF00
FFFE00
FFF800
FFF000
FFFC00
FFFF00
FFFF80
FFFF80
0FFFC0
07FFC0
03FFC0
01FFC0
01FFC0
01FFC0
01FFC0
01FFC0
01FFC0
01FFC0
01FFC0
01FFC0
01FFC0
03FFC0
03FFC0
03FFC0
03FFC0
03FFC0
03FFC0
03FFC0
03FFC0
03FFC0
03FFC0
03FFE0
01FFFF
01FFFF
01FFFF
00FFFF
00FFFF
007FFF
003FFF
0007FF
ENDCHAR
STARTCHAR 007C
ENCODING 124
SWIDTH 278 0
DWIDTH 24 0
BBX 10 86 7 -21
BITMAP
FFC0
FFC0
FFC0
FFC0
FFC0
FFC0
FFC0
FFC0
FFC0
FFC0
FFC0
FFC0
FFC0
FFC0
FFC0
FFC0
FFC0
FFC0
FFC0
FFC0
FFC0
FFC0
FFC0
FFC0
FFC0
FFC0
FFC0
FFC0
FFC0
FFC0
FFC0
FFC0
FFC0
FFC0
FFC0
FFC0
FFC0
FFC0
FFC0
FFC0
FFC0
FFC0
FFC0
FFC0
FFC0
FFC0
FFC0
FFC0
FFC0
FFC0
FFC0
FFC0
FFC0
FFC0
FFC0
FFC0
FFC0
FFC0
FFC0
FFC0
FFC0
FFC0
FFC0
FFC0
FFC0
FFC0
FFC0
FFC0
FFC0
FFC0
FFC0
FFC0
FFC0
FFC0
FFC0
FFC0
FFC0
FFC0
FFC0
FFC0
FFC0
FFC0
FFC0
FFC0
FFC0
FFC0
ENDCHAR
STARTCHAR 007D
ENCODING 125
SWIDTH 360 0
DWIDTH 31 0
BBX 24 74 4 -13
BITMAP
FFE000
FFFC00
FFFE00
FFFF00
FFFF00
FFFF80
FFFF80
FFFF80
07FFC0
03FFC0
03FFC0
03FFC0
03FFC0
03FFC0
03FFC0
03FFC0
03FFC0
03FFC0
03FFC0
03FF80
03FF80
03FF80
03FF80
03FF80
03FF80
03FF80
03FF80
03FF80
03FF80
03FFC0
03FFC0
03FFE0
03FFFC
01FFFF
00FFFF
007FFF
003FFF
000FFF
003FFF
00FFFF
01FFFF
01FFFF
03FFF0
03FFE0
03FFC0
03FF80
03FF80
03FF80
03FF80
03FF80
03FF80
03FF80
03FF80
03FF80
03FF80
03FFC0
03FFC0
03FFC0
03FFC0
03FFC0
03FFC0
03FFC0
03FFC0
03FFC0
03FFC0
07FFC0
FFFF80
FFFF80
FFFF80
FFFF00
FFFF00
FFFE00
FFFC00
FFE000
ENDCHAR
STARTCHAR 007E
ENCODING 126
SWIDTH 545 0
DWIDTH 47 0
BBX 42 17 2 20
BITMAP
001FC0000000
00FFF0000000
01FFF8003000
07FFFE003800
0FFFFF007C00
1FFFFFC0FE00
3FFFFFF3FF80
3FFFFFFFFFC0
7FFFFFFFFFC0
FFFFFFFFFF80
3FFBFFFFFF00
1FE07FFFFE00
0FC03FFFFC00
03800FFFF800
010007FFF000
000001FFC000
0000007F0000
ENDCHAR
STARTCHAR 00A0
ENCODING 160
SWIDTH 209 0
DWIDTH 18 0
BBX 0 0 0 0
BITMAP
ENDCHAR
STARTCHAR 00A1
ENCODING 161
SWIDTH 360 0
DWIDTH 31 0
BBX 17 59 7 -15
BITMAP
03F000
0FF800
3FFE00
3FFE00
7FFF00
7FFF80
FFFF80
FFFF80
FFFF80
FFFF80
FFFF80
FFFF80
7FFF00
7FFF00
3FFE00
3FFC00
0FF800
03E000
000000
000000
000000
000000
0FF800
0FF800
1FFC00
1FFC00
1FFC00
1FFC00
1FFC00
1FFC00
1FFC00
1FFC00
1FFC00
1FFC00
1FFC00
1FFC00
3FFE00
3FFE00
3FFE00
3FFE00
3FFE00
3FFE00
3FFE00
3FFE00
3FFE00
3FFE00
3FFE00
3FFE00
3FFE00
7FFF00
7FFF00
7FFF00
7FFF00
7FFF00
7FFF00
7FFF00
7FFF00
7FFF00
7FFF00
ENDCHAR
STARTCHAR 00A2
ENCODING 162
SWIDTH 545 0
DWIDTH 47 0
BBX 38 60 5 -4
BITMAP
00001FE000
00001FE000
00001FE000
00001FE000
00001FE000
00001FE000
00001FE000
00001FE000
00007FFE00
0003FFFFC0
000FFFFFE0
003FFFFFF8
007FFFFFF8
01FFFFFFF8
03FFFFFFF0
07FFFFFFE0
07FFFFFFE0
0FFFFFFFC0
1FFFFFFF80
1FFFFFFF00
3FFFFFE700
3FFFDFE000
7FFF9FE000
7FFF1FE000
7FFF1FE000
7FFE1FE000
FFFE1FE000
FFFE1FE000
FFFE1FE000
FFFC1FE000
FFFC1FE000
FFFE1FE000
FFFE1FE000
FFFE1FE000
7FFE1FE000
7FFF1FE000
7FFF1FE000
7FFF9FE000
7FFFDFE000
3FFFFFE380
3FFFFFEFC0
1FFFFFFFC0
1FFFFFFFE0
0FFFFFFFF0
07FFFFFFF0
07FFFFFFF8
03FFFFFFFC
01FFFFFFFC
007FFFFFF8
003FFFFFE0
000FFFFF80
0001FFFE00
00001FE000
00001FE000
00001FE000
00001FE000
00001FE000
00001FE000
00001FE000
00001FE000
ENDCHAR
STARTCHAR 00A3
ENCODING 163
SWIDTH 545 0
DWIDTH 47 0
BBX 40 56 4 0
BITMAP
00000FFC00
00007FFF80
0001FFFFE0
0007FFFFF0
000FFFFFFC
001FFFFFFE
003FFFFFFF
007FFFFFFF
00FFFFFFFE
00FFFFFFFC
01FFFFFFF8
01FFFFFFF0
03FFFE07E0
03FFFC01C0
03FFF80080
03FFF00000
03FFF00000
03FFF00000
07FFF00000
03FFF00000
03FFF00000
03FFF00000
03FFF00000
03FFF00000
7FFFFFFF80
FFFFFFFF80
FFFFFFFF80
FFFFFFFF80
FFFFFFFF80
FFFFFFFF80
FFFFFFFF80
FFFFFFFF80
FFFFFFFF80
007FFC0000
007FFC0000
007FFC0000
007FFC0000
007FFC0000
00FFF80000
00FFF80000
01FFF80000
01FFF00000
03FFE00000
07FFE00000
0FFFFFFFFF
1FFFFFFFFF
7FFFFFFFFF
FFFFFFFFFF
FFFFFFFFFF
FFFFFFFFFF
FFFFFFFFFF
FFFFFFFFFF
FFFFFFFFFF
FFFFFFFFFF
FFFFFFFFFF
FFFFFFFFFF
ENDCHAR
STARTCHAR 00A4
ENCODING 164
SWIDTH 545 0
DWIDTH 47 0
BBX 43 43 2 6
BITMAP
020000001000
070000003800
0F8000007C00
1FC00000FE00
3FE01E01FF00
7FF3FFF3FF80
FFFFFFFFFFC0
FFFFFFFFFFE0
7FFFFFFFFFC0
3FFFFFFFFF80
1FFFFFFFFF00
0FFFFFFFFE00
07FFFFFFFC00
0FFFFFFFFE00
1FFFFBFFFE00
1FFFC07FFF00
1FFF803FFF00
3FFF001FFF00
3FFE001FFF00
3FFE001FFF80
3FFE000FFF80
3FFE000FFF80
3FFE000FFF80
3FFE001FFF80
3FFE001FFF00
3FFF001FFF00
3FFF003FFF00
1FFF807FFF00
1FFFE0FFFE00
0FFFFFFFFE00
0FFFFFFFFC00
0FFFFFFFFC00
1FFFFFFFFE00
3FFFFFFFFF00
7FFFFFFFFF80
FFFFFFFFFFC0
FFFFFFFFFFE0
7FFFFFFFFFC0
3FF0FFE1FF80
1FE00000FF00
0FC000007E00
078000003C00
030000001800
ENDCHAR
STARTCHAR 00A5
ENCODING 165
SWIDTH 545 0
DWIDTH 47 0
BBX 45 55 1 0
BITMAP
FFFE0003FFF8
FFFE0007FFF0
7FFF0007FFF0
7FFF0007FFE0
3FFF000FFFE0
3FFF800FFFC0
1FFF800FFFC0
1FFF800FFF80
0FFFC01FFF80
0FFFC01FFF00
07FFC01FFF00
07FFE03FFE00
03FFE03FFE00
03FFE03FFC00
01FFF07FFC00
01FFF07FF800
00FFF07FF800
00FFF8FFF000
007FF8FFF000
007FF8FFE000
003FFDFFE000
003FFDFFC000
001FFFFFC000
001FFFFF8000
001FFFFF8000
3FFFFFFFFFE0
3FFFFFFFFFE0
3FFFFFFFFFE0
3FFFFFFFFFE0
3FFFFFFFFFE0
3FFFFFFFFFE0
3FFFFFFFFFE0
0001FFFC0000
0001FFFC0000
0001FFFC0000
0001FFFC0000
3FFFFFFFFFE0
3FFFFFFFFFE0
3FFFFFFFFFE0
3FFFFFFFFFE0
3FFFFFFFFFE0
3FFFFFFFFFE0
3FFFFFFFFFE0
0001FFFC0000
0001FFFC0000
0001FFFC0000
0001FFFC0000
0001FFFC0000
0001FFFC0000
0001FFFC0000
0001FFFC0000
0001FFFC0000
0001FFFC0000
0001FFFC0000
0001FFFC0000
ENDCHAR
STARTCHAR 00A6
ENCODING 166
SWIDTH 278 0
DWIDTH 24 0
BBX 10 86 7 -21
BITMAP
FFC0
FFC0
FFC0
FFC0
FFC0
FFC0
FFC0
FFC0
FFC0
FFC0
FFC0
FFC0
FFC0
FFC0
FFC0
FFC0
FFC0
FFC0
FFC0
FFC0
FFC0
FFC0
FFC0
FFC0
FFC0
FFC0
FFC0
FFC0
FFC0
FFC0
FFC0
FFC0
FFC0
FFC0
FFC0
FFC0
FFC0
0000
0000
0000
0000
0000
0000
0000
0000
0000
0000
FFC0
FFC0
FFC0
FFC0
FFC0
FFC0
FFC0
FFC0
FFC0
FFC0
FFC0
FFC0
FFC0
FFC0
FFC0
FFC0
FFC0
FFC0
FFC0
FFC0
FFC0
FFC0
FFC0
FFC0
FFC0
FFC0
FFC0
FFC0
FFC0
FFC0
FFC0
FFC0
FFC0
FFC0
FFC0
FFC0
FFC0
FFC0
FFC0
ENDCHAR
STARTCHAR 00A7
ENCODING 167
SWIDTH 545 0
DWIDTH 47 0
BBX 41 68 3 -8
BITMAP
0000FF000000
0007FFF80000
001FFFFE0000
007FFFFF8000
00FFFFFFE000
01FFFFFFF000
03FFFFFFF000
03FFFFFFF000
07FFFFFFE000
07FFFFFFC000
07FFFFFF8000
0FFFE0FF8000
0FFFC03F0000
0FFF800E0000
0FFFC0060000
0FFFE0000000
0FFFF8000000
07FFFE000000
07FFFF800000
07FFFFE00000
03FFFFF80000
03FFFFFE0000
07FFFFFF8000
0FFFFFFFC000
1FFFFFFFE000
3FFFFFFFF800
3FFFFFFFF800
7FFDFFFFFC00
7FF83FFFFE00
FFF80FFFFE00
FFF003FFFF00
FFF000FFFF00
FFF8003FFF00
FFF8001FFF00
FFFC000FFF80
FFFE000FFF80
FFFF800FFF80
7FFFE00FFF00
7FFFF80FFF00
3FFFFE1FFF00
3FFFFFFFFF00
1FFFFFFFFE00
0FFFFFFFFC00
07FFFFFFFC00
03FFFFFFF800
00FFFFFFF000
007FFFFFC000
001FFFFFC000
0007FFFFC000
0000FFFFE000
00003FFFE000
00000FFFE000
000007FFE000
00C003FFE000
01E003FFE000
03F803FFE000
0FFE07FFE000
1FFFFFFFE000
3FFFFFFFE000
7FFFFFFFC000
7FFFFFFFC000
3FFFFFFF8000
1FFFFFFF0000
0FFFFFFE0000
07FFFFFC0000
01FFFFF80000
003FFFC00000
0003FC000000
ENDCHAR
STARTCHAR 00A8
ENCODING 168
SWIDTH 557 0
DWIDTH 48 0
BBX 34 14 7 48
BITMAP
07C000FC00
1FF001FE00
3FF803FF00
7FF807FF80
7FFC0FFF80
7FFC0FFFC0
FFFC0FFFC0
FFFC0FFFC0
7FFC0FFFC0
7FFC0FFF80
7FF807FF80
3FF003FF00
1FE001FE00
0780007800
ENDCHAR
STARTCHAR 00A9
ENCODING 169
SWIDTH 754 0
DWIDTH 65 0
BBX 57 57 4 -1
BITMAP
000001FFC0000000
00001FFFFC000000
0000FFFFFF800000
0003FFFFFFE00000
000FFFFFFFF80000
001FFFFFFFFC0000
003FFE003FFE0000
00FFF00007FF0000
01FF800001FF8000
01FF0000007FC000
03FC0000003FE000
07F80000000FF000
0FF0007FC007F800
0FE003FFF007F800
1FE00FFFFC03FC00
1FC01FFFFE01FC00
3F803FFFFF01FE00
3F807FFFFF80FE00
7F00FFFFFF00FE00
7F01FFFFFE007F00
7F01FFFDFC007F00
7E03FFC038003F00
FE03FF8010003F00
FE07FF0000003F80
FE07FF0000003F80
FE07FE0000003F80
FC07FE0000003F80
FC07FE0000003F80
FC07FE0000003F80
FC07FE0000003F80
FC07FE0000003F80
FE07FE0000003F80
FE07FF0000003F80
FE07FF0000003F80
FE07FF8000003F00
7E03FFC018003F00
7F03FFE07C007F00
7F01FFFFFC007F00
7F01FFFFFE007E00
3F80FFFFFF00FE00
3F807FFFFF00FE00
1FC03FFFFF01FC00
1FE01FFFFE03FC00
0FE007FFF807F800
0FF001FFE007F800
07F80000000FF000
03FC0000003FE000
03FF0000007FC000
01FFC00001FF8000
00FFF00007FF0000
003FFE003FFE0000
001FFFFFFFFC0000
000FFFFFFFF00000
0003FFFFFFE00000
0000FFFFFF800000
00001FFFFC000000
000001FFC0000000
ENDCHAR
STARTCHAR 00AA
ENCODING 170
SWIDTH 360 0
DWIDTH 31 0
BBX 26 30 2 31
BITMAP
003FC000
03FFF800
0FFFFC00
3FFFFE00
7FFFFF00
3FFFFF80
1FFFFF80
1FFFFF80
0FC3FFC0
0E01FFC0
0000FFC0
000FFFC0
00FFFFC0
07FFFFC0
0FFFFFC0
3FFFFFC0
3FFFFFC0
7FF8FFC0
7FE0FFC0
FFC0FFC0
FFC0FFC0
FFE1FFC0
FFFFFFC0
7FFFFFC0
7FFFFFC0
7FFFFFC0
3FFFFFC0
1FFE7FC0
0FFC3FC0
01E00000
ENDCHAR
STARTCHAR 00AB
ENCODING 171
SWIDTH 499 0
DWIDTH 43 0
BBX 34 34 4 5
BITMAP
0010000400
003C000E00
007E001F00
00FF003F80
00FF807FC0
01FF00FFC0
03FF01FF80
07FE03FF00
0FFC07FE00
1FF80FFE00
3FF81FFC00
7FF03FF800
FFE03FF800
FFE03FF000
FFC03FE000
FF803FC000
FF003FC000
FF003F8000
FF803FC000
FFC03FE000
FFC03FE000
FFE03FF000
FFF03FF800
7FF01FFC00
3FF80FFC00
1FFC0FFE00
0FFE07FF00
07FE03FF00
03FF01FF80
01FF80FFC0
00FF807FC0
007E003F80
003C001E00
0018000C00
ENDCHAR
STARTCHAR 00AC
ENCODING 172
SWIDTH 545 0
DWIDTH 47 0
BBX 41 25 3 8
BITMAP
FFFFFFFFFF80
FFFFFFFFFF80
FFFFFFFFFF80
FFFFFFFFFF80
FFFFFFFFFF80
FFFFFFFFFF80
FFFFFFFFFF80
FFFFFFFFFF80
FFFFFFFFFF80
FFFFFFFFFF80
00000003FF80
00000003FF80
00000003FF80
00000003FF80
00000003FF80
00000003FF80
00000003FF80
00000003FF80
00000003FF80
00000003FF80
00000003FF80
00000003FF80
00000003FF80
00000003FF80
00000003FF80
ENDCHAR
STARTCHAR 00AD
ENCODING 173
SWIDTH 336 0
DWIDTH 29 0
BBX 21 10 4 17
BITMAP
FFFFF8
FFFFF8
FFFFF8
FFFFF8
FFFFF8
FFFFF8
FFFFF8
FFFFF8
FFFFF8
FFFFF8
ENDCHAR
STARTCHAR 00AE
ENCODING 174
SWIDTH 476 0
DWIDTH 41 0
BBX 35 36 3 26
BITMAP
0000E00000
001FFF0000
007FFFC000
01FFFFF000
03FFFFF800
07FC07FC00
0FE000FE00
1FC0007F00
1F80003F00
3F3FFC1F80
3E3FFF0F80
7E3FFF0FC0
7C3FFF87C0
7C3F1F87C0
FC3F1F87E0
F83F0F83E0
F83F1F83E0
F83F1F83E0
F83FFF03E0
F83FFE03E0
F83FFE03E0
FC3FFE07E0
7C3F3F07C0
7C3F1F07C0
7E3F1F8FC0
3E3F0F8F80
3F00001F80
1F80003F00
1FC0007F00
0FE000FE00
07FC07FC00
03FFFFF800
01FFFFF000
007FFFC000
001FFF0000
0000E00000
ENDCHAR
STARTCHAR 00AF
ENCODING 175
SWIDTH 557 0
DWIDTH 48 0
BBX 26 9 11 51
BITMAP
FFFFFFC0
FFFFFFC0
FFFFFFC0
FFFFFFC0
FFFFFFC0
FFFFFFC0
FFFFFFC0
FFFFFFC0
FFFFFFC0
ENDCHAR
STARTCHAR 00B0
ENCODING 176
SWIDTH 383 0
DWIDTH 33 0
BBX 26 26 3 33
BITMAP
003F8000
01FFF000
03FFF800
0FFFFE00
1FFFFE00
1FFFFF00
3FFFFF80
7FE0FF80
7F807FC0
7F803FC0
7F003FC0
FF001FC0
FF001FC0
FF001FC0
FF001FC0
FF003FC0
7F803FC0
7FC07FC0
7FE0FF80
3FFFFF80
1FFFFF00
1FFFFE00
0FFFFC00
03FFF800
01FFE000
003F8000
ENDCHAR
STARTCHAR 00B1
ENCODING 177
SWIDTH 545 0
DWIDTH 47 0
BBX 41 49 3 0
BITMAP
0001FFC00000
0001FFC00000
0001FFC00000
0001FFC00000
0001FFC00000
0001FFC00000
0001FFC00000
0001FFC00000
0001FFC00000
0001FFC00000
0001FFC00000
0001FFC00000
0001FFC00000
0001FFC00000
FFFFFFFFFF80
FFFFFFFFFF80
FFFFFFFFFF80
FFFFFFFFFF80
FFFFFFFFFF80
FFFFFFFFFF80
FFFFFFFFFF80
FFFFFFFFFF80
FFFFFFFFFF80
FFFFFFFFFF80
0001FFC00000
0001FFC00000
0001FFC00000
0001FFC00000
0001FFC00000
0001FFC00000
0001FFC00000
0001FFC00000
0001FFC00000
0001FFC00000
000000000000
000000000000
000000000000
000000000000
000000000000
FFFFFFFFFF80
FFFFFFFFFF80
FFFFFFFFFF80
FFFFFFFFFF80
FFFFFFFFFF80
FFFFFFFFFF80
FFFFFFFFFF80
FFFFFFFFFF80
FFFFFFFFFF80
FFFFFFFFFF80
ENDCHAR
STARTCHAR 00B2
ENCODING 178
SWIDTH 383 0
DWIDTH 33 0
BBX 27 34 2 32
BITMAP
007FC000
01FFF000
07FFFC00
1FFFFE00
3FFFFF00
7FFFFF80
FFFFFF80
FFFFFFC0
7FFFFFC0
1F83FFC0
0F01FFC0
0600FFC0
0000FFC0
0000FFC0
0000FFC0
0001FF80
0001FF80
0003FF00
0007FF00
000FFE00
001FFC00
003FFC00
007FF800
00FFF000
03FFE000
07FFFFE0
0FFFFFE0
1FFFFFE0
3FFFFFE0
3FFFFFE0
3FFFFFE0
3FFFFFE0
3FFFFFE0
3FFFFFE0
ENDCHAR
STARTCHAR 00B3
ENCODING 179
SWIDTH 383 0
DWIDTH 33 0
BBX 28 35 2 31
BITMAP
003FE000
01FFF800
07FFFE00
0FFFFF00
1FFFFF80
3FFFFFC0
3FFFFFC0
1FFFFFC0
07C1FFC0
0380FFC0
0100FFC0
0000FFC0
0001FFC0
0003FF80
003FFF00
003FFE00
003FFC00
003FFF00
003FFF80
003FFFC0
0003FFE0
0000FFE0
00007FE0
02007FF0
07007FF0
0F807FF0
3FC1FFE0
7FFFFFE0
FFFFFFE0
7FFFFFC0
3FFFFF80
1FFFFF00
0FFFFE00
03FFF800
007FE000
ENDCHAR
STARTCHAR 00B4
ENCODING 180
SWIDTH 557 0
DWIDTH 48 0
BBX 23 23 19 49
BITMAP
000C00
000E00
001F00
003F80
007FC0
00FFE0
01FFF0
01FFF8
03FFFC
07FFFE
0FFFFC
1FFFF8
3FFFE0
3FFFC0
7FFF80
FFFF00
FFFE00
7FF800
3FF000
1FE000
0FC000
078000
020000
ENDCHAR
STARTCHAR 00B5
ENCODING 181
SWIDTH 603 0
DWIDTH 52 0
BBX 47 59 5 -16
BITMAP
FFFE007FFF00
FFFE007FFF00
FFFE007FFF00
FFFE007FFF00
FFFE007FFF00
FFFE007FFF00
FFFE007FFF00
FFFE007FFF00
FFFE007FFF00
FFFE007FFF00
FFFE007FFF00
FFFE007FFE00
FFFE007FFE00
FFFE007FFE00
FFFE007FFE00
FFFE007FFE00
FFFE007FFE00
FFFE007FFE00
FFFE007FFE00
FFFE007FFE00
FFFE007FFE00
FFFE007FFE00
FFFE007FFE00
FFFE007FFE00
FFFE007FFE00
FFFE007FFE00
FFFE007FFE00
FFFE007FFE00
FFFE00FFFE00
FFFE00FFFE00
FFFF01FFFE00
FFFF87FFFF00
FFFFFFFFFFFC
FFFFFFFFFFFC
FFFFFFFFFFFC
FFFFFFFFFFFC
FFFFFFFFFFFE
FFFFFFFFFFFE
FFFFFFDFFFFE
FFFFFF8FFFFE
FFFFFF87FFFE
FFFFFF03FFFE
FFFFFE01FFFE
FFFDF8003FF0
FFFC00000000
FFFC00000000
FFFC00000000
FFFC00000000
FFFC00000000
FFFC00000000
FFFC00000000
FFFC00000000
FFFC00000000
FFFE00000000
FFFE00000000
FFFE00000000
FFFE00000000
FFFE00000000
FFFE00000000
ENDCHAR
STARTCHAR 00B6
ENCODING 182
SWIDTH 661 0
DWIDTH 57 0
BBX 46 63 3 -7
BITMAP
00007FC1FFFC
000FFFC1FFFC
003FFFC1FFFC
00FFFFC1FFFC
01FFFFC1FFFC
07FFFFC1FFFC
07FFFFC1FFFC
0FFFFFC1FFFC
1FFFFFC1FFFC
3FFFFFC1FFFC
3FFFFFC1FFFC
3FFFFFC1FFFC
7FFFFFC1FFFC
7FFFFFC1FFFC
7FFFFFC1FFFC
7FFFFFC1FFFC
FFFFFFC1FFFC
FFFFFFC1FFFC
FFFFFFC1FFFC
FFFFFFC1FFFC
FFFFFFC1FFFC
FFFFFFC1FFFC
FFFFFFC1FFFC
7FFFFFC1FFFC
7FFFFFC1FFFC
7FFFFFC1FFFC
7FFFFFC1FFFC
3FFFFFC1FFFC
3FFFFFC1FFFC
1FFFFFC1FFFC
1FFFFFC1FFFC
0FFFFFC1FFFC
07FFFFC1FFFC
03FFFFC1FFFC
01FFFFC1FFFC
00FFFFC1FFFC
007FFFC1FFFC
001FFFC1FFFC
0003FFC1FFFC
00003FC1FFFC
00000001FFFC
00000001FFFC
00000001FFFC
00000001FFFC
00000001FFFC
00000001FFFC
00000001FFFC
00000001FFFC
00000001FFFC
00000001FFFC
00000001FFFC
00000001FFFC
00000001FFFC
00000001FFFC
00000001FFFC
00000001FFFC
00000001FFFC
00000001FFFC
00000001FFFC
00000001FFFC
00000001FFFC
00000001FFFC
00000001FFFC
ENDCHAR
STARTCHAR 00B7
ENCODING 183
SWIDTH 325 0
DWIDTH 28 0
BBX 17 18 5 19
BITMAP
03F000
0FFC00
1FFE00
3FFF00
7FFF00
7FFF80
7FFF80
FFFF80
FFFF80
FFFF80
FFFF80
FFFF80
7FFF80
7FFF00
3FFF00
1FFE00
0FFC00
03F000
ENDCHAR
STARTCHAR 00B8
ENCODING 184
SWIDTH 557 0
DWIDTH 48 0
BBX 19 22 14 -21
BITMAP
03FE00
03FC00
07FC00
07F800
0FF800
0FF000
1FFC00
1FFF00
3FFF80
0FFFC0
01FFE0
00FFE0
00FFE0
00FFE0
00FFE0
03FFC0
FFFFC0
FFFF80
FFFF00
FFFC00
7FF000
7E0000
ENDCHAR
STARTCHAR 00B9
ENCODING 185
SWIDTH 383 0
DWIDTH 33 0
BBX 19 33 6 32
BITMAP
007FE0
01FFE0
07FFE0
FFFFE0
FFFFE0
FFFFE0
FFFFE0
FFFFE0
FFFFE0
FFFFE0
00FFE0
00FFE0
00FFE0
00FFE0
00FFE0
00FFE0
00FFE0
00FFE0
00FFE0
00FFE0
00FFE0
00FFE0
00FFE0
00FFE0
00FFE0
00FFE0
00FFE0
00FFE0
00FFE0
00FFE0
00FFE0
00FFE0
00FFE0
ENDCHAR
STARTCHAR 00BA
ENCODING 186
SWIDTH 371 0
DWIDTH 32 0
BBX 28 30 2 31
BITMAP
001FC000
00FFF800
03FFFC00
07FFFF00
0FFFFF80
1FFFFFC0
3FFFFFC0
3FFFFFE0
7FF8FFE0
7FF07FF0
7FE07FF0
FFE03FF0
FFE03FF0
FFC03FF0
FFC03FF0
FFC03FF0
FFC03FF0
FFE03FF0
FFE03FF0
FFE07FF0
7FF07FF0
7FF8FFE0
3FFFFFE0
3FFFFFC0
1FFFFFC0
0FFFFF80
07FFFF00
03FFFC00
00FFF800
003FC000
ENDCHAR
STARTCHAR 00BB
ENCODING 187
SWIDTH 499 0
DWIDTH 43 0
BBX 34 34 5 5
BITMAP
0800020000
1C000F0000
3E001F8000
7F003FC000
FF807FE000
FFC03FE000
7FE03FF000
3FF01FF800
1FF80FFC00
1FFC07FE00
0FFE07FF00
07FF03FF80
03FF81FFC0
03FF81FFC0
01FF80FFC0
00FF807FC0
00FF803FC0
007F803FC0
00FF807FC0
01FF807FC0
01FF80FFC0
03FF81FFC0
07FF03FFC0
0FFE03FF80
0FFC07FF00
1FFC0FFE00
3FF81FFC00
3FF01FF800
7FE03FF000
FFC07FE000
FF807FC000
7F001F8000
1E000F0000
0C00060000
ENDCHAR
STARTCHAR 00BC
ENCODING 188
SWIDTH 824 0
DWIDTH 71 0
BBX 68 58 3 -1
BITMAP
00000000001FE00000
003FE000003FE00000
00FFE000003FC00000
03FFE000007FC00000
3FFFE000007F800000
FFFFE00000FF800000
FFFFE00000FF000000
FFFFE00001FF000000
FFFFE00001FE000000
FFFFE00003FC000000
FFFFE00003FC000000
00FFE00007F8000000
00FFE00007F8000000
00FFE0000FF0000000
00FFE0000FF0000000
00FFE0001FE0000000
00FFE0001FE0000000
00FFE0003FC0000000
00FFE0003FC0000000
00FFE0007F80000000
00FFE0007F80000000
00FFE000FF00000000
00FFE000FF00000000
00FFE001FE007FFE00
00FFE003FE00FFFE00
00FFE003FC00FFFE00
00FFE007FC01FFFE00
00FFE007F801FFFE00
00FFE00FF803FFFE00
00FFE00FF003FFFE00
00FFE01FF007FBFE00
00FFE01FE007FBFE00
00FFE03FE00FF3FE00
00FFE03FC00FF7FE00
0000007FC01FE7FE00
0000007F803FE7FE00
000000FF803FC7FE00
000000FF007FC7FE00
000001FF007F87FE00
000001FE00FF87FE00
000003FC00FF87FE00
000003FC01FF07FE00
000007F801FF07FE00
000007F803FFFFFFF0
00000FF003FFFFFFF0
00000FF003FFFFFFF0
00001FE003FFFFFFF0
00001FE003FFFFFFF0
00003FC003FFFFFFF0
00003FC003FFFFFFF0
00007F80000007FE00
00007F80000007FE00
0000FF00000007FE00
0000FF00000007FE00
0001FE00000007FE00
0003FE00000007FE00
0003FC00000007FE00
0007FC000000000000
ENDCHAR
STARTCHAR 00BD
ENCODING 189
SWIDTH 859 0
DWIDTH 74 0
BBX 68 58 3 -1
BITMAP
00000000003FC00000
003FE000007F800000
00FFE000007F800000
03FFE00000FF000000
3FFFE00000FF000000
FFFFE00001FE000000
FFFFE00001FE000000
FFFFE00003FC000000
FFFFE00003FC000000
FFFFE00007F8000000
FFFFE0000FF8000000
00FFE0000FF0000000
00FFE0001FF0000000
00FFE0001FE0000000
00FFE0003FE0000000
00FFE0003FC0000000
00FFE0007FC0000000
00FFE0007F80000000
00FFE000FF80000000
00FFE000FF00000000
00FFE001FF00000000
00FFE001FE00000000
00FFE003FE001F8000
00FFE003FC01FFF000
00FFE007FC07FFFC00
00FFE007F80FFFFE00
00FFE00FF81FFFFF00
00FFE00FF03FFFFF80
00FFE01FE07FFFFFC0
00FFE01FE0FFFFFFC0
00FFE03FC03FFFFFC0
00FFE03FC01FC3FFC0
00FFE07F800F01FFE0
00FFE07F800600FFE0
000000FF000200FFE0
000000FF000000FFC0
000001FE000000FFC0
000001FE000000FFC0
000003FC000001FFC0
000003FC000001FF80
000007F8000003FF80
00000FF8000007FF00
00000FF000000FFE00
00001FF000001FFE00
00001FE000003FFC00
00003FE000007FF800
00003FC00000FFF000
00007FC00001FFE000
00007F800003FFFFF0
0000FF80000FFFFFF0
0000FF00001FFFFFF0
0001FF00003FFFFFF0
0001FE00003FFFFFF0
0003FE00003FFFFFF0
0003FC00003FFFFFF0
0007FC00003FFFFFF0
0007F800003FFFFFF0
000FF8000000000000
ENDCHAR
STARTCHAR 00BE
ENCODING 190
SWIDTH 824 0
DWIDTH 71 0
BBX 69 58 2 -1
BITMAP
003FC0000007FC0000
01FFF8000007F80000
07FFFC00000FF00000
0FFFFF00000FF00000
1FFFFF00001FE00000
7FFFFF80001FE00000
3FFFFFC0003FC00000
1FFFFFC0003FC00000
0FC3FFC0007F800000
0781FFC0007F800000
0100FFC000FF000000
0001FFC000FF000000
0001FF8001FE000000
0007FF8001FE000000
003FFF0003FC000000
003FFE0003FC000000
003FFC0007F8000000
003FFE000FF8000000
003FFF000FF0000000
003FFF801FF0000000
0003FFC01FE0000000
0000FFE03FE0000000
0000FFE03FC0000000
00007FE07FC03FFF00
06007FE07F803FFF00
0F007FE0FF807FFF00
1F80FFE0FF007FFF00
3FC1FFE1FF00FFFF00
FFFFFFE1FE00FFFF00
FFFFFFC3FE01FFFF00
7FFFFFC3FC01FFFF00
3FFFFF87FC03FDFF00
1FFFFF07F803FDFF00
0FFFFE0FF007F9FF00
03FFF80FF007F9FF00
007FC01FE00FF1FF00
0000001FE01FF1FF00
0000003FC01FE1FF00
0000003FC03FE1FF00
0000007F803FC1FF00
0000007F807FC1FF00
000000FF007FC1FF00
000000FF00FF81FF00
000001FE00FFFFFFF8
000001FE01FFFFFFF8
000003FC01FFFFFFF8
000007FC01FFFFFFF8
000007F801FFFFFFF8
00000FF801FFFFFFF8
00000FF001FFFFFFF8
00001FF0000001FF00
00001FE0000001FF00
00003FE0000001FF00
00003FC0000001FF00
00007FC0000001FF00
00007F80000001FF00
0000FF80000001FF00
0000FF000000000000
ENDCHAR
STARTCHAR 00BF
ENCODING 191
SWIDTH 476 0
DWIDTH 41 0
BBX 34 60 3 -16
BITMAP
0000FC0000
0003FF0000
0007FF8000
000FFFC000
001FFFC000
001FFFE000
003FFFE000
003FFFE000
003FFFE000
003FFFE000
003FFFE000
003FFFE000
001FFFE000
001FFFC000
000FFFC000
0007FF8000
0003FE0000
0000F80000
0000000000
0000000000
0000000000
0000000000
000FFF8000
000FFF8000
000FFF8000
000FFF8000
000FFF8000
001FFF8000
001FFF8000
003FFF0000
007FFF0000
00FFFE0000
01FFFC0000
03FFFC0000
07FFF80000
07FFF00000
0FFFE00000
1FFFC00000
3FFF800000
3FFF800000
7FFF000000
7FFE000000
7FFE000000
7FFE000000
FFFE000000
FFFE007000
7FFE00F800
7FFF83FC00
7FFFFFFE00
7FFFFFFF00
7FFFFFFF80
3FFFFFFFC0
3FFFFFFFC0
1FFFFFFF80
1FFFFFFF00
0FFFFFFE00
07FFFFF800
01FFFFE000
007FFF8000
000FFC0000
ENDCHAR
STARTCHAR 00C0
ENCODING 192
SWIDTH 580 0
DWIDTH 50 0
BBX 52 78 -1 0
BITMAP
00004000000000
0000E000000000
0001F000000000
0001FC00000000
0003FE00000000
0007FF00000000
000FFF80000000
001FFFE0000000
001FFFF0000000
003FFFF8000000
001FFFFC000000
0007FFFF000000
0003FFFF800000
0000FFFF000000
00003FFE000000
00001FFC000000
000007FC000000
000003F8000000
000000F0000000
00000020000000
00000000000000
00000000000000
00007FFFE00000
00007FFFF00000
0000FFFFF00000
0000FFFFF00000
0000FFFFF00000
0000FFFFF80000
0001FFFFF80000
0001FFFFF80000
0001FFFFFC0000
0003FFFFFC0000
0003FFFFFC0000
0003FFFFFE0000
0007FFBFFE0000
0007FF9FFE0000
0007FF9FFF0000
000FFF9FFF0000
000FFF1FFF0000
000FFF1FFF0000
000FFF0FFF8000
001FFF0FFF8000
001FFF0FFF8000
001FFE0FFFC000
003FFE07FFC000
003FFE07FFC000
003FFE07FFE000
007FFC07FFE000
007FFC03FFE000
007FFC03FFE000
00FFFC03FFF000
00FFF803FFF000
00FFF801FFF000
00FFF801FFF800
01FFF801FFF800
01FFFFFFFFF800
01FFFFFFFFFC00
03FFFFFFFFFC00
03FFFFFFFFFC00
03FFFFFFFFFE00
07FFFFFFFFFE00
07FFFFFFFFFE00
07FFFFFFFFFE00
07FFFFFFFFFF00
0FFFFFFFFFFF00
0FFFFFFFFFFF00
0FFFC0003FFF80
1FFFC0003FFF80
1FFF80003FFF80
1FFF80001FFFC0
3FFF80001FFFC0
3FFF80001FFFC0
3FFF80001FFFC0
7FFF00001FFFE0
7FFF00000FFFE0
7FFF00000FFFE0
7FFF00000FFFF0
FFFE00000FFFF0
ENDCHAR
STARTCHAR 00C1
ENCODING 193
SWIDTH 580 0
DWIDTH 50 0
BBX 52 78 -1 0
BITMAP
00000000200000
00000000600000
00000001F00000
00000003F80000
00000007FC0000
0000001FFE0000
0000003FFE0000
0000007FFF0000
000000FFFF8000
000003FFFFC000
000007FFFF8000
00000FFFFE0000
00001FFFF80000
00001FFFF00000
00000FFFC00000
000007FF000000
000003FE000000
000001F8000000
000000E0000000
00000040000000
00000000000000
00000000000000
00007FFFE00000
00007FFFF00000
0000FFFFF00000
0000FFFFF00000
0000FFFFF00000
0000FFFFF80000
0001FFFFF80000
0001FFFFF80000
0001FFFFFC0000
0003FFFFFC0000
0003FFFFFC0000
0003FFFFFE0000
0007FFBFFE0000
0007FF9FFE0000
0007FF9FFF0000
000FFF9FFF0000
000FFF1FFF0000
000FFF1FFF0000
000FFF0FFF8000
001FFF0FFF8000
001FFF0FFF8000
001FFE0FFFC000
003FFE07FFC000
003FFE07FFC000
003FFE07FFE000
007FFC07FFE000
007FFC03FFE000
007FFC03FFE000
00FFFC03FFF000
00FFF803FFF000
00FFF801FFF000
00FFF801FFF800
01FFF801FFF800
01FFFFFFFFF800
01FFFFFFFFFC00
03FFFFFFFFFC00
03FFFFFFFFFC00
03FFFFFFFFFE00
07FFFFFFFFFE00
07FFFFFFFFFE00
07FFFFFFFFFE00
07FFFFFFFFFF00
0FFFFFFFFFFF00
0FFFFFFFFFFF00
0FFFC0003FFF80
1FFFC0003FFF80
1FFF80003FFF80
1FFF80001FFFC0
3FFF80001FFFC0
3FFF80001FFFC0
3FFF80001FFFC0
7FFF00001FFFE0
7FFF00000FFFE0
7FFF00000FFFE0
7FFF00000FFFF0
FFFE00000FFFF0
ENDCHAR
STARTCHAR 00C2
ENCODING 194
SWIDTH 580 0
DWIDTH 50 0
BBX 52 72 -1 0
BITMAP
00007FFFC00000
00007FFFE00000
0000FFFFF00000
0001FFFFF80000
0003FFFFF80000
0003FFFFFC0000
0007FFBFFE0000
000FFF1FFF0000
001FFE07FF0000
003FFC03FF8000
000FF001FF0000
0003E000FC0000
0001C000300000
00000000000000
00000000000000
00000000000000
00007FFFE00000
00007FFFF00000
0000FFFFF00000
0000FFFFF00000
0000FFFFF00000
0000FFFFF80000
0001FFFFF80000
0001FFFFF80000
0001FFFFFC0000
0003FFFFFC0000
0003FFFFFC0000
0003FFFFFE0000
0007FFBFFE0000
0007FF9FFE0000
0007FF9FFF0000
000FFF9FFF0000
000FFF1FFF0000
000FFF1FFF0000
000FFF0FFF8000
001FFF0FFF8000
001FFF0FFF8000
001FFE0FFFC000
003FFE07FFC000
003FFE07FFC000
003FFE07FFE000
007FFC07FFE000
007FFC03FFE000
007FFC03FFE000
00FFFC03FFF000
00FFF803FFF000
00FFF801FFF000
00FFF801FFF800
01FFF801FFF800
01FFFFFFFFF800
01FFFFFFFFFC00
03FFFFFFFFFC00
03FFFFFFFFFC00
03FFFFFFFFFE00
07FFFFFFFFFE00
07FFFFFFFFFE00
07FFFFFFFFFE00
07FFFFFFFFFF00
0FFFFFFFFFFF00
0FFFFFFFFFFF00
0FFFC0003FFF80
1FFFC0003FFF80
1FFF80003FFF80
1FFF80001FFFC0
3FFF80001FFFC0
3FFF80001FFFC0
3FFF80001FFFC0
7FFF00001FFFE0
7FFF00000FFFE0
7FFF00000FFFE0
7FFF00000FFFF0
FFFE00000FFFF0
ENDCHAR
STARTCHAR 00C3
ENCODING 195
SWIDTH 580 0
DWIDTH 50 0
BBX 52 74 -1 0
BITMAP
0000FE00000000
0003FFC03C0000
000FFFE03FF000
001FFFF83FE000
001FFFFC7FE000
003FFFFFFFE000
003FFFFFFFE000
007FFFFFFFE000
007FFFFFFFC000
007FFFFFFFC000
00FFE7FFFF8000
00FFC1FFFF0000
00FFC0FFFE0000
000FC03FFC0000
0000000FE00000
00000000000000
00000000000000
00000000000000
00007FFFE00000
00007FFFF00000
0000FFFFF00000
0000FFFFF00000
0000FFFFF00000
0000FFFFF80000
0001FFFFF80000
0001FFFFF80000
0001FFFFFC0000
0003FFFFFC0000
0003FFFFFC0000
0003FFFFFE0000
0007FFBFFE0000
0007FF9FFE0000
0007FF9FFF0000
000FFF9FFF0000
000FFF1FFF0000
000FFF1FFF0000
000FFF0FFF8000
001FFF0FFF8000
001FFF0FFF8000
001FFE0FFFC000
003FFE07FFC000
003FFE07FFC000
003FFE07FFE000
007FFC07FFE000
007FFC03FFE000
007FFC03FFE000
00FFFC03FFF000
00FFF803FFF000
00FFF801FFF000
00FFF801FFF800
01FFF801FFF800
01FFFFFFFFF800
01FFFFFFFFFC00
03FFFFFFFFFC00
03FFFFFFFFFC00
03FFFFFFFFFE00
07FFFFFFFFFE00
07FFFFFFFFFE00
07FFFFFFFFFE00
07FFFFFFFFFF00
0FFFFFFFFFFF00
0FFFFFFFFFFF00
0FFFC0003FFF80
1FFFC0003FFF80
1FFF80003FFF80
1FFF80001FFFC0
3FFF80001FFFC0
3FFF80001FFFC0
3FFF80001FFFC0
7FFF00001FFFE0
7FFF00000FFFE0
7FFF00000FFFE0
7FFF00000FFFF0
FFFE00000FFFF0
ENDCHAR
STARTCHAR 00C4
ENCODING 196
SWIDTH 580 0
DWIDTH 50 0
BBX 52 73 -1 0
BITMAP
0007F000FE0000
001FF801FF0000
003FFC03FF8000
003FFC07FFC000
003FFE07FFC000
007FFE07FFC000
007FFE07FFC000
007FFE07FFC000
003FFC07FFC000
003FFC03FFC000
001FF803FF8000
000FF001FF0000
0007E0007C0000
00000000000000
00000000000000
00000000000000
00000000000000
00007FFFE00000
00007FFFF00000
0000FFFFF00000
0000FFFFF00000
0000FFFFF00000
0000FFFFF80000
0001FFFFF80000
0001FFFFF80000
0001FFFFFC0000
0003FFFFFC0000
0003FFFFFC0000
0003FFFFFE0000
0007FFBFFE0000
0007FF9FFE0000
0007FF9FFF0000
000FFF9FFF0000
000FFF1FFF0000
000FFF1FFF0000
000FFF0FFF8000
001FFF0FFF8000
001FFF0FFF8000
001FFE0FFFC000
003FFE07FFC000
003FFE07FFC000
003FFE07FFE000
007FFC07FFE000
007FFC03FFE000
007FFC03FFE000
00FFFC03FFF000
00FFF803FFF000
00FFF801FFF000
00FFF801FFF800
01FFF801FFF800
01FFFFFFFFF800
01FFFFFFFFFC00
03FFFFFFFFFC00
03FFFFFFFFFC00
03FFFFFFFFFE00
07FFFFFFFFFE00
07FFFFFFFFFE00
07FFFFFFFFFE00
07FFFFFFFFFF00
0FFFFFFFFFFF00
0FFFFFFFFFFF00
0FFFC0003FFF80
1FFFC0003FFF80
1FFF80003FFF80
1FFF80001FFFC0
3FFF80001FFFC0
3FFF80001FFFC0
3FFF80001FFFC0
7FFF00001FFFE0
7FFF00000FFFE0
7FFF00000FFFE0
7FFF00000FFFF0
FFFE00000FFFF0
ENDCHAR
STARTCHAR 00C5
ENCODING 197
SWIDTH 580 0
DWIDTH 50 0
BBX 52 77 -1 0
BITMAP
000007FE000000
00001FFF800000
00003FFFC00000
00007FFFE00000
0000FFFFE00000
0000FF0FF00000
0000FE07F00000
0000FE07F00000
0001FE07F00000
0000FE07F00000
0000FE0FF00000
0000FF9FF00000
00007FFFE00000
00007FFFC00000
00003FFF800000
00000FFF000000
000003F8000000
00000000000000
00000000000000
00000000000000
00000000000000
00007FFFE00000
00007FFFF00000
0000FFFFF00000
0000FFFFF00000
0000FFFFF00000
0000FFFFF80000
0001FFFFF80000
0001FFFFF80000
0001FFFFFC0000
0003FFFFFC0000
0003FFFFFC0000
0003FFFFFE0000
0007FFBFFE0000
0007FF9FFE0000
0007FF9FFF0000
000FFF9FFF0000
000FFF1FFF0000
000FFF1FFF0000
000FFF0FFF8000
001FFF0FFF8000
001FFF0FFF8000
001FFE0FFFC000
003FFE07FFC000
003FFE07FFC000
003FFE07FFE000
007FFC07FFE000
007FFC03FFE000
007FFC03FFE000
00FFFC03FFF000
00FFF803FFF000
00FFF801FFF000
00FFF801FFF800
01FFF801FFF800
01FFFFFFFFF800
01FFFFFFFFFC00
03FFFFFFFFFC00
03FFFFFFFFFC00
03FFFFFFFFFE00
07FFFFFFFFFE00
07FFFFFFFFFE00
07FFFFFFFFFE00
07FFFFFFFFFF00
0FFFFFFFFFFF00
0FFFFFFFFFFF00
0FFFC0003FFF80
1FFFC0003FFF80
1FFF80003FFF80
1FFF80001FFFC0
3FFF80001FFFC0
3FFF80001FFFC0
3FFF80001FFFC0
7FFF00001FFFE0
7FFF00000FFFE0
7FFF00000FFFE0
7FFF00000FFFF0
FFFE00000FFFF0
ENDCHAR
STARTCHAR 00C6
ENCODING 198
SWIDTH 859 0
DWIDTH 74 0
BBX 71 56 -2 0
BITMAP
0000007FFFFFFFFFFC
0000007FFFFFFFFFFC
000000FFFFFFFFFFFC
000000FFFFFFFFFFFC
000000FFFFFFFFFFFC
000001FFFFFFFFFFFC
000001FFFFFFFFFFFC
000003FFFFFFFFFFFC
000003FFFFFFFFFFFC
000007FFFFFFFFFFFC
000007FFFFFFFFFFFC
00000FFFDFFFFFFFFC
00000FFFDFFFC00000
00001FFF9FFFC00000
00001FFF9FFFC00000
00001FFF9FFFC00000
00003FFF1FFFC00000
00003FFF1FFFC00000
00007FFE1FFFC00000
00007FFE1FFFC00000
0000FFFE1FFFC00000
0000FFFC1FFFFFFFE0
0001FFFC1FFFFFFFE0
0001FFFC1FFFFFFFE0
0003FFF81FFFFFFFE0
0003FFF81FFFFFFFE0
0003FFF01FFFFFFFE0
0007FFF01FFFFFFFE0
0007FFE01FFFFFFFE0
000FFFE01FFFFFFFE0
000FFFC01FFFFFFFE0
001FFFC01FFFFFFFE0
001FFFC01FFFFFFFE0
003FFFFFFFFFC00000
003FFFFFFFFFC00000
007FFFFFFFFFC00000
007FFFFFFFFFC00000
007FFFFFFFFFC00000
00FFFFFFFFFFC00000
00FFFFFFFFFFC00000
01FFFFFFFFFFC00000
01FFFFFFFFFFC00000
03FFFFFFFFFFC00000
03FFFFFFFFFFC00000
07FFF0001FFFFFFFFE
07FFF0001FFFFFFFFE
0FFFF0001FFFFFFFFE
0FFFE0001FFFFFFFFE
1FFFE0001FFFFFFFFE
1FFFC0001FFFFFFFFE
1FFFC0001FFFFFFFFE
3FFFC0001FFFFFFFFE
3FFF80001FFFFFFFFE
7FFF80001FFFFFFFFE
7FFF00001FFFFFFFFE
FFFF00001FFFFFFFFE
ENDCHAR
STARTCHAR 00C7
ENCODING 199
SWIDTH 580 0
DWIDTH 50 0
BBX 44 78 4 -21
BITMAP
000003FF0000
00003FFFE000
0001FFFFFC00
0003FFFFFE00
000FFFFFFF80
001FFFFFFFC0
007FFFFFFFE0
00FFFFFFFFF0
01FFFFFFFFE0
03FFFFFFFFE0
03FFFFFFFFC0
07FFFFFFFF80
0FFFFFFFFF00
0FFFFE01FE00
1FFFF8007C00
1FFFF0001C00
3FFFE0000800
3FFFC0000000
3FFFC0000000
7FFF80000000
7FFF80000000
7FFF00000000
FFFF00000000
FFFF00000000
FFFE00000000
FFFE00000000
FFFE00000000
FFFE00000000
FFFE00000000
FFFE00000000
FFFE00000000
FFFE00000000
FFFE00000000
FFFE00000000
FFFE00000000
FFFF00000000
FFFF00000000
7FFF00000000
7FFF80000000
7FFF80000000
7FFFC0000000
3FFFC0000C00
3FFFE0001E00
3FFFF8003F00
1FFFFC00FF00
1FFFFFFFFF80
0FFFFFFFFFC0
07FFFFFFFFE0
07FFFFFFFFF0
03FFFFFFFFF0
01FFFFFFFFF0
00FFFFFFFFF0
007FFFFFFFC0
001FFFFFFF80
000FFFFFFF00
0003FFFFFC00
0000FFFFF000
00001FFF8000
000003FC0000
000007FC0000
000007F80000
00000FF80000
00000FF80000
00001FFF0000
00003FFF8000
00003FFFC000
000001FFE000
000000FFE000
0000007FE000
0000007FE000
000000FFE000
000003FFE000
0000FFFFC000
0000FFFF8000
0000FFFF0000
00007FFC0000
00007FF00000
00007E000000
ENDCHAR
STARTCHAR 00C8
ENCODING 200
SWIDTH 557 0
DWIDTH 48 0
BBX 37 78 6 0
BITMAP
0020000000
0070000000
007C000000
00FE000000
01FF000000
03FF800000
07FFE00000
07FFF00000
0FFFF80000
1FFFFC0000
0FFFFF0000
03FFFF8000
01FFFFC000
007FFF8000
001FFF0000
000FFF0000
0003FE0000
0000FC0000
0000780000
0000100000
0000000000
0000000000
FFFFFFFFF0
FFFFFFFFF0
FFFFFFFFF0
FFFFFFFFF0
FFFFFFFFF0
FFFFFFFFF0
FFFFFFFFF0
FFFFFFFFF0
FFFFFFFFF0
FFFFFFFFF0
FFFFFFFFF0
FFFFFFFFF0
FFFE000000
FFFE000000
FFFE000000
FFFE000000
FFFE000000
FFFE000000
FFFE000000
FFFE000000
FFFE000000
FFFFFFFF80
FFFFFFFF80
FFFFFFFF80
FFFFFFFF80
FFFFFFFF80
FFFFFFFF80
FFFFFFFF80
FFFFFFFF80
FFFFFFFF80
FFFFFFFF80
FFFFFFFF80
FFFFFFFF80
FFFE000000
FFFE000000
FFFE000000
FFFE000000
FFFE000000
FFFE000000
FFFE000000
FFFE000000
FFFE000000
FFFE000000
FFFE000000
FFFFFFFFF8
FFFFFFFFF8
FFFFFFFFF8
FFFFFFFFF8
FFFFFFFFF8
FFFFFFFFF8
FFFFFFFFF8
FFFFFFFFF8
FFFFFFFFF8
FFFFFFFFF8
FFFFFFFFF8
FFFFFFFFF8
ENDCHAR
STARTCHAR 00C9
ENCODING 201
SWIDTH 557 0
DWIDTH 48 0
BBX 37 78 6 0
BITMAP
0000001000
0000003800
000000F800
000001FC00
000003FE00
000007FF00
00001FFF80
00003FFF80
00007FFFC0
0000FFFFE0
0003FFFFC0
0007FFFF00
000FFFFC00
0007FFF800
0007FFE000
0003FFC000
0001FF0000
0000FC0000
0000780000
0000200000
0000000000
0000000000
FFFFFFFFF0
FFFFFFFFF0
FFFFFFFFF0
FFFFFFFFF0
FFFFFFFFF0
FFFFFFFFF0
FFFFFFFFF0
FFFFFFFFF0
FFFFFFFFF0
FFFFFFFFF0
FFFFFFFFF0
FFFFFFFFF0
FFFE000000
FFFE000000
FFFE000000
FFFE000000
FFFE000000
FFFE000000
FFFE000000
FFFE000000
FFFE000000
FFFFFFFF80
FFFFFFFF80
FFFFFFFF80
FFFFFFFF80
FFFFFFFF80
FFFFFFFF80
FFFFFFFF80
FFFFFFFF80
FFFFFFFF80
FFFFFFFF80
FFFFFFFF80
FFFFFFFF80
FFFE000000
FFFE000000
FFFE000000
FFFE000000
FFFE000000
FFFE000000
FFFE000000
FFFE000000
FFFE000000
FFFE000000
FFFE000000
FFFFFFFFF8
FFFFFFFFF8
FFFFFFFFF8
FFFFFFFFF8
FFFFFFFFF8
FFFFFFFFF8
FFFFFFFFF8
FFFFFFFFF8
FFFFFFFFF8
FFFFFFFFF8
FFFFFFFFF8
FFFFFFFFF8
ENDCHAR
STARTCHAR 00CA
ENCODING 202
SWIDTH 557 0
DWIDTH 48 0
BBX 37 72 6 0
BITMAP
003FFFE000
003FFFF000
007FFFF800
00FFFFFC00
01FFFFFC00
01FFFFFE00
03FFFFFF00
07FF87FF80
0FFF03FFC0
0FFE01FFC0
07FC00FF80
01F0003E00
0060001800
0000000000
0000000000
0000000000
FFFFFFFFF0
FFFFFFFFF0
FFFFFFFFF0
FFFFFFFFF0
FFFFFFFFF0
FFFFFFFFF0
FFFFFFFFF0
FFFFFFFFF0
FFFFFFFFF0
FFFFFFFFF0
FFFFFFFFF0
FFFFFFFFF0
FFFE000000
FFFE000000
FFFE000000
FFFE000000
FFFE000000
FFFE000000
FFFE000000
FFFE000000
FFFE000000
FFFFFFFF80
FFFFFFFF80
FFFFFFFF80
FFFFFFFF80
FFFFFFFF80
FFFFFFFF80
FFFFFFFF80
FFFFFFFF80
FFFFFFFF80
FFFFFFFF80
FFFFFFFF80
FFFFFFFF80
FFFE000000
FFFE000000
FFFE000000
FFFE000000
FFFE000000
FFFE000000
FFFE000000
FFFE000000
FFFE000000
FFFE000000
FFFE000000
FFFFFFFFF8
FFFFFFFFF8
FFFFFFFFF8
FFFFFFFFF8
FFFFFFFFF8
FFFFFFFFF8
FFFFFFFFF8
FFFFFFFFF8
FFFFFFFFF8
FFFFFFFFF8
FFFFFFFFF8
FFFFFFFFF8
ENDCHAR
STARTCHAR 00CB
ENCODING 203
SWIDTH 557 0
DWIDTH 48 0
BBX 37 73 6 0
BITMAP
03F8007F00
0FFC00FFC0
0FFE01FFC0
1FFE01FFE0
1FFF03FFE0
1FFF03FFE0
3FFF03FFF0
1FFF03FFE0
1FFF03FFE0
1FFE01FFE0
0FFC01FFC0
07FC00FF80
03F0003E00
0000000000
0000000000
0000000000
0000000000
FFFFFFFFF0
FFFFFFFFF0
FFFFFFFFF0
FFFFFFFFF0
FFFFFFFFF0
FFFFFFFFF0
FFFFFFFFF0
FFFFFFFFF0
FFFFFFFFF0
FFFFFFFFF0
FFFFFFFFF0
FFFFFFFFF0
FFFE000000
FFFE000000
FFFE000000
FFFE000000
FFFE000000
FFFE000000
FFFE000000
FFFE000000
FFFE000000
FFFFFFFF80
FFFFFFFF80
FFFFFFFF80
FFFFFFFF80
FFFFFFFF80
FFFFFFFF80
FFFFFFFF80
FFFFFFFF80
FFFFFFFF80
FFFFFFFF80
FFFFFFFF80
FFFFFFFF80
FFFE000000
FFFE000000
FFFE000000
FFFE000000
FFFE000000
FFFE000000
FFFE000000
FFFE000000
FFFE000000
FFFE000000
FFFE000000
FFFFFFFFF8
FFFFFFFFF8
FFFFFFFFF8
FFFFFFFFF8
FFFFFFFFF8
FFFFFFFFF8
FFFFFFFFF8
FFFFFFFFF8
FFFFFFFFF8
FFFFFFFFF8
FFFFFFFFF8
FFFFFFFFF8
ENDCHAR
STARTCHAR 00CC
ENCODING 204
SWIDTH 313 0
DWIDTH 27 0
BBX 24 78 -3 0
BITMAP
008000
01C000
03E000
07F000
07FC00
0FFE00
1FFF00
3FFF80
7FFFE0
FFFFF0
3FFFF8
1FFFFE
07FFFF
01FFFE
00FFFC
003FF8
000FF0
0007E0
0001E0
000040
000000
000000
007FFF
007FFF
007FFF
007FFF
007FFF
007FFF
007FFF
007FFF
007FFF
007FFF
007FFF
007FFF
007FFF
007FFF
007FFF
007FFF
007FFF
007FFF
007FFF
007FFF
007FFF
007FFF
007FFF
007FFF
007FFF
007FFF
007FFF
007FFF
007FFF
007FFF
007FFF
007FFF
007FFF
007FFF
007FFF
007FFF
007FFF
007FFF
007FFF
007FFF
007FFF
007FFF
007FFF
007FFF
007FFF
007FFF
007FFF
007FFF
007FFF
007FFF
007FFF
007FFF
007FFF
007FFF
007FFF
007FFF
ENDCHAR
STARTCHAR 00CD
ENCODING 205
SWIDTH 313 0
DWIDTH 27 0
BBX 24 77 6 1
BITMAP
000380
0007C0
000FE0
001FF0
007FF0
00FFF8
01FFFC
07FFFE
0FFFFF
1FFFFC
3FFFF8
FFFFE0
7FFF80
3FFF00
1FFC00
0FF800
07E000
038000
010000
000000
000000
FFFE00
FFFE00
FFFE00
FFFE00
FFFE00
FFFE00
FFFE00
FFFE00
FFFE00
FFFE00
FFFE00
FFFE00
FFFE00
FFFE00
FFFE00
FFFE00
FFFE00
FFFE00
FFFE00
FFFE00
FFFE00
FFFE00
FFFE00
FFFE00
FFFE00
FFFE00
FFFE00
FFFE00
FFFE00
FFFE00
FFFE00
FFFE00
FFFE00
FFFE00
FFFE00
FFFE00
FFFE00
FFFE00
FFFE00
FFFE00
FFFE00
FFFE00
FFFE00
FFFE00
FFFE00
FFFE00
FFFE00
FFFE00
FFFE00
FFFE00
FFFE00
FFFE00
FFFE00
FFFE00
FFFE00
FFFE00
ENDCHAR
STARTCHAR 00CE
ENCODING 206
SWIDTH 313 0
DWIDTH 27 0
BBX 31 72 -2 0
BITMAP
01FFFF00
03FFFF80
03FFFFC0
07FFFFC0
0FFFFFE0
1FFFFFF0
1FFEFFF8
3FFC7FF8
7FF83FFC
FFE00FFE
3FC007F8
0F8003F0
070001C0
00000000
00000000
00000000
00FFFE00
00FFFE00
00FFFE00
00FFFE00
00FFFE00
00FFFE00
00FFFE00
00FFFE00
00FFFE00
00FFFE00
00FFFE00
00FFFE00
00FFFE00
00FFFE00
00FFFE00
00FFFE00
00FFFE00
00FFFE00
00FFFE00
00FFFE00
00FFFE00
00FFFE00
00FFFE00
00FFFE00
00FFFE00
00FFFE00
00FFFE00
00FFFE00
00FFFE00
00FFFE00
00FFFE00
00FFFE00
00FFFE00
00FFFE00
00FFFE00
00FFFE00
00FFFE00
00FFFE00
00FFFE00
00FFFE00
00FFFE00
00FFFE00
00FFFE00
00FFFE00
00FFFE00
00FFFE00
00FFFE00
00FFFE00
00FFFE00
00FFFE00
00FFFE00
00FFFE00
00FFFE00
00FFFE00
00FFFE00
00FFFE00
ENDCHAR
STARTCHAR 00CF
ENCODING 207
SWIDTH 313 0
DWIDTH 27 0
BBX 33 73 -3 0
BITMAP
1FC001FC00
3FF003FE00
7FF007FF00
7FF80FFF80
FFF80FFF80
FFF80FFF80
FFFC0FFF80
FFF80FFF80
FFF80FFF80
7FF80FFF00
7FF007FF00
3FE003FE00
0F8000F800
0000000000
0000000000
0000000000
0000000000
007FFF0000
007FFF0000
007FFF0000
007FFF0000
007FFF0000
007FFF0000
007FFF0000
007FFF0000
007FFF0000
007FFF0000
007FFF0000
007FFF0000
007FFF0000
007FFF0000
007FFF0000
007FFF0000
007FFF0000
007FFF0000
007FFF0000
007FFF0000
007FFF0000
007FFF0000
007FFF0000
007FFF0000
007FFF0000
007FFF0000
007FFF0000
007FFF0000
007FFF0000
007FFF0000
007FFF0000
007FFF0000
007FFF0000
007FFF0000
007FFF0000
007FFF0000
007FFF0000
007FFF0000
007FFF0000
007FFF0000
007FFF0000
007FFF0000
007FFF0000
007FFF0000
007FFF0000
007FFF0000
007FFF0000
007FFF0000
007FFF0000
007FFF0000
007FFF0000
007FFF0000
007FFF0000
007FFF0000
007FFF0000
007FFF0000
ENDCHAR
STARTCHAR 00D0
ENCODING 208
SWIDTH 673 0
DWIDTH 58 0
BBX 52 56 2 0
BITMAP
03FFFFFC000000
03FFFFFFE00000
03FFFFFFF80000
03FFFFFFFF0000
03FFFFFFFF8000
03FFFFFFFFE000
03FFFFFFFFF000
03FFFFFFFFF800
03FFFFFFFFFC00
03FFFFFFFFFE00
03FFFFFFFFFE00
03FFFFFFFFFF00
03FFF80FFFFF80
03FFF803FFFF80
03FFF800FFFF80
03FFF8007FFFC0
03FFF8003FFFC0
03FFF8003FFFE0
03FFF8001FFFE0
03FFF8001FFFE0
03FFF8000FFFE0
03FFF8000FFFE0
03FFF8000FFFE0
03FFF8000FFFF0
FFFFFFFE0FFFF0
FFFFFFFE0FFFF0
FFFFFFFE07FFF0
FFFFFFFE07FFF0
FFFFFFFE07FFF0
FFFFFFFE07FFF0
FFFFFFFE0FFFF0
03FFF8000FFFF0
03FFF8000FFFF0
03FFF8000FFFE0
03FFF8000FFFE0
03FFF8000FFFE0
03FFF8001FFFE0
03FFF8001FFFE0
03FFF8003FFFC0
03FFF8003FFFC0
03FFF8007FFFC0
03FFF800FFFF80
03FFF803FFFF80
03FFF80FFFFF00
03FFFFFFFFFF00
03FFFFFFFFFE00
03FFFFFFFFFC00
03FFFFFFFFFC00
03FFFFFFFFF800
03FFFFFFFFF000
03FFFFFFFFC000
03FFFFFFFF8000
03FFFFFFFE0000
03FFFFFFF80000
03FFFFFFE00000
03FFFFFC000000
ENDCHAR
STARTCHAR 00D1
ENCODING 209
SWIDTH 673 0
DWIDTH 58 0
BBX 46 74 6 0
BITMAP
0007F0000000
001FFE01E000
007FFF01FF80
00FFFFC1FF80
00FFFFF3FF00
01FFFFFFFF00
01FFFFFFFF00
03FFFFFFFF00
03FFFFFFFE00
03FFFFFFFE00
03FF3FFFFC00
07FE0FFFF800
07FE07FFF000
007E01FFE000
0000007F8000
000000000000
000000000000
000000000000
FFFF0000FFFC
FFFF0000FFFC
FFFF8000FFFC
FFFF8000FFFC
FFFFC000FFFC
FFFFC000FFFC
FFFFE000FFFC
FFFFE000FFFC
FFFFF000FFFC
FFFFF000FFFC
FFFFF800FFFC
FFFFF800FFFC
FFFFFC00FFFC
FFFFFC00FFFC
FFFFFE00FFFC
FFFFFE00FFFC
FFFFFF00FFFC
FFFFFF00FFFC
FFF7FF80FFFC
FFFFFF80FFFC
FFFBFFC0FFFC
FFFBFFC0FFFC
FFFBFFE0FFFC
FFF9FFE0FFFC
FFF9FFF0FFFC
FFF8FFF0FFFC
FFF8FFF0FFFC
FFFC7FF8FFFC
FFFC7FF8FFFC
FFFC7FFC7FFC
FFFC3FFC7FFC
FFFC3FFE7FFC
FFFC1FFE7FFC
FFFC1FFE7FFC
FFFC0FFF7FFC
FFFC0FFF7FFC
FFFC07FFFFFC
FFFC07FFFFFC
FFFC03FFFFFC
FFFC03FFFFFC
FFFC01FFFFFC
FFFC01FFFFFC
FFFC00FFFFFC
FFFC00FFFFFC
FFFC007FFFFC
FFFC007FFFFC
FFFC003FFFFC
FFFC003FFFFC
FFFC001FFFFC
FFFC001FFFFC
FFFC000FFFFC
FFFC000FFFFC
FFFC0007FFFC
FFFC0007FFFC
FFFC0003FFFC
FFFC0003FFFC
ENDCHAR
STARTCHAR 00D2
ENCODING 210
SWIDTH 696 0
DWIDTH 60 0
BBX 52 79 4 -1
BITMAP
00004000000000
0000E000000000
0001F000000000
0001FC00000000
0003FE00000000
0007FF00000000
000FFF80000000
001FFFE0000000
001FFFF0000000
003FFFF8000000
001FFFFC000000
0007FFFF000000
0003FFFF800000
0000FFFF000000
00003FFE000000
00001FFC000000
000007FC000000
000003F8000000
000000F0000000
00000020000000
00000000000000
00000FFF000000
0000FFFFE00000
0003FFFFFC0000
000FFFFFFF0000
003FFFFFFF8000
007FFFFFFFE000
00FFFFFFFFF000
01FFFFFFFFF800
03FFFFFFFFFC00
07FFFFFFFFFC00
07FFFFFFFFFE00
0FFFFFFFFFFF00
1FFFFFFFFFFF00
1FFFFC03FFFF80
3FFFF001FFFF80
3FFFE0007FFFC0
3FFFC0007FFFC0
7FFF80003FFFC0
7FFF80001FFFE0
7FFF80001FFFE0
7FFF00001FFFE0
FFFF00000FFFE0
FFFF00000FFFE0
FFFE00000FFFF0
FFFE00000FFFF0
FFFE00000FFFF0
FFFE000007FFF0
FFFE000007FFF0
FFFE000007FFF0
FFFE000007FFF0
FFFE000007FFF0
FFFE000007FFF0
FFFE00000FFFF0
FFFE00000FFFF0
FFFF00000FFFE0
FFFF00000FFFE0
7FFF00000FFFE0
7FFF00001FFFE0
7FFF80001FFFE0
7FFF80001FFFC0
7FFFC0003FFFC0
3FFFC0007FFFC0
3FFFE000FFFF80
1FFFF001FFFF80
1FFFFC03FFFF00
0FFFFFFFFFFF00
0FFFFFFFFFFE00
07FFFFFFFFFE00
03FFFFFFFFFC00
03FFFFFFFFF800
01FFFFFFFFF000
00FFFFFFFFE000
007FFFFFFFC000
001FFFFFFF8000
000FFFFFFE0000
0003FFFFFC0000
0000FFFFE00000
00000FFE000000
ENDCHAR
STARTCHAR 00D3
ENCODING 211
SWIDTH 696 0
DWIDTH 60 0
BBX 52 79 4 -1
BITMAP
00000000200000
00000000600000
00000001F00000
00000003F80000
00000007FC0000
0000001FFE0000
0000003FFE0000
0000007FFF0000
000000FFFF8000
000003FFFFC000
000007FFFF8000
00000FFFFE0000
00001FFFF80000
00001FFFF00000
00000FFFC00000
000007FF000000
000003FE000000
000001F8000000
000000E0000000
00000040000000
00000000000000
00000FFF000000
0000FFFFE00000
0003FFFFFC0000
000FFFFFFF0000
003FFFFFFF8000
007FFFFFFFE000
00FFFFFFFFF000
01FFFFFFFFF800
03FFFFFFFFFC00
07FFFFFFFFFC00
07FFFFFFFFFE00
0FFFFFFFFFFF00
1FFFFFFFFFFF00
1FFFFC03FFFF80
3FFFF001FFFF80
3FFFE0007FFFC0
3FFFC0007FFFC0
7FFF80003FFFC0
7FFF80001FFFE0
7FFF80001FFFE0
7FFF00001FFFE0
FFFF00000FFFE0
FFFF00000FFFE0
FFFE00000FFFF0
FFFE00000FFFF0
FFFE00000FFFF0
FFFE000007FFF0
FFFE000007FFF0
FFFE000007FFF0
FFFE000007FFF0
FFFE000007FFF0
FFFE000007FFF0
FFFE00000FFFF0
FFFE00000FFFF0
FFFF00000FFFE0
FFFF00000FFFE0
7FFF00000FFFE0
7FFF00001FFFE0
7FFF80001FFFE0
7FFF80001FFFC0
7FFFC0003FFFC0
3FFFC0007FFFC0
3FFFE000FFFF80
1FFFF001FFFF80
1FFFFC03FFFF00
0FFFFFFFFFFF00
0FFFFFFFFFFE00
07FFFFFFFFFE00
03FFFFFFFFFC00
03FFFFFFFFF800
01FFFFFFFFF000
00FFFFFFFFE000
007FFFFFFFC000
001FFFFFFF8000
000FFFFFFE0000
0003FFFFFC0000
0000FFFFE00000
00000FFE000000
ENDCHAR
STARTCHAR 00D4
ENCODING 212
SWIDTH 696 0
DWIDTH 60 0
BBX 52 73 4 -1
BITMAP
00007FFFC00000
00007FFFE00000
0000FFFFF00000
0001FFFFF80000
0003FFFFF80000
0003FFFFFC0000
0007FFBFFE0000
000FFF1FFF0000
001FFE07FF0000
003FFC03FF8000
000FF001FF0000
0003E000FC0000
0001C000300000
00000000000000
00000000000000
00000FFF000000
0000FFFFE00000
0003FFFFFC0000
000FFFFFFF0000
003FFFFFFF8000
007FFFFFFFE000
00FFFFFFFFF000
01FFFFFFFFF800
03FFFFFFFFFC00
07FFFFFFFFFC00
07FFFFFFFFFE00
0FFFFFFFFFFF00
1FFFFFFFFFFF00
1FFFFC03FFFF80
3FFFF001FFFF80
3FFFE0007FFFC0
3FFFC0007FFFC0
7FFF80003FFFC0
7FFF80001FFFE0
7FFF80001FFFE0
7FFF00001FFFE0
FFFF00000FFFE0
FFFF00000FFFE0
FFFE00000FFFF0
FFFE00000FFFF0
FFFE00000FFFF0
FFFE000007FFF0
FFFE000007FFF0
FFFE000007FFF0
FFFE000007FFF0
FFFE000007FFF0
FFFE000007FFF0
FFFE00000FFFF0
FFFE00000FFFF0
FFFF00000FFFE0
FFFF00000FFFE0
7FFF00000FFFE0
7FFF00001FFFE0
7FFF80001FFFE0
7FFF80001FFFC0
7FFFC0003FFFC0
3FFFC0007FFFC0
3FFFE000FFFF80
1FFFF001FFFF80
1FFFFC03FFFF00
0FFFFFFFFFFF00
0FFFFFFFFFFE00
07FFFFFFFFFE00
03FFFFFFFFFC00
03FFFFFFFFF800
01FFFFFFFFF000
00FFFFFFFFE000
007FFFFFFFC000
001FFFFFFF8000
000FFFFFFE0000
0003FFFFFC0000
0000FFFFE00000
00000FFE000000
ENDCHAR
STARTCHAR 00D5
ENCODING 213
SWIDTH 696 0
DWIDTH 60 0
BBX 52 75 4 -1
BITMAP
0000FE00000000
0003FFC03C0000
000FFFE03FE000
001FFFF87FE000
001FFFFC7FE000
003FFFFFFFE000
003FFFFFFFE000
007FFFFFFFE000
007FFFFFFFC000
007FFFFFFFC000
00FFE7FFFF8000
00FFC1FFFF0000
00FFC0FFFE0000
000FC03FFC0000
0000000FE00000
00000000000000
00000000000000
00000FFF000000
0000FFFFE00000
0003FFFFFC0000
000FFFFFFF0000
003FFFFFFF8000
007FFFFFFFE000
00FFFFFFFFF000
01FFFFFFFFF800
03FFFFFFFFFC00
07FFFFFFFFFC00
07FFFFFFFFFE00
0FFFFFFFFFFF00
1FFFFFFFFFFF00
1FFFFC03FFFF80
3FFFF001FFFF80
3FFFE0007FFFC0
3FFFC0007FFFC0
7FFF80003FFFC0
7FFF80001FFFE0
7FFF80001FFFE0
7FFF00001FFFE0
FFFF00000FFFE0
FFFF00000FFFE0
FFFE00000FFFF0
FFFE00000FFFF0
FFFE00000FFFF0
FFFE000007FFF0
FFFE000007FFF0
FFFE000007FFF0
FFFE000007FFF0
FFFE000007FFF0
FFFE000007FFF0
FFFE00000FFFF0
FFFE00000FFFF0
FFFF00000FFFE0
FFFF00000FFFE0
7FFF00000FFFE0
7FFF00001FFFE0
7FFF80001FFFE0
7FFF80001FFFC0
7FFFC0003FFFC0
3FFFC0007FFFC0
3FFFE000FFFF80
1FFFF001FFFF80
1FFFFC03FFFF00
0FFFFFFFFFFF00
0FFFFFFFFFFE00
07FFFFFFFFFE00
03FFFFFFFFFC00
03FFFFFFFFF800
01FFFFFFFFF000
00FFFFFFFFE000
007FFFFFFFC000
001FFFFFFF8000
000FFFFFFE0000
0003FFFFFC0000
0000FFFFE00000
00000FFE000000
ENDCHAR
STARTCHAR 00D6
ENCODING 214
SWIDTH 696 0
DWIDTH 60 0
BBX 52 74 4 -1
BITMAP
0007E0007C0000
000FF001FF0000
001FF803FF8000
003FFC03FFC000
003FFC07FFC000
007FFE07FFC000
007FFE07FFC000
007FFE07FFC000
007FFC07FFC000
003FFC07FFC000
003FFC03FF8000
001FF801FF0000
000FE000FE0000
00000000000000
00000000000000
00000000000000
00000FFF000000
0000FFFFE00000
0003FFFFFC0000
000FFFFFFF0000
003FFFFFFF8000
007FFFFFFFE000
00FFFFFFFFF000
01FFFFFFFFF800
03FFFFFFFFFC00
07FFFFFFFFFC00
07FFFFFFFFFE00
0FFFFFFFFFFF00
1FFFFFFFFFFF00
1FFFFC03FFFF80
3FFFF001FFFF80
3FFFE0007FFFC0
3FFFC0007FFFC0
7FFF80003FFFC0
7FFF80001FFFE0
7FFF80001FFFE0
7FFF00001FFFE0
FFFF00000FFFE0
FFFF00000FFFE0
FFFE00000FFFF0
FFFE00000FFFF0
FFFE00000FFFF0
FFFE000007FFF0
FFFE000007FFF0
FFFE000007FFF0
FFFE000007FFF0
FFFE000007FFF0
FFFE000007FFF0
FFFE00000FFFF0
FFFE00000FFFF0
FFFF00000FFFE0
FFFF00000FFFE0
7FFF00000FFFE0
7FFF00001FFFE0
7FFF80001FFFE0
7FFF80001FFFC0
7FFFC0003FFFC0
3FFFC0007FFFC0
3FFFE000FFFF80
1FFFF001FFFF80
1FFFFC03FFFF00
0FFFFFFFFFFF00
0FFFFFFFFFFE00
07FFFFFFFFFE00
03FFFFFFFFFC00
03FFFFFFFFF800
01FFFFFFFFF000
00FFFFFFFFE000
007FFFFFFFC000
001FFFFFFF8000
000FFFFFFE0000
0003FFFFFC0000
0000FFFFE00000
00000FFE000000
ENDCHAR
STARTCHAR 00D7
ENCODING 215
SWIDTH 545 0
DWIDTH 47 0
BBX 38 38 4 9
BITMAP
0300000300
0780000780
0FC0000FC0
1FE0001FE0
3FF0003FF0
7FF8007FF8
FFFC00FFFC
7FFE01FFFC
3FFF03FFF8
1FFF87FFF0
0FFFCFFFE0
07FFFFFFC0
03FFFFFF80
01FFFFFF00
00FFFFFE00
007FFFFC00
003FFFF800
001FFFF000
000FFFE000
001FFFE000
003FFFF000
007FFFF800
00FFFFFC00
01FFFFFE00
03FFFFFF00
07FFFFFF80
0FFFEFFFC0
1FFFC7FFE0
3FFF83FFF0
7FFF01FFF8
FFFE00FFFC
7FFC007FFC
3FF8003FF8
1FF0001FF0
0FE0000FE0
07C00007C0
0380000380
0100000100
ENDCHAR
STARTCHAR 00D8
ENCODING 216
SWIDTH 696 0
DWIDTH 60 0
BBX 54 64 4 -4
BITMAP
00000000000200
00000000000700
000000000007C0
00000FFF000FE0
0000FFFFE01FF0
0003FFFFFC3FFC
000FFFFFFF7FFC
003FFFFFFFFFF8
007FFFFFFFFFF0
00FFFFFFFFFFE0
01FFFFFFFFFFC0
03FFFFFFFFFFC0
07FFFFFFFFFF80
07FFFFFFFFFF00
0FFFFFFFFFFF00
1FFFFFFFFFFF00
1FFFFC03FFFF80
3FFFF001FFFF80
3FFFE000FFFFC0
3FFFC001FFFFC0
7FFF8003FFFFC0
7FFF8007FFFFE0
7FFF800FFFFFE0
7FFF001FFFFFE0
FFFF001FFFFFE0
FFFF003FFFFFE0
FFFE007FFFFFF0
FFFE00FFFFFFF0
FFFE01FFFFFFF0
FFFE01FFE7FFF0
FFFE03FFC7FFF0
FFFE07FF87FFF0
FFFE0FFF07FFF0
FFFE1FFF07FFF0
FFFE3FFE07FFF0
FFFE3FFC0FFFF0
FFFE7FF80FFFF0
FFFEFFF00FFFE0
FFFFFFF00FFFE0
FFFFFFE00FFFE0
7FFFFFC01FFFE0
7FFFFF801FFFE0
7FFFFF001FFFC0
7FFFFE003FFFC0
3FFFFE007FFFC0
3FFFFC00FFFF80
1FFFF801FFFF80
1FFFFC03FFFF00
0FFFFFFFFFFF00
0FFFFFFFFFFE00
07FFFFFFFFFE00
0FFFFFFFFFFC00
0FFFFFFFFFF800
1FFFFFFFFFF000
3FFFFFFFFFE000
7FFFFFFFFFC000
FFFFFFFFFF8000
FFFFFFFFFE0000
FFE3FFFFFC0000
7FC0FFFFE00000
3F800FFE000000
0F800000000000
07000000000000
02000000000000
ENDCHAR
STARTCHAR 00D9
ENCODING 217
SWIDTH 673 0
DWIDTH 58 0
BBX 46 79 6 -1
BITMAP
000200000000
000700000000
000780000000
000FE0000000
001FF0000000
003FF8000000
007FFE000000
00FFFF000000
00FFFF800000
01FFFFC00000
00FFFFF00000
003FFFF80000
001FFFFC0000
0007FFF80000
0001FFF00000
0000FFF00000
00003FE00000
00000FC00000
000007800000
000001000000
000000000000
000000000000
FFFE0000FFFC
FFFE0000FFFC
FFFE0000FFFC
FFFE0000FFFC
FFFE0000FFFC
FFFE0000FFFC
FFFE0000FFFC
FFFE0000FFFC
FFFE0000FFFC
FFFE0000FFFC
FFFE0000FFFC
FFFE0000FFFC
FFFE0000FFFC
FFFE0000FFFC
FFFE0000FFFC
FFFE0000FFFC
FFFE0000FFFC
FFFE0000FFFC
FFFE0000FFFC
FFFE0000FFFC
FFFE0000FFFC
FFFE0000FFFC
FFFE0000FFFC
FFFE0000FFFC
FFFE0000FFFC
FFFE0000FFFC
FFFE0000FFFC
FFFE0000FFFC
FFFE0000FFFC
FFFE0000FFFC
FFFE0000FFFC
FFFE0000FFFC
FFFE0000FFFC
FFFE0000FFFC
FFFE0000FFFC
FFFE0001FFFC
FFFE0001FFFC
7FFE0001FFF8
7FFF0001FFF8
7FFF0001FFF8
7FFF0003FFF8
7FFF8007FFF8
3FFFC007FFF0
3FFFE01FFFF0
3FFFFFFFFFF0
1FFFFFFFFFE0
1FFFFFFFFFE0
0FFFFFFFFFC0
0FFFFFFFFFC0
07FFFFFFFF80
03FFFFFFFF00
01FFFFFFFE00
00FFFFFFFC00
007FFFFFF800
001FFFFFE000
0007FFFF8000
00007FF80000
ENDCHAR
STARTCHAR 00DA
ENCODING 218
SWIDTH 673 0
DWIDTH 58 0
BBX 46 79 6 -1
BITMAP
000000010000
000000030000
0000000F8000
0000001FC000
0000003FE000
0000007FF000
000001FFF800
000003FFF800
000007FFFC00
00000FFFFE00
00003FFFFC00
00007FFFF000
0000FFFFC000
00007FFF8000
00007FFE0000
00003FF80000
00001FF00000
00000FC00000
000007800000
000002000000
000000000000
000000000000
FFFE0000FFFC
FFFE0000FFFC
FFFE0000FFFC
FFFE0000FFFC
FFFE0000FFFC
FFFE0000FFFC
FFFE0000FFFC
FFFE0000FFFC
FFFE0000FFFC
FFFE0000FFFC
FFFE0000FFFC
FFFE0000FFFC
FFFE0000FFFC
FFFE0000FFFC
FFFE0000FFFC
FFFE0000FFFC
FFFE0000FFFC
FFFE0000FFFC
FFFE0000FFFC
FFFE0000FFFC
FFFE0000FFFC
FFFE0000FFFC
FFFE0000FFFC
FFFE0000FFFC
FFFE0000FFFC
FFFE0000FFFC
FFFE0000FFFC
FFFE0000FFFC
FFFE0000FFFC
FFFE0000FFFC
FFFE0000FFFC
FFFE0000FFFC
FFFE0000FFFC
FFFE0000FFFC
FFFE0000FFFC
FFFE0001FFFC
FFFE0001FFFC
7FFE0001FFF8
7FFF0001FFF8
7FFF0001FFF8
7FFF0003FFF8
7FFF8007FFF8
3FFFC007FFF0
3FFFE01FFFF0
3FFFFFFFFFF0
1FFFFFFFFFE0
1FFFFFFFFFE0
0FFFFFFFFFC0
0FFFFFFFFFC0
07FFFFFFFF80
03FFFFFFFF00
01FFFFFFFE00
00FFFFFFFC00
007FFFFFF800
001FFFFFE000
0007FFFF8000
00007FF80000
ENDCHAR
STARTCHAR 00DB
ENCODING 219
SWIDTH 673 0
DWIDTH 58 0
BBX 46 73 6 -1
BITMAP
0003FFFE0000
0003FFFF0000
0007FFFF8000
000FFFFFC000
001FFFFFC000
001FFFFFE000
003FFFFFF000
007FF8FFF800
00FFF03FF800
00FFE01FFC00
007FC00FF800
001F0003E000
000600018000
000000000000
000000000000
000000000000
FFFE0000FFFC
FFFE0000FFFC
FFFE0000FFFC
FFFE0000FFFC
FFFE0000FFFC
FFFE0000FFFC
FFFE0000FFFC
FFFE0000FFFC
FFFE0000FFFC
FFFE0000FFFC
FFFE0000FFFC
FFFE0000FFFC
FFFE0000FFFC
FFFE0000FFFC
FFFE0000FFFC
FFFE0000FFFC
FFFE0000FFFC
FFFE0000FFFC
FFFE0000FFFC
FFFE0000FFFC
FFFE0000FFFC
FFFE0000FFFC
FFFE0000FFFC
FFFE0000FFFC
FFFE0000FFFC
FFFE0000FFFC
FFFE0000FFFC
FFFE0000FFFC
FFFE0000FFFC
FFFE0000FFFC
FFFE0000FFFC
FFFE0000FFFC
FFFE0000FFFC
FFFE0000FFFC
FFFE0000FFFC
FFFE0001FFFC
FFFE0001FFFC
7FFE0001FFF8
7FFF0001FFF8
7FFF0001FFF8
7FFF0003FFF8
7FFF8007FFF8
3FFFC007FFF0
3FFFE01FFFF0
3FFFFFFFFFF0
1FFFFFFFFFE0
1FFFFFFFFFE0
0FFFFFFFFFC0
0FFFFFFFFFC0
07FFFFFFFF80
03FFFFFFFF00
01FFFFFFFE00
00FFFFFFFC00
007FFFFFF800
001FFFFFE000
0007FFFF8000
00007FF80000
ENDCHAR
STARTCHAR 00DC
ENCODING 220
SWIDTH 673 0
DWIDTH 58 0
BBX 46 74 6 -1
BITMAP
003F8007F000
00FFC00FFC00
00FFE01FFC00
01FFE01FFE00
01FFF03FFE00
03FFF03FFE00
03FFF03FFE00
03FFF03FFE00
01FFE03FFE00
01FFE01FFE00
00FFC01FFC00
007F800FF800
003F0003E000
000000000000
000000000000
000000000000
000000000000
FFFE0000FFFC
FFFE0000FFFC
FFFE0000FFFC
FFFE0000FFFC
FFFE0000FFFC
FFFE0000FFFC
FFFE0000FFFC
FFFE0000FFFC
FFFE0000FFFC
FFFE0000FFFC
FFFE0000FFFC
FFFE0000FFFC
FFFE0000FFFC
FFFE0000FFFC
FFFE0000FFFC
FFFE0000FFFC
FFFE0000FFFC
FFFE0000FFFC
FFFE0000FFFC
FFFE0000FFFC
FFFE0000FFFC
FFFE0000FFFC
FFFE0000FFFC
FFFE0000FFFC
FFFE0000FFFC
FFFE0000FFFC
FFFE0000FFFC
FFFE0000FFFC
FFFE0000FFFC
FFFE0000FFFC
FFFE0000FFFC
FFFE0000FFFC
FFFE0000FFFC
FFFE0000FFFC
FFFE0000FFFC
FFFE0001FFFC
FFFE0001FFFC
7FFE0001FFF8
7FFF0001FFF8
7FFF0001FFF8
7FFF0003FFF8
7FFF8007FFF8
3FFFC007FFF0
3FFFE01FFFF0
3FFFFFFFFFF0
1FFFFFFFFFE0
1FFFFFFFFFE0
0FFFFFFFFFC0
0FFFFFFFFFC0
07FFFFFFFF80
03FFFFFFFF00
01FFFFFFFE00
00FFFFFFFC00
007FFFFFF800
001FFFFFE000
0007FFFF8000
00007FF80000
ENDCHAR
STARTCHAR 00DD
ENCODING 221
SWIDTH 545 0
DWIDTH 47 0
BBX 48 78 -1 0
BITMAP
000000008000
00000001C000
00000003E000
00000007F000
0000001FF000
0000003FF800
0000007FFC00
000000FFFE00
000003FFFF00
000007FFFF80
00000FFFFE00
00003FFFFC00
00007FFFF000
00003FFFC000
00001FFF8000
00000FFE0000
000007F80000
000003F00000
000003C00000
000001000000
000000000000
000000000000
FFFF00007FFF
7FFF80007FFF
7FFF8000FFFF
3FFF8000FFFE
3FFFC000FFFE
1FFFC001FFFC
1FFFC001FFFC
0FFFE001FFF8
0FFFE003FFF8
0FFFE003FFF0
07FFF007FFF0
07FFF007FFE0
03FFF007FFE0
03FFF80FFFC0
01FFF80FFFC0
01FFF80FFFC0
00FFFC1FFF80
00FFFC1FFF80
007FFC1FFF00
007FFE3FFF00
003FFE3FFE00
003FFE3FFE00
003FFF7FFC00
001FFF7FFC00
001FFFFFF800
000FFFFFF800
000FFFFFF800
0007FFFFF000
0007FFFFF000
0003FFFFE000
0003FFFFE000
0001FFFFC000
0001FFFFC000
0000FFFF8000
0000FFFF8000
0000FFFF0000
00007FFF0000
00007FFF0000
00007FFF0000
00007FFF0000
00007FFF0000
00007FFF0000
00007FFF0000
00007FFF0000
00007FFF0000
00007FFF0000
00007FFF0000
00007FFF0000
00007FFF0000
00007FFF0000
00007FFF0000
00007FFF0000
00007FFF0000
00007FFF0000
00007FFF0000
00007FFF0000
ENDCHAR
STARTCHAR 00DE
ENCODING 222
SWIDTH 627 0
DWIDTH 54 0
BBX 44 56 6 0
BITMAP
FFFE00000000
FFFE00000000
FFFE00000000
FFFE00000000
FFFE00000000
FFFE00000000
FFFE00000000
FFFE00000000
FFFFFFF80000
FFFFFFFF8000
FFFFFFFFE000
FFFFFFFFF800
FFFFFFFFFC00
FFFFFFFFFF00
FFFFFFFFFF00
FFFFFFFFFF80
FFFFFFFFFFC0
FFFFFFFFFFC0
FFFFFFFFFFE0
FFFFFFFFFFE0
FFFE003FFFF0
FFFE000FFFF0
FFFE0007FFF0
FFFE0007FFF0
FFFE0003FFF0
FFFE0003FFF0
FFFE0003FFF0
FFFE0003FFF0
FFFE0003FFF0
FFFE0007FFF0
FFFE0007FFF0
FFFE000FFFF0
FFFE001FFFF0
FFFE003FFFE0
FFFFFFFFFFE0
FFFFFFFFFFC0
FFFFFFFFFFC0
FFFFFFFFFF80
FFFFFFFFFF00
FFFFFFFFFF00
FFFFFFFFFC00
FFFFFFFFF800
FFFFFFFFF000
FFFFFFFFC000
FFFFFFFE0000
FFFFFFE00000
FFFE00000000
FFFE00000000
FFFE00000000
FFFE00000000
FFFE00000000
FFFE00000000
FFFE00000000
FFFE00000000
FFFE00000000
FFFE00000000
ENDCHAR
STARTCHAR 00DF
ENCODING 223
SWIDTH 650 0
DWIDTH 56 0
BBX 49 62 5 -1
BITMAP
0000FFE0000000
000FFFFE000000
003FFFFF800000
00FFFFFFE00000
01FFFFFFF00000
03FFFFFFF80000
07FFFFFFFC0000
0FFFFFFFFE0000
1FFFFFFFFE0000
3FFFFFFFFF0000
3FFFFFFFFF0000
3FFFFFFFFF0000
7FFFC07FFF8000
7FFF803FFF8000
7FFF003FFF8000
FFFF001FFF8000
FFFE001FFF8000
FFFE001FFF8000
FFFE001FFF0000
FFFE003FFF0000
FFFE003FFF0000
FFFE007FFE0000
FFFE007FFE0000
FFFE00FFFC0000
FFFE00FFF80000
FFFE01FFF00000
FFFE03FFF00000
FFFE03FFE00000
FFFE03FFE00000
FFFE07FFE00000
FFFE07FFE00000
FFFE07FFF00000
FFFE07FFF80000
FFFE07FFFE0000
FFFE03FFFF8000
FFFE03FFFFC000
FFFE01FFFFF000
FFFE01FFFFF800
FFFE00FFFFFC00
FFFE007FFFFE00
FFFE003FFFFE00
FFFE000FFFFF00
FFFE0007FFFF00
FFFE0001FFFF80
FFFE00007FFF80
FFFE00003FFF80
FFFE00001FFF80
FFFE00000FFF80
FFFE00800FFF80
FFFE01C01FFF80
FFFE01F03FFF80
FFFE03FFFFFF80
FFFE03FFFFFF00
FFFE07FFFFFF00
FFFE07FFFFFE00
FFFE0FFFFFFE00
FFFE0FFFFFFC00
FFFE1FFFFFF800
FFFE0FFFFFF000
FFFE03FFFFE000
FFFE00FFFF8000
0000001FF80000
ENDCHAR
STARTCHAR 00E0
ENCODING 224
SWIDTH 534 0
DWIDTH 46 0
BBX 39 73 3 0
BITMAP
000C000000
001E000000
003F000000
007F800000
00FF800000
01FFC00000
03FFE00000
07FFF00000
0FFFF80000
1FFFFC0000
07FFFC0000
03FFFE0000
01FFFF0000
00FFFF8000
007FFFC000
001FFFE000
000FFFC000
0007FF8000
0003FF0000
0001FE0000
00007C0000
0000380000
0000100000
0000000000
0000000000
0000000000
0000000000
0000000000
0001FFC000
001FFFF800
00FFFFFE00
03FFFFFF00
0FFFFFFFC0
3FFFFFFFC0
3FFFFFFFE0
1FFFFFFFF0
1FFFFFFFF0
0FFFFFFFF8
0FFFFFFFF8
07FFFFFFF8
07F807FFFC
03C001FFFC
030001FFFC
000000FFFC
000007FFFC
0000FFFFFC
000FFFFFFE
007FFFFFFE
01FFFFFFFE
03FFFFFFFE
0FFFFFFFFE
1FFFFFFFFE
3FFFFFFFFE
3FFFF8FFFE
7FFFC0FFFE
7FFF00FFFE
7FFE00FFFE
FFFE00FFFE
FFFC00FFFE
FFFE01FFFE
FFFE03FFFE
FFFF9FFFFE
7FFFFFFFFE
7FFFFFFFFE
7FFFFFFFFE
7FFFFFFFFE
3FFFFFFFFE
1FFFFFFFFE
1FFFFF3FFE
0FFFFE3FFE
07FFFC3FFE
01FFF03FFE
007F800000
ENDCHAR
STARTCHAR 00E1
ENCODING 225
SWIDTH 534 0
DWIDTH 46 0
BBX 39 73 3 0
BITMAP
0000000C00
0000000E00
0000001F00
0000003F80
0000007FC0
000000FFE0
000001FFF0
000003FFFC
000003FFFE
000007FFFE
00000FFFFC
00001FFFF8
00003FFFE0
00007FFFC0
00007FFF80
0000FFFF00
00007FFE00
00003FF800
00001FF000
00000FE000
000007C000
0000038000
0000000000
0000000000
0000000000
0000000000
0000000000
0000000000
0001FFC000
001FFFF800
00FFFFFE00
03FFFFFF00
0FFFFFFFC0
3FFFFFFFC0
3FFFFFFFE0
1FFFFFFFF0
1FFFFFFFF0
0FFFFFFFF8
0FFFFFFFF8
07FFFFFFF8
07F807FFFC
03C001FFFC
030001FFFC
000000FFFC
000007FFFC
0000FFFFFC
000FFFFFFE
007FFFFFFE
01FFFFFFFE
03FFFFFFFE
0FFFFFFFFE
1FFFFFFFFE
3FFFFFFFFE
3FFFF8FFFE
7FFFC0FFFE
7FFF00FFFE
7FFE00FFFE
FFFE00FFFE
FFFC00FFFE
FFFE01FFFE
FFFE03FFFE
FFFF9FFFFE
7FFFFFFFFE
7FFFFFFFFE
7FFFFFFFFE
7FFFFFFFFE
3FFFFFFFFE
1FFFFFFFFE
1FFFFF3FFE
0FFFFE3FFE
07FFFC3FFE
01FFF03FFE
007F800000
ENDCHAR
STARTCHAR 00E2
ENCODING 226
SWIDTH 534 0
DWIDTH 46 0
BBX 39 65 3 -1
BITMAP
0007FFF800
000FFFFC00
000FFFFE00
001FFFFF00
003FFFFF80
007FFFFF80
00FFFFFFC0
01FFFFFFE0
01FFFFFFF0
03FFF3FFF8
07FFE0FFF8
07FF807FF8
03FF001FF0
01FC000FE0
00F00003C0
0060000180
0000000000
0000000000
0000000000
0000000000
0001FFC000
001FFFF800
00FFFFFE00
03FFFFFF00
0FFFFFFFC0
3FFFFFFFC0
3FFFFFFFE0
1FFFFFFFF0
1FFFFFFFF0
0FFFFFFFF8
0FFFFFFFF8
07FFFFFFF8
07F807FFFC
03C001FFFC
030001FFFC
000000FFFC
000007FFFC
0000FFFFFC
000FFFFFFE
007FFFFFFE
01FFFFFFFE
03FFFFFFFE
0FFFFFFFFE
1FFFFFFFFE
3FFFFFFFFE
3FFFF8FFFE
7FFFC0FFFE
7FFF00FFFE
7FFE00FFFE
FFFE00FFFE
FFFC00FFFE
FFFE01FFFE
FFFE03FFFE
FFFF9FFFFE
7FFFFFFFFE
7FFFFFFFFE
7FFFFFFFFE
7FFFFFFFFE
3FFFFFFFFE
1FFFFFFFFE
1FFFFF3FFE
0FFFFE3FFE
07FFFC3FFE
01FFF03FFE
007F800000
ENDCHAR
STARTCHAR 00E3
ENCODING 227
SWIDTH 534 0
DWIDTH 46 0
BBX 39 65 3 -1
BITMAP
001FE00000
007FF807FC
00FFFC07FC
01FFFF0FFC
03FFFF8FFC
03FFFFFFFC
03FFFFFFFC
07FFFFFFF8
07FFFFFFF8
07FFFFFFF0
07FE7FFFF0
0FFC1FFFE0
0FFC0FFFC0
07FC03FF80
000000FE00
0000000000
0000000000
0000000000
0000000000
0000000000
0001FFC000
001FFFF800
00FFFFFE00
03FFFFFF00
0FFFFFFFC0
3FFFFFFFC0
3FFFFFFFE0
1FFFFFFFF0
1FFFFFFFF0
0FFFFFFFF8
0FFFFFFFF8
07FFFFFFF8
07F807FFFC
03C001FFFC
030001FFFC
000000FFFC
000007FFFC
0000FFFFFC
000FFFFFFE
007FFFFFFE
01FFFFFFFE
03FFFFFFFE
0FFFFFFFFE
1FFFFFFFFE
3FFFFFFFFE
3FFFF8FFFE
7FFFC0FFFE
7FFF00FFFE
7FFE00FFFE
FFFE00FFFE
FFFC00FFFE
FFFE01FFFE
FFFE03FFFE
FFFF9FFFFE
7FFFFFFFFE
7FFFFFFFFE
7FFFFFFFFE
7FFFFFFFFE
3FFFFFFFFE
1FFFFFFFFE
1FFFFF3FFE
0FFFFE3FFE
07FFFC3FFE
01FFF03FFE
007F800000
ENDCHAR
STARTCHAR 00E4
ENCODING 228
SWIDTH 534 0
DWIDTH 46 0
BBX 39 63 3 -1
BITMAP
007C000FC0
01FF001FE0
03FF803FF0
07FFC07FF8
07FFC07FFC
07FFC0FFFC
07FFC0FFFC
07FFC0FFFC
07FFC0FFFC
07FFC07FF8
07FF807FF8
03FF803FF0
01FE001FE0
0078000780
0000000000
0000000000
0000000000
0000000000
0001FFC000
001FFFF800
00FFFFFE00
03FFFFFF00
0FFFFFFFC0
3FFFFFFFC0
3FFFFFFFE0
1FFFFFFFF0
1FFFFFFFF0
0FFFFFFFF8
0FFFFFFFF8
07FFFFFFF8
07F807FFFC
03C001FFFC
030001FFFC
000000FFFC
000007FFFC
0000FFFFFC
000FFFFFFE
007FFFFFFE
01FFFFFFFE
03FFFFFFFE
0FFFFFFFFE
1FFFFFFFFE
3FFFFFFFFE
3FFFF8FFFE
7FFFC0FFFE
7FFF00FFFE
7FFE00FFFE
FFFE00FFFE
FFFC00FFFE
FFFE01FFFE
FFFE03FFFE
FFFF9FFFFE
7FFFFFFFFE
7FFFFFFFFE
7FFFFFFFFE
7FFFFFFFFE
3FFFFFFFFE
1FFFFFFFFE
1FFFFF3FFE
0FFFFE3FFE
07FFFC3FFE
01FFF03FFE
007F800000
ENDCHAR
STARTCHAR 00E5
ENCODING 229
SWIDTH 534 0
DWIDTH 46 0
BBX 39 68 3 -1
BITMAP
00007FC000
0003FFF000
000FFFFC00
001FFFFE00
001FFFFF00
003FF3FF00
003FE0FF80
007FC0FF80
007FC0FF80
007FC0FF80
007FC0FF80
007FE0FF80
003FF1FF80
003FFFFF00
001FFFFE00
000FFFFC00
0007FFF800
0000FFE000
0000000000
0000000000
0000000000
0000000000
0000000000
0001FFC000
001FFFF800
00FFFFFE00
03FFFFFF00
0FFFFFFFC0
3FFFFFFFC0
3FFFFFFFE0
1FFFFFFFF0
1FFFFFFFF0
0FFFFFFFF8
0FFFFFFFF8
07FFFFFFF8
07F807FFFC
03C001FFFC
030001FFFC
000000FFFC
000007FFFC
0000FFFFFC
000FFFFFFE
007FFFFFFE
01FFFFFFFE
03FFFFFFFE
0FFFFFFFFE
1FFFFFFFFE
3FFFFFFFFE
3FFFF8FFFE
7FFFC0FFFE
7FFF00FFFE
7FFE00FFFE
FFFE00FFFE
FFFC00FFFE
FFFE01FFFE
FFFE03FFFE
FFFF9FFFFE
7FFFFFFFFE
7FFFFFFFFE
7FFFFFFFFE
7FFFFFFFFE
3FFFFFFFFE
1FFFFFFFFE
1FFFFF3FFE
0FFFFE3FFE
07FFFC3FFE
01FFF03FFE
007F800000
ENDCHAR
STARTCHAR 00E6
ENCODING 230
SWIDTH 789 0
DWIDTH 68 0
BBX 61 45 4 -1
BITMAP
0003FE0001FF0000
003FFFC007FFE000
01FFFFF01FFFF000
07FFFFF87FFFFC00
1FFFFFFCFFFFFE00
7FFFFFFFFFFFFF00
7FFFFFFFFFFFFF80
3FFFFFFFFFFFFF80
3FFFFFFFFFFFFFC0
1FFFFFFFFFFFFFC0
0FFFFFFFFFFFFFE0
0FFFFFFFFF8FFFE0
07F007FFFE03FFE0
07C003FFFC01FFF0
030003FFF801FFF0
000001FFF800FFF0
00000FFFF800FFF0
0003FFFFF000FFF0
001FFFFFFFFFFFF8
00FFFFFFFFFFFFF8
03FFFFFFFFFFFFF8
07FFFFFFFFFFFFF8
0FFFFFFFFFFFFFF8
1FFFFFFFFFFFFFF8
3FFFFFFFFFFFFFF0
7FFFF1FFFFFFFFF0
7FFF81FFFFFFFFF0
FFFE01FFF0000000
FFFC01FFF8000000
FFFC01FFF8000000
FFFC00FFFC000000
FFFC01FFFE000E00
FFFC03FFFF803E00
FFFF9FFFFFFFFF00
FFFFFFFFFFFFFF00
FFFFFFFFFFFFFF80
FFFFFFFFFFFFFF80
7FFFFFFFFFFFFFC0
7FFFFFFFFFFFFFC0
3FFFFFF7FFFFFFE0
1FFFFFC1FFFFFFC0
1FFFFF80FFFFFF80
07FFFE007FFFFE00
03FFF8001FFFF000
007FC00001FF0000
ENDCHAR
STARTCHAR 00E7
ENCODING 231
SWIDTH 476 0
DWIDTH 41 0
BBX 36 65 3 -21
BITMAP
00003FE000
0003FFFE00
000FFFFF80
003FFFFFC0
007FFFFFE0
01FFFFFFE0
03FFFFFFC0
07FFFFFF80
0FFFFFFF00
0FFFFFFF00
1FFFFFFE00
3FFFFFFC00
3FFFF03C00
3FFFE00800
7FFF800000
7FFF800000
7FFF000000
FFFF000000
FFFE000000
FFFE000000
FFFE000000
FFFE000000
FFFE000000
FFFE000000
FFFE000000
FFFE000000
FFFE000000
FFFF000000
FFFF000000
7FFF800000
7FFF800000
7FFFC00600
3FFFF01E00
3FFFFFFF00
3FFFFFFF00
1FFFFFFF80
0FFFFFFFC0
0FFFFFFFC0
07FFFFFFE0
03FFFFFFE0
01FFFFFFF0
007FFFFFC0
003FFFFF80
000FFFFE00
0001FFF000
00007FC000
0000FF8000
0000FF8000
0001FF0000
0001FF0000
0003FFE000
0003FFF800
0003FFFC00
00003FFC00
00000FFC00
00000FFC00
00000FFC00
00001FFC00
00003FFC00
001FFFF800
000FFFF800
000FFFE000
000FFFC000
000FFE0000
000FC00000
ENDCHAR
STARTCHAR 00E8
ENCODING 232
SWIDTH 522 0
DWIDTH 45 0
BBX 39 73 3 0
BITMAP
0018000000
003C000000
007E000000
00FF000000
01FF800000
03FF800000
07FFC00000
0FFFE00000
1FFFF00000
1FFFF80000
0FFFFC0000
07FFFC0000
03FFFE0000
01FFFF0000
007FFF8000
003FFFC000
001FFF8000
000FFF0000
0007FE0000
0001FC0000
0000F80000
0000700000
0000200000
0000000000
0000000000
0000000000
0000000000
0000000000
0000FF8000
0007FFF000
001FFFFE00
007FFFFF00
00FFFFFF80
01FFFFFFC0
03FFFFFFE0
07FFFFFFF0
0FFFFFFFF0
1FFFFFFFF8
1FFFFFFFF8
3FFFE1FFFC
3FFF807FFC
7FFF003FFC
7FFE003FFE
7FFC003FFE
FFFC001FFE
FFFFFFFFFE
FFFFFFFFFE
FFFFFFFFFE
FFFFFFFFFE
FFFFFFFFFE
FFFFFFFFFE
FFFFFFFFFE
FFFFFFFFFE
FFFFFFFFFE
FFFFFFFFFE
FFFC000000
FFFE000000
7FFE000000
7FFF000000
7FFF800080
3FFFC003C0
3FFFF81FC0
1FFFFFFFE0
1FFFFFFFE0
0FFFFFFFF0
07FFFFFFF0
03FFFFFFF8
01FFFFFFF8
00FFFFFFF8
007FFFFFE0
001FFFFF80
0007FFFE00
00007FE000
ENDCHAR
STARTCHAR 00E9
ENCODING 233
SWIDTH 522 0
DWIDTH 45 0
BBX 39 74 3 -1
BITMAP
0000000800
0000000C00
0000001E00
0000003F00
0000007F80
000000FFC0
000001FFE0
000001FFF0
000003FFF8
000007FFFC
00000FFFFC
00001FFFF8
00003FFFF0
00003FFFE0
00007FFF80
0000FFFF00
0001FFFE00
0000FFFC00
00007FF800
00003FE000
00001FC000
00000F8000
0000070000
0000020000
0000000000
0000000000
0000000000
0000000000
0000000000
0000FF8000
0007FFF000
001FFFFE00
007FFFFF00
00FFFFFF80
01FFFFFFC0
03FFFFFFE0
07FFFFFFF0
0FFFFFFFF0
1FFFFFFFF8
1FFFFFFFF8
3FFFE1FFFC
3FFF807FFC
7FFF003FFC
7FFE003FFE
7FFC003FFE
FFFC001FFE
FFFFFFFFFE
FFFFFFFFFE
FFFFFFFFFE
FFFFFFFFFE
FFFFFFFFFE
FFFFFFFFFE
FFFFFFFFFE
FFFFFFFFFE
FFFFFFFFFE
FFFFFFFFFE
FFFC000000
FFFE000000
7FFE000000
7FFF000000
7FFF800080
3FFFC003C0
3FFFF81FC0
1FFFFFFFE0
1FFFFFFFE0
0FFFFFFFF0
07FFFFFFF0
03FFFFFFF8
01FFFFFFF8
00FFFFFFF8
007FFFFFE0
001FFFFF80
0007FFFE00
00007FE000
ENDCHAR
STARTCHAR 00EA
ENCODING 234
SWIDTH 522 0
DWIDTH 45 0
BBX 39 65 3 -1
BITMAP
000FFFF000
000FFFF800
001FFFFC00
003FFFFE00
007FFFFF00
00FFFFFF80
01FFFFFF80
01FFFFFFC0
03FFFFFFE0
07FFE7FFF0
0FFFC1FFF8
0FFF00FFF8
07FE003FE0
03F8000FC0
01F0000780
0040000100
0000000000
0000000000
0000000000
0000000000
0000FF8000
0007FFF000
001FFFFE00
007FFFFF00
00FFFFFF80
01FFFFFFC0
03FFFFFFE0
07FFFFFFF0
0FFFFFFFF0
1FFFFFFFF8
1FFFFFFFF8
3FFFE1FFFC
3FFF807FFC
7FFF003FFC
7FFE003FFE
7FFC003FFE
FFFC001FFE
FFFFFFFFFE
FFFFFFFFFE
FFFFFFFFFE
FFFFFFFFFE
FFFFFFFFFE
FFFFFFFFFE
FFFFFFFFFE
FFFFFFFFFE
FFFFFFFFFE
FFFFFFFFFE
FFFC000000
FFFE000000
7FFE000000
7FFF000000
7FFF800080
3FFFC003C0
3FFFF81FC0
1FFFFFFFE0
1FFFFFFFE0
0FFFFFFFF0
07FFFFFFF0
03FFFFFFF8
01FFFFFFF8
00FFFFFFF8
007FFFFFE0
001FFFFF80
0007FFFE00
00007FE000
ENDCHAR
STARTCHAR 00EB
ENCODING 235
SWIDTH 522 0
DWIDTH 45 0
BBX 39 63 3 -1
BITMAP
00F8000F80
03FE003FE0
07FF007FF0
07FF80FFF0
0FFF80FFF8
0FFF81FFF8
0FFF81FFF8
0FFF81FFF8
0FFF80FFF8
0FFF80FFF8
07FF80FFF0
07FF007FE0
03FE003FC0
0070000F00
0000000000
0000000000
0000000000
0000000000
0000FF8000
0007FFF000
001FFFFE00
007FFFFF00
00FFFFFF80
01FFFFFFC0
03FFFFFFE0
07FFFFFFF0
0FFFFFFFF0
1FFFFFFFF8
1FFFFFFFF8
3FFFE1FFFC
3FFF807FFC
7FFF003FFC
7FFE003FFE
7FFC003FFE
FFFC001FFE
FFFFFFFFFE
FFFFFFFFFE
FFFFFFFFFE
FFFFFFFFFE
FFFFFFFFFE
FFFFFFFFFE
FFFFFFFFFE
FFFFFFFFFE
FFFFFFFFFE
FFFFFFFFFE
FFFC000000
FFFE000000
7FFE000000
7FFF000000
7FFF800080
3FFFC003C0
3FFFF81FC0
1FFFFFFFE0
1FFFFFFFE0
0FFFFFFFF0
07FFFFFFF0
03FFFFFFF8
01FFFFFFF8
00FFFFFFF8
007FFFFFE0
001FFFFF80
0007FFFE00
00007FE000
ENDCHAR
STARTCHAR 00EC
ENCODING 236
SWIDTH 290 0
DWIDTH 25 0
BBX 25 72 -5 1
BITMAP
00C00000
01E00000
03F00000
07F80000
0FFC0000
1FFC0000
3FFE0000
7FFF0000
FFFF8000
FFFFC000
7FFFE000
3FFFE000
1FFFF000
0FFFF800
03FFFC00
01FFFE00
00FFFC00
007FF800
003FF000
000FE000
0007C000
00038000
00010000
00000000
00000000
00000000
00000000
00000000
00000000
003FFF80
003FFF80
003FFF80
003FFF80
003FFF80
003FFF80
003FFF80
003FFF80
003FFF80
003FFF80
003FFF80
003FFF80
003FFF80
003FFF80
003FFF80
003FFF80
003FFF80
003FFF80
003FFF80
003FFF80
003FFF80
003FFF80
003FFF80
003FFF80
003FFF80
003FFF80
003FFF80
003FFF80
003FFF80
003FFF80
003FFF80
003FFF80
003FFF80
003FFF80
003FFF80
003FFF80
003FFF80
003FFF80
003FFF80
003FFF80
003FFF80
003FFF80
003FFF80
ENDCHAR
STARTCHAR 00ED
ENCODING 237
SWIDTH 290 0
DWIDTH 25 0
BBX 25 73 5 0
BITMAP
00010000
00018000
0003C000
0007E000
000FF000
001FF800
003FFC00
003FFE00
007FFF00
00FFFF80
01FFFF80
03FFFF00
07FFFE00
0FFFFC00
0FFFF000
1FFFE000
3FFFC000
1FFF8000
0FFE0000
07FC0000
03F80000
01F00000
00E00000
00000000
00000000
00000000
00000000
00000000
00000000
00000000
FFFE0000
FFFE0000
FFFE0000
FFFE0000
FFFE0000
FFFE0000
FFFE0000
FFFE0000
FFFE0000
FFFE0000
FFFE0000
FFFE0000
FFFE0000
FFFE0000
FFFE0000
FFFE0000
FFFE0000
FFFE0000
FFFE0000
FFFE0000
FFFE0000
FFFE0000
FFFE0000
FFFE0000
FFFE0000
FFFE0000
FFFE0000
FFFE0000
FFFE0000
FFFE0000
FFFE0000
FFFE0000
FFFE0000
FFFE0000
FFFE0000
FFFE0000
FFFE0000
FFFE0000
FFFE0000
FFFE0000
FFFE0000
FFFE0000
FFFE0000
ENDCHAR
STARTCHAR 00EE
ENCODING 238
SWIDTH 290 0
DWIDTH 25 0
BBX 33 64 -4 0
BITMAP
00FFFF0000
00FFFF8000
01FFFFC000
03FFFFE000
07FFFFF000
0FFFFFF800
1FFFFFF800
1FFFFFFC00
3FFFFFFE00
7FFE7FFF00
FFFC1FFF80
FFF00FFF80
7FE003FE00
3F8000FC00
1F00007800
0400001000
0000000000
0000000000
0000000000
0000000000
0000000000
007FFF0000
007FFF0000
007FFF0000
007FFF0000
007FFF0000
007FFF0000
007FFF0000
007FFF0000
007FFF0000
007FFF0000
007FFF0000
007FFF0000
007FFF0000
007FFF0000
007FFF0000
007FFF0000
007FFF0000
007FFF0000
007FFF0000
007FFF0000
007FFF0000
007FFF0000
007FFF0000
007FFF0000
007FFF0000
007FFF0000
007FFF0000
007FFF0000
007FFF0000
007FFF0000
007FFF0000
007FFF0000
007FFF0000
007FFF0000
007FFF0000
007FFF0000
007FFF0000
007FFF0000
007FFF0000
007FFF0000
007FFF0000
007FFF0000
007FFF0000
ENDCHAR
STARTCHAR 00EF
ENCODING 239
SWIDTH 290 0
DWIDTH 25 0
BBX 33 62 -4 0
BITMAP
0F8000F800
3FE003FE00
7FF007FF00
7FF80FFF00
FFF80FFF80
FFF81FFF80
FFF81FFF80
FFF81FFF80
FFF81FFF80
FFF80FFF80
7FF80FFF00
7FF007FE00
3FE003FC00
070000F000
0000000000
0000000000
0000000000
0000000000
0000000000
007FFF0000
007FFF0000
007FFF0000
007FFF0000
007FFF0000
007FFF0000
007FFF0000
007FFF0000
007FFF0000
007FFF0000
007FFF0000
007FFF0000
007FFF0000
007FFF0000
007FFF0000
007FFF0000
007FFF0000
007FFF0000
007FFF0000
007FFF0000
007FFF0000
007FFF0000
007FFF0000
007FFF0000
007FFF0000
007FFF0000
007FFF0000
007FFF0000
007FFF0000
007FFF0000
007FFF0000
007FFF0000
007FFF0000
007FFF0000
007FFF0000
007FFF0000
007FFF0000
007FFF0000
007FFF0000
007FFF0000
007FFF0000
007FFF0000
007FFF0000
ENDCHAR
STARTCHAR 00F0
ENCODING 240
SWIDTH 569 0
DWIDTH 49 0
BBX 42 65 3 -1
BITMAP
000C00000000
001F00003800
003FC000FC00
007FE003FC00
007FF80FFE00
00FFFE3FFE00
01FFFFFFFF00
01FFFFFFFE00
03FFFFFFF800
00FFFFFFE000
003FFFFF8000
001FFFFE0000
000FFFFE0000
003FFFFF0000
007FFFFF8000
01FFFFFF8000
07FFFFFFC000
1FFFFFFFE000
0FFF8FFFF000
07FE07FFF000
07F803FFF800
03E001FFF800
038001FFFC00
000000FFFC00
0003F87FFE00
001FFF7FFE00
007FFFFFFF00
00FFFFFFFF00
01FFFFFFFF00
03FFFFFFFF00
07FFFFFFFF80
0FFFFFFFFF80
1FFFFFFFFF80
1FFFFFFFFF80
3FFFFFFFFF80
3FFFC0FFFFC0
7FFF003FFFC0
7FFE001FFFC0
7FFE000FFFC0
7FFC000FFFC0
7FFC000FFFC0
FFFC000FFFC0
FFFC000FFFC0
FFFC000FFFC0
FFFC000FFFC0
FFFC000FFF80
FFFC000FFF80
7FFC001FFF80
7FFE001FFF80
7FFE001FFF80
7FFF003FFF00
7FFF807FFF00
3FFFC0FFFF00
3FFFFFFFFE00
1FFFFFFFFE00
1FFFFFFFFC00
0FFFFFFFF800
07FFFFFFF800
07FFFFFFF000
03FFFFFFE000
00FFFFFFC000
007FFFFF0000
001FFFFE0000
0007FFF80000
0000FF800000
ENDCHAR
STARTCHAR 00F1
ENCODING 241
SWIDTH 580 0
DWIDTH 50 0
BBX 40 64 5 0
BITMAP
000FF00000
003FFC03FE
007FFE03FE
00FFFF87FE
01FFFFCFFE
01FFFFFFFE
03FFFFFFFC
03FFFFFFFC
03FFFFFFFC
03FFFFFFF8
07FE3FFFF8
07FE0FFFF0
07FE07FFE0
03FC01FFC0
0000007E00
0000000000
0000000000
0000000000
0000000000
0000000000
000001FE00
FFF00FFFC0
FFF03FFFE0
FFF87FFFF0
FFF9FFFFF8
FFFBFFFFFC
FFFFFFFFFC
FFFFFFFFFE
FFFFFFFFFE
FFFFFFFFFF
FFFFFFFFFF
FFFFFFFFFF
FFFFFFFFFF
FFFFC0FFFF
FFFF007FFF
FFFE007FFF
FFFE007FFF
FFFE003FFF
FFFE003FFF
FFFE003FFF
FFFE003FFF
FFFE003FFF
FFFE003FFF
FFFE003FFF
FFFE003FFF
FFFE003FFF
FFFE003FFF
FFFE003FFF
FFFE003FFF
FFFE003FFF
FFFE003FFF
FFFE003FFF
FFFE003FFF
FFFE003FFF
FFFE003FFF
FFFE003FFF
FFFE003FFF
FFFE003FFF
FFFE003FFF
FFFE003FFF
FFFE003FFF
FFFE003FFF
FFFE003FFF
FFFE003FFF
ENDCHAR
STARTCHAR 00F2
ENCODING 242
SWIDTH 557 0
DWIDTH 48 0
BBX 42 73 3 0
BITMAP
000C00000000
001E00000000
003F00000000
007F00000000
00FF80000000
01FFC0000000
03FFE0000000
07FFF0000000
0FFFF8000000
1FFFF8000000
07FFFC000000
03FFFE000000
01FFFF000000
00FFFF800000
007FFFC00000
001FFFE00000
000FFFC00000
0007FF800000
0003FF000000
0001FE000000
00007C000000
000038000000
000010000000
000000000000
000000000000
000000000000
000000000000
000000000000
00007FC00000
0007FFF80000
001FFFFE0000
007FFFFF8000
00FFFFFFC000
01FFFFFFF000
03FFFFFFF800
07FFFFFFF800
0FFFFFFFFC00
1FFFFFFFFE00
1FFFFFFFFF00
3FFFFFFFFF00
3FFFE0FFFF80
7FFF807FFF80
7FFF803FFF80
7FFF003FFFC0
FFFF001FFFC0
FFFE001FFFC0
FFFE001FFFC0
FFFE001FFFC0
FFFE001FFFC0
FFFE001FFFC0
FFFE001FFFC0
FFFE001FFFC0
FFFE001FFFC0
FFFE001FFFC0
FFFE001FFFC0
FFFE001FFFC0
FFFF001FFFC0
7FFF003FFFC0
7FFF803FFF80
7FFF807FFF80
3FFFE0FFFF00
3FFFFFFFFF00
1FFFFFFFFE00
1FFFFFFFFE00
0FFFFFFFFC00
07FFFFFFF800
03FFFFFFF000
01FFFFFFE000
00FFFFFFC000
007FFFFF8000
001FFFFE0000
0007FFF80000
00007FC00000
ENDCHAR
STARTCHAR 00F3
ENCODING 243
SWIDTH 557 0
DWIDTH 48 0
BBX 42 73 3 0
BITMAP
0000000C0000
0000001E0000
0000001F0000
0000003F8000
0000007FC000
000000FFE000
000001FFF000
000003FFF800
000003FFFC00
000007FFFE00
00000FFFFC00
00001FFFF000
00003FFFE000
00007FFFC000
00007FFF8000
0000FFFF0000
0000FFFC0000
00007FF80000
00003FF00000
00001FE00000
00000FC00000
000007000000
000002000000
000000000000
000000000000
000000000000
000000000000
000000000000
00007FC00000
0007FFF80000
001FFFFE0000
007FFFFF8000
00FFFFFFC000
01FFFFFFF000
03FFFFFFF800
07FFFFFFF800
0FFFFFFFFC00
1FFFFFFFFE00
1FFFFFFFFF00
3FFFFFFFFF00
3FFFE0FFFF80
7FFF807FFF80
7FFF803FFF80
7FFF003FFFC0
FFFF001FFFC0
FFFE001FFFC0
FFFE001FFFC0
FFFE001FFFC0
FFFE001FFFC0
FFFE001FFFC0
FFFE001FFFC0
FFFE001FFFC0
FFFE001FFFC0
FFFE001FFFC0
FFFE001FFFC0
FFFE001FFFC0
FFFF001FFFC0
7FFF003FFFC0
7FFF803FFF80
7FFF807FFF80
3FFFE0FFFF00
3FFFFFFFFF00
1FFFFFFFFE00
1FFFFFFFFE00
0FFFFFFFFC00
07FFFFFFF800
03FFFFFFF000
01FFFFFFE000
00FFFFFFC000
007FFFFF8000
001FFFFE0000
0007FFF80000
00007FC00000
ENDCHAR
STARTCHAR 00F4
ENCODING 244
SWIDTH 557 0
DWIDTH 48 0
BBX 42 65 3 -1
BITMAP
0007FFF80000
000FFFFC0000
001FFFFE0000
001FFFFF0000
003FFFFF0000
007FFFFF8000
00FFFFFFC000
01FFFFFFE000
03FFFFFFF000
03FFF3FFF800
07FFE0FFF800
07FF807FF800
03FE001FF000
01FC000FE000
00F00003C000
006000018000
000000000000
000000000000
000000000000
000000000000
00007FC00000
0007FFF80000
001FFFFE0000
007FFFFF8000
00FFFFFFC000
01FFFFFFF000
03FFFFFFF800
07FFFFFFF800
0FFFFFFFFC00
1FFFFFFFFE00
1FFFFFFFFF00
3FFFFFFFFF00
3FFFE0FFFF80
7FFF807FFF80
7FFF803FFF80
7FFF003FFFC0
FFFF001FFFC0
FFFE001FFFC0
FFFE001FFFC0
FFFE001FFFC0
FFFE001FFFC0
FFFE001FFFC0
FFFE001FFFC0
FFFE001FFFC0
FFFE001FFFC0
FFFE001FFFC0
FFFE001FFFC0
FFFE001FFFC0
FFFF001FFFC0
7FFF003FFFC0
7FFF803FFF80
7FFF807FFF80
3FFFE0FFFF00
3FFFFFFFFF00
1FFFFFFFFE00
1FFFFFFFFE00
0FFFFFFFFC00
07FFFFFFF800
03FFFFFFF000
01FFFFFFE000
00FFFFFFC000
007FFFFF8000
001FFFFE0000
0007FFF80000
00007FC00000
ENDCHAR
STARTCHAR 00F5
ENCODING 245
SWIDTH 557 0
DWIDTH 48 0
BBX 42 65 3 -1
BITMAP
001FE0000000
007FF807FC00
00FFFC07FC00
01FFFF0FFC00
03FFFF8FFC00
03FFFFFFFC00
07FFFFFFF800
07FFFFFFF800
07FFFFFFF800
07FFFFFFF000
0FFE7FFFF000
0FFC1FFFE000
0FFC0FFFC000
07F803FF8000
000000FC0000
000000000000
000000000000
000000000000
000000000000
000000000000
00007FC00000
0007FFF80000
001FFFFE0000
007FFFFF8000
00FFFFFFC000
01FFFFFFF000
03FFFFFFF800
07FFFFFFF800
0FFFFFFFFC00
1FFFFFFFFE00
1FFFFFFFFF00
3FFFFFFFFF00
3FFFE0FFFF80
7FFF807FFF80
7FFF803FFF80
7FFF003FFFC0
FFFF001FFFC0
FFFE001FFFC0
FFFE001FFFC0
FFFE001FFFC0
FFFE001FFFC0
FFFE001FFFC0
FFFE001FFFC0
FFFE001FFFC0
FFFE001FFFC0
FFFE001FFFC0
FFFE001FFFC0
FFFE001FFFC0
FFFF001FFFC0
7FFF003FFFC0
7FFF803FFF80
7FFF807FFF80
3FFFE0FFFF00
3FFFFFFFFF00
1FFFFFFFFE00
1FFFFFFFFE00
0FFFFFFFFC00
07FFFFFFF800
03FFFFFFF000
01FFFFFFE000
00FFFFFFC000
007FFFFF8000
001FFFFE0000
0007FFF80000
00007FC00000
ENDCHAR
STARTCHAR 00F6
ENCODING 246
SWIDTH 557 0
DWIDTH 48 0
BBX 42 63 3 -1
BITMAP
007C000FC000
01FF001FE000
03FF803FF000
07FF807FF800
07FFC0FFF800
07FFC0FFFC00
0FFFC0FFFC00
0FFFC0FFFC00
07FFC0FFFC00
07FFC0FFF800
07FF807FF800
03FF003FF000
01FE001FE000
007800078000
000000000000
000000000000
000000000000
000000000000
00007FC00000
0007FFF80000
001FFFFE0000
007FFFFF8000
00FFFFFFC000
01FFFFFFF000
03FFFFFFF800
07FFFFFFF800
0FFFFFFFFC00
1FFFFFFFFE00
1FFFFFFFFF00
3FFFFFFFFF00
3FFFE0FFFF80
7FFF807FFF80
7FFF803FFF80
7FFF003FFFC0
FFFF001FFFC0
FFFE001FFFC0
FFFE001FFFC0
FFFE001FFFC0
FFFE001FFFC0
FFFE001FFFC0
FFFE001FFFC0
FFFE001FFFC0
FFFE001FFFC0
FFFE001FFFC0
FFFE001FFFC0
FFFE001FFFC0
FFFF001FFFC0
7FFF003FFFC0
7FFF803FFF80
7FFF807FFF80
3FFFE0FFFF00
3FFFFFFFFF00
1FFFFFFFFE00
1FFFFFFFFE00
0FFFFFFFFC00
07FFFFFFF800
03FFFFFFF000
01FFFFFFE000
00FFFFFFC000
007FFFFF8000
001FFFFE0000
0007FFF80000
00007FC00000
ENDCHAR
STARTCHAR 00F7
ENCODING 247
SWIDTH 545 0
DWIDTH 47 0
BBX 41 45 3 6
BITMAP
00007F000000
0001FFC00000
0003FFE00000
0007FFE00000
0007FFF00000
000FFFF00000
000FFFF00000
000FFFF00000
000FFFF00000
0007FFF00000
0007FFE00000
0003FFE00000
0001FFC00000
0000FF000000
000000000000
000000000000
000000000000
FFFFFFFFFF80
FFFFFFFFFF80
FFFFFFFFFF80
FFFFFFFFFF80
FFFFFFFFFF80
FFFFFFFFFF80
FFFFFFFFFF80
FFFFFFFFFF80
FFFFFFFFFF80
FFFFFFFFFF80
FFFFFFFFFF80
000000000000
000000000000
000000000000
00007F000000
0001FFC00000
0003FFE00000
0007FFE00000
0007FFF00000
000FFFF00000
000FFFF00000
000FFFF00000
000FFFF00000
0007FFF00000
0007FFE00000
0003FFE00000
0001FFC00000
0000FF000000
ENDCHAR
STARTCHAR 00F8
ENCODING 248
SWIDTH 557 0
DWIDTH 48 0
BBX 42 47 3 -2
BITMAP
000000001800
00007FC03C00
0007FFF83F00
001FFFFE7F80
007FFFFFFF80
00FFFFFFFF00
01FFFFFFFE00
03FFFFFFFC00
07FFFFFFF800
0FFFFFFFFC00
1FFFFFFFFE00
1FFFFFFFFE00
3FFFF3FFFF00
3FFF807FFF00
7FFF00FFFF80
7FFF01FFFF80
7FFE03FFFFC0
FFFE03FFFFC0
FFFE07FFFFC0
FFFC0FFFFFC0
FFFC1FFFFFC0
FFFC3FEFFFC0
FFFC7FCFFFC0
FFFC7F8FFFC0
FFFCFF8FFFC0
FFFDFF0FFFC0
FFFFFE0FFFC0
FFFFFC0FFFC0
FFFFF80FFFC0
FFFFF81FFFC0
7FFFF01FFFC0
7FFFE01FFF80
7FFFC03FFF80
3FFF807FFF00
3FFFF3FFFF00
1FFFFFFFFE00
1FFFFFFFFE00
0FFFFFFFFC00
07FFFFFFF800
0FFFFFFFF000
1FFFFFFFE000
3FFFFFFFC000
7FFFFFFF8000
7F9FFFFE0000
1F07FFF80000
0F00FFC00000
060000000000
ENDCHAR
STARTCHAR 00F9
ENCODING 249
SWIDTH 580 0
DWIDTH 50 0
BBX 40 73 5 0
BITMAP
0018000000
003C000000
007E000000
00FE000000
01FF000000
03FF800000
07FFC00000
0FFFE00000
1FFFF00000
3FFFF00000
1FFFF80000
07FFFC0000
03FFFE0000
01FFFF0000
00FFFF8000
007FFF8000
001FFF8000
000FFF0000
0007FE0000
0003FC0000
0001F80000
0000700000
0000200000
0000000000
0000000000
0000000000
0000000000
0000000000
0000000000
FFFC007FFF
FFFC007FFF
FFFC007FFF
FFFC007FFF
FFFC007FFF
FFFC007FFF
FFFC007FFF
FFFC007FFF
FFFC007FFF
FFFC007FFF
FFFC007FFF
FFFC007FFF
FFFC007FFF
FFFC007FFF
FFFC007FFF
FFFC007FFF
FFFC007FFF
FFFC007FFF
FFFC007FFF
FFFC007FFF
FFFC007FFF
FFFC007FFF
FFFC007FFF
FFFC007FFF
FFFC007FFF
FFFC007FFF
FFFE007FFF
FFFE007FFF
FFFE00FFFF
FFFE00FFFF
FFFF03FFFF
FFFFFFFFFF
FFFFFFFFFF
FFFFFFFFFF
7FFFFFFFFF
7FFFFFFFFF
7FFFFFFFFF
3FFFFFDFFF
3FFFFF9FFF
1FFFFF1FFF
0FFFFE1FFF
07FFFC1FFF
03FFF00FFF
007F800000
ENDCHAR
STARTCHAR 00FA
ENCODING 250
SWIDTH 580 0
DWIDTH 50 0
BBX 40 73 5 0
BITMAP
0000001800
0000003C00
0000007E00
0000007F00
000000FF80
000001FFC0
000003FFE0
000007FFF0
00000FFFF8
00000FFFFC
00001FFFF0
00003FFFE0
00007FFFC0
0000FFFF80
0001FFFF00
0001FFFC00
0001FFF800
0000FFF000
00007FE000
00003FC000
00001F0000
00000E0000
0000040000
0000000000
0000000000
0000000000
0000000000
0000000000
0000000000
FFFC007FFF
FFFC007FFF
FFFC007FFF
FFFC007FFF
FFFC007FFF
FFFC007FFF
FFFC007FFF
FFFC007FFF
FFFC007FFF
FFFC007FFF
FFFC007FFF
FFFC007FFF
FFFC007FFF
FFFC007FFF
FFFC007FFF
FFFC007FFF
FFFC007FFF
FFFC007FFF
FFFC007FFF
FFFC007FFF
FFFC007FFF
FFFC007FFF
FFFC007FFF
FFFC007FFF
FFFC007FFF
FFFC007FFF
FFFE007FFF
FFFE007FFF
FFFE00FFFF
FFFE00FFFF
FFFF03FFFF
FFFFFFFFFF
FFFFFFFFFF
FFFFFFFFFF
7FFFFFFFFF
7FFFFFFFFF
7FFFFFFFFF
3FFFFFDFFF
3FFFFF9FFF
1FFFFF1FFF
0FFFFE1FFF
07FFFC1FFF
03FFF00FFF
007F800000
ENDCHAR
STARTCHAR 00FB
ENCODING 251
SWIDTH 580 0
DWIDTH 50 0
BBX 40 65 5 -1
BITMAP
000FFFF000
001FFFF800
003FFFFC00
007FFFFC00
007FFFFE00
00FFFFFF00
01FFFFFF80
03FFFFFFC0
07FFFFFFE0
07FFE7FFE0
0FFF83FFF0
0FFF00FFF0
07FC003FE0
03F8001FC0
01E0000780
00C0000300
0000000000
0000000000
0000000000
0000000000
0000000000
FFFC007FFF
FFFC007FFF
FFFC007FFF
FFFC007FFF
FFFC007FFF
FFFC007FFF
FFFC007FFF
FFFC007FFF
FFFC007FFF
FFFC007FFF
FFFC007FFF
FFFC007FFF
FFFC007FFF
FFFC007FFF
FFFC007FFF
FFFC007FFF
FFFC007FFF
FFFC007FFF
FFFC007FFF
FFFC007FFF
FFFC007FFF
FFFC007FFF
FFFC007FFF
FFFC007FFF
FFFC007FFF
FFFC007FFF
FFFE007FFF
FFFE007FFF
FFFE00FFFF
FFFE00FFFF
FFFF03FFFF
FFFFFFFFFF
FFFFFFFFFF
FFFFFFFFFF
7FFFFFFFFF
7FFFFFFFFF
7FFFFFFFFF
3FFFFFDFFF
3FFFFF9FFF
1FFFFF1FFF
0FFFFE1FFF
07FFFC1FFF
03FFF00FFF
007F800000
ENDCHAR
STARTCHAR 00FC
ENCODING 252
SWIDTH 580 0
DWIDTH 50 0
BBX 40 63 5 -1
BITMAP
00F8001F80
03FE007FC0
07FF00FFE0
0FFF00FFF0
0FFF81FFF0
1FFF81FFF8
1FFF81FFF8
1FFF81FFF8
1FFF81FFF8
0FFF81FFF0
0FFF00FFF0
07FE007FE0
03FC003FC0
00F0000F00
0000000000
0000000000
0000000000
0000000000
0000000000
FFFC007FFF
FFFC007FFF
FFFC007FFF
FFFC007FFF
FFFC007FFF
FFFC007FFF
FFFC007FFF
FFFC007FFF
FFFC007FFF
FFFC007FFF
FFFC007FFF
FFFC007FFF
FFFC007FFF
FFFC007FFF
FFFC007FFF
FFFC007FFF
FFFC007FFF
FFFC007FFF
FFFC007FFF
FFFC007FFF
FFFC007FFF
FFFC007FFF
FFFC007FFF
FFFC007FFF
FFFC007FFF
FFFC007FFF
FFFE007FFF
FFFE007FFF
FFFE00FFFF
FFFE00FFFF
FFFF03FFFF
FFFFFFFFFF
FFFFFFFFFF
FFFFFFFFFF
7FFFFFFFFF
7FFFFFFFFF
7FFFFFFFFF
3FFFFFDFFF
3FFFFF9FFF
1FFFFF1FFF
0FFFFE1FFF
07FFFC1FFF
03FFF00FFF
007F800000
ENDCHAR
STARTCHAR 00FD
ENCODING 253
SWIDTH 545 0
DWIDTH 47 0
BBX 44 88 1 -15
BITMAP
000000030000
000000078000
0000000FC000
0000001FE000
0000001FF000
0000003FF800
0000007FFC00
000000FFFE00
000001FFFF00
000003FFFF80
000003FFFE00
000007FFFC00
00000FFFF800
00001FFFF000
00003FFFC000
00007FFF8000
00003FFF0000
00001FFE0000
00000FFC0000
000007F00000
000003E00000
000001C00000
000000800000
000000000000
000000000000
000000000000
000000000000
000000000000
000000000000
FFFE0003FFF0
7FFE0003FFF0
7FFF0003FFF0
7FFF0003FFE0
3FFF0007FFE0
3FFF8007FFE0
1FFF8007FFC0
1FFF8007FFC0
1FFFC00FFFC0
0FFFC00FFF80
0FFFC00FFF80
07FFC00FFF80
07FFE01FFF00
07FFE01FFF00
03FFE01FFF00
03FFF03FFE00
01FFF03FFE00
01FFF03FFE00
01FFF83FFC00
00FFF87FFC00
00FFF87FFC00
007FF87FF800
007FFC7FF800
007FFC7FF800
003FFCFFF000
003FFCFFF000
001FFEFFF000
001FFEFFE000
001FFFFFE000
000FFFFFC000
000FFFFFC000
000FFFFFC000
0007FFFF8000
0007FFFF8000
0003FFFF8000
0003FFFF0000
0003FFFF0000
0001FFFF0000
0001FFFE0000
0000FFFE0000
0000FFFE0000
0000FFFC0000
0000FFFC0000
0000FFFC0000
0001FFF80000
0001FFF80000
0007FFF00000
03FFFFF00000
03FFFFE00000
03FFFFE00000
03FFFFC00000
07FFFFC00000
07FFFF800000
07FFFF000000
07FFFE000000
0FFFFC000000
0FFFF0000000
0FFFE0000000
03FE00000000
ENDCHAR
STARTCHAR 00FE
ENCODING 254
SWIDTH 580 0
DWIDTH 50 0
BBX 42 75 5 -15
BITMAP
FFFE00000000
FFFE00000000
FFFE00000000
FFFE00000000
FFFE00000000
FFFE00000000
FFFE00000000
FFFE00000000
FFFE00000000
FFFE00000000
FFFE00000000
FFFE00000000
FFFE00000000
FFFE00000000
FFFE00000000
FFFE00000000
FFFE07F80000
FFFE3FFE0000
FFFEFFFF8000
FFFDFFFFE000
FFFFFFFFF000
FFFFFFFFF800
FFFFFFFFFC00
FFFFFFFFFC00
FFFFFFFFFE00
FFFFFFFFFE00
FFFFFFFFFF00
FFFFFFFFFF00
FFFFC1FFFF80
FFFF00FFFF80
FFFE007FFF80
FFFE003FFF80
FFFE003FFF80
FFFE003FFFC0
FFFE003FFFC0
FFFE001FFFC0
FFFE001FFFC0
FFFE001FFFC0
FFFE001FFFC0
FFFE001FFFC0
FFFE001FFFC0
FFFE003FFFC0
FFFE003FFFC0
FFFE003FFF80
FFFE003FFF80
FFFE007FFF80
FFFE007FFF80
FFFF00FFFF00
FFFFC1FFFF00
FFFFFFFFFF00
FFFFFFFFFE00
FFFFFFFFFE00
FFFFFFFFFC00
FFFFFFFFF800
FFFFFFFFF800
FFFFFFFFF000
FFFFFFFFE000
FFFDFFFFC000
FFFEFFFF0000
FFFE7FFC0000
FFFE0FF00000
FFFE00000000
FFFE00000000
FFFE00000000
FFFE00000000
FFFE00000000
FFFE00000000
FFFE00000000
FFFE00000000
FFFE00000000
FFFE00000000
FFFE00000000
FFFE00000000
FFFE00000000
FFFE00000000
ENDCHAR
STARTCHAR 00FF
ENCODING 255
SWIDTH 545 0
DWIDTH 47 0
BBX 44 78 1 -16
BITMAP
003F0003E000
007F800FF800
00FFC01FFC00
01FFE01FFE00
03FFE03FFE00
03FFF03FFE00
03FFF03FFE00
03FFF03FFE00
03FFF03FFE00
01FFE03FFE00
01FFE01FFE00
00FFC01FFC00
007F800FF800
001E0001C000
000000000000
000000000000
000000000000
000000000000
000000000000
FFFE0003FFF0
7FFE0003FFF0
7FFF0003FFF0
7FFF0003FFE0
3FFF0007FFE0
3FFF8007FFE0
1FFF8007FFC0
1FFF8007FFC0
1FFFC00FFFC0
0FFFC00FFF80
0FFFC00FFF80
07FFC00FFF80
07FFE01FFF00
07FFE01FFF00
03FFE01FFF00
03FFF03FFE00
01FFF03FFE00
01FFF03FFE00
01FFF83FFC00
00FFF87FFC00
00FFF87FFC00
007FF87FF800
007FFC7FF800
007FFC7FF800
003FFCFFF000
003FFCFFF000
001FFEFFF000
001FFEFFE000
001FFFFFE000
000FFFFFC000
000FFFFFC000
000FFFFFC000
0007FFFF8000
0007FFFF8000
0003FFFF8000
0003FFFF0000
0003FFFF0000
0001FFFF0000
0001FFFE0000
0000FFFE0000
0000FFFE0000
0000FFFC0000
0000FFFC0000
0000FFFC0000
0001FFF80000
0001FFF80000
0007FFF00000
03FFFFF00000
03FFFFE00000
03FFFFE00000
03FFFFC00000
07FFFFC00000
07FFFF800000
07FFFF000000
07FFFE000000
0FFFFC000000
0FFFF0000000
0FFFE0000000
03FE00000000
ENDCHAR
STARTCHAR 0100
ENCODING 256
SWIDTH 580 0
DWIDTH 50 0
BBX 52 71 -1 0
BITMAP
000FFFFFFE0000
000FFFFFFE0000
000FFFFFFE0000
000FFFFFFE0000
000FFFFFFE0000
000FFFFFFE0000
000FFFFFFE0000
000FFFFFFE0000
000FFFFFFE0000
00000000000000
00000000000000
00000000000000
00000000000000
00000000000000
00000000000000
00007FFFE00000
00007FFFF00000
0000FFFFF00000
0000FFFFF00000
0000FFFFF00000
0000FFFFF80000
0001FFFFF80000
0001FFFFF80000
0001FFFFFC0000
0003FFFFFC0000
0003FFFFFC0000
0003FFFFFE0000
0007FFBFFE0000
0007FF9FFE0000
0007FF9FFF0000
000FFF9FFF0000
000FFF1FFF0000
000FFF1FFF0000
000FFF0FFF8000
001FFF0FFF8000
001FFF0FFF8000
001FFE0FFFC000
003FFE07FFC000
003FFE07FFC000
003FFE07FFE000
007FFC07FFE000
007FFC03FFE000
007FFC03FFE000
00FFFC03FFF000
00FFF803FFF000
00FFF801FFF000
00FFF801FFF800
01FFF801FFF800
01FFFFFFFFF800
01FFFFFFFFFC00
03FFFFFFFFFC00
03FFFFFFFFFC00
03FFFFFFFFFE00
07FFFFFFFFFE00
07FFFFFFFFFE00
07FFFFFFFFFE00
07FFFFFFFFFF00
0FFFFFFFFFFF00
0FFFFFFFFFFF00
0FFFC0003FFF80
1FFFC0003FFF80
1FFF80003FFF80
1FFF80001FFFC0
3FFF80001FFFC0
3FFF80001FFFC0
3FFF80001FFFC0
7FFF00001FFFE0
7FFF00000FFFE0
7FFF00000FFFE0
7FFF00000FFFF0
FFFE00000FFFF0
ENDCHAR
STARTCHAR 0101
ENCODING 257
SWIDTH 534 0
DWIDTH 46 0
BBX 39 61 3 -1
BITMAP
00FFFFFFC0
00FFFFFFC0
00FFFFFFC0
00FFFFFFC0
00FFFFFFC0
00FFFFFFC0
00FFFFFFC0
00FFFFFFC0
00FFFFFFC0
0000000000
0000000000
0000000000
0000000000
0000000000
0000000000
0000000000
0001FFC000
001FFFF800
00FFFFFE00
03FFFFFF00
0FFFFFFFC0
3FFFFFFFC0
3FFFFFFFE0
1FFFFFFFF0
1FFFFFFFF0
0FFFFFFFF8
0FFFFFFFF8
07FFFFFFF8
07F807FFFC
03C001FFFC
030001FFFC
000000FFFC
000007FFFC
0000FFFFFC
000FFFFFFE
007FFFFFFE
01FFFFFFFE
03FFFFFFFE
0FFFFFFFFE
1FFFFFFFFE
3FFFFFFFFE
3FFFF8FFFE
7FFFC0FFFE
7FFF00FFFE
7FFE00FFFE
FFFE00FFFE
FFFC00FFFE
FFFE01FFFE
FFFE03FFFE
FFFF9FFFFE
7FFFFFFFFE
7FFFFFFFFE
7FFFFFFFFE
7FFFFFFFFE
3FFFFFFFFE
1FFFFFFFFE
1FFFFF3FFE
0FFFFE3FFE
07FFFC3FFE
01FFF03FFE
007F800000
ENDCHAR
STARTCHAR 0102
ENCODING 258
SWIDTH 580 0
DWIDTH 50 0
BBX 52 73 -1 0
BITMAP
0003E000FC0000
001FF000FF0000
001FF801FF0000
000FFC03FF0000
000FFFBFFF0000
000FFFFFFE0000
0007FFFFFE0000
0007FFFFFC0000
0003FFFFFC0000
0001FFFFF80000
0000FFFFE00000
00003FFFC00000
000007FE000000
00000000000000
00000000000000
00000000000000
00000000000000
00007FFFE00000
00007FFFF00000
0000FFFFF00000
0000FFFFF00000
0000FFFFF00000
0000FFFFF80000
0001FFFFF80000
0001FFFFF80000
0001FFFFFC0000
0003FFFFFC0000
0003FFFFFC0000
0003FFFFFE0000
0007FFBFFE0000
0007FF9FFE0000
0007FF9FFF0000
000FFF9FFF0000
000FFF1FFF0000
000FFF1FFF0000
000FFF0FFF8000
001FFF0FFF8000
001FFF0FFF8000
001FFE0FFFC000
003FFE07FFC000
003FFE07FFC000
003FFE07FFE000
007FFC07FFE000
007FFC03FFE000
007FFC03FFE000
00FFFC03FFF000
00FFF803FFF000
00FFF801FFF000
00FFF801FFF800
01FFF801FFF800
01FFFFFFFFF800
01FFFFFFFFFC00
03FFFFFFFFFC00
03FFFFFFFFFC00
03FFFFFFFFFE00
07FFFFFFFFFE00
07FFFFFFFFFE00
07FFFFFFFFFE00
07FFFFFFFFFF00
0FFFFFFFFFFF00
0FFFFFFFFFFF00
0FFFC0003FFF80
1FFFC0003FFF80
1FFF80003FFF80
1FFF80001FFFC0
3FFF80001FFFC0
3FFF80001FFFC0
3FFF80001FFFC0
7FFF00001FFFE0
7FFF00000FFFE0
7FFF00000FFFE0
7FFF00000FFFF0
FFFE00000FFFF0
ENDCHAR
STARTCHAR 0103
ENCODING 259
SWIDTH 534 0
DWIDTH 46 0
BBX 39 65 3 -1
BITMAP
001E000F00
03FE000FF0
03FE001FF0
03FF001FF0
01FF803FF0
01FFE0FFF0
01FFFFFFE0
01FFFFFFE0
00FFFFFFC0
007FFFFFC0
007FFFFF80
003FFFFF00
000FFFFE00
0007FFF800
0000FFC000
0000000000
0000000000
0000000000
0000000000
0000000000
0001FFC000
001FFFF800
00FFFFFE00
03FFFFFF00
0FFFFFFFC0
3FFFFFFFC0
3FFFFFFFE0
1FFFFFFFF0
1FFFFFFFF0
0FFFFFFFF8
0FFFFFFFF8
07FFFFFFF8
07F807FFFC
03C001FFFC
030001FFFC
000000FFFC
000007FFFC
0000FFFFFC
000FFFFFFE
007FFFFFFE
01FFFFFFFE
03FFFFFFFE
0FFFFFFFFE
1FFFFFFFFE
3FFFFFFFFE
3FFFF8FFFE
7FFFC0FFFE
7FFF00FFFE
7FFE00FFFE
FFFE00FFFE
FFFC00FFFE
FFFE01FFFE
FFFE03FFFE
FFFF9FFFFE
7FFFFFFFFE
7FFFFFFFFE
7FFFFFFFFE
7FFFFFFFFE
3FFFFFFFFE
1FFFFFFFFE
1FFFFF3FFE
0FFFFE3FFE
07FFFC3FFE
01FFF03FFE
007F800000
ENDCHAR
STARTCHAR 0104
ENCODING 260
SWIDTH 580 0
DWIDTH 50 0
BBX 53 75 -1 -19
BITMAP
00007FFFE00000
00007FFFF00000
0000FFFFF00000
0000FFFFF00000
0000FFFFF00000
0000FFFFF80000
0001FFFFF80000
0001FFFFF80000
0001FFFFFC0000
0003FFFFFC0000
0003FFFFFC0000
0003FFFFFE0000
0007FFBFFE0000
0007FF9FFE0000
0007FF9FFF0000
000FFF9FFF0000
000FFF1FFF0000
000FFF1FFF0000
000FFF0FFF8000
001FFF0FFF8000
001FFF0FFF8000
001FFE0FFFC000
003FFE07FFC000
003FFE07FFC000
003FFE07FFE000
007FFC07FFE000
007FFC03FFE000
007FFC03FFE000
00FFFC03FFF000
00FFF803FFF000
00FFF801FFF000
00FFF801FFF800
01FFF801FFF800
01FFFFFFFFF800
01FFFFFFFFFC00
03FFFFFFFFFC00
03FFFFFFFFFC00
03FFFFFFFFFE00
07FFFFFFFFFE00
07FFFFFFFFFE00
07FFFFFFFFFE00
07FFFFFFFFFF00
0FFFFFFFFFFF00
0FFFFFFFFFFF00
0FFFC0003FFF80
1FFFC0003FFF80
1FFF80003FFF80
1FFF80001FFFC0
3FFF80001FFFC0
3FFF80001FFFC0
3FFF80001FFFC0
7FFF00001FFFE0
7FFF00000FFFE0
7FFF00000FFFE0
7FFF00000FFFF0
FFFE00000FFFF0
0000000000FF80
0000000003FE00
0000000007FC00
000000000FF800
000000000FF800
000000001FF000
000000003FF000
000000003FF000
000000003FF000
000000003FF860
000000007FFFE0
000000007FFFF0
000000003FFFF0
000000003FFFF8
000000003FFFF8
000000001FFFF8
000000000FFFF8
0000000007FFF0
0000000001FF80
ENDCHAR
STARTCHAR 0105
ENCODING 261
SWIDTH 534 0
DWIDTH 46 0
BBX 40 62 3 -18
BITMAP
0001FFC000
001FFFF800
00FFFFFE00
03FFFFFF00
0FFFFFFFC0
3FFFFFFFC0
3FFFFFFFE0
1FFFFFFFF0
1FFFFFFFF0
0FFFFFFFF8
0FFFFFFFF8
07FFFFFFF8
07F807FFFC
03C001FFFC
030001FFFC
000000FFFC
000007FFFC
0000FFFFFC
000FFFFFFE
007FFFFFFE
01FFFFFFFE
03FFFFFFFE
0FFFFFFFFE
1FFFFFFFFE
3FFFFFFFFE
3FFFF8FFFE
7FFFC0FFFE
7FFF00FFFE
7FFE00FFFE
FFFE00FFFE
FFFC00FFFE
FFFE01FFFE
FFFE03FFFE
FFFF9FFFFE
7FFFFFFFFE
7FFFFFFFFE
7FFFFFFFFE
7FFFFFFFFE
3FFFFFFFFE
1FFFFFFFFE
1FFFFF3FFE
0FFFFE3FFE
07FFFC3FFE
01FFF03FFE
007F803FF8
0000007FC0
000000FF80
000001FF00
000001FE00
000003FE00
000003FE00
000007FE00
000007FF00
000007FFFC
000007FFFC
000007FFFE
000003FFFE
000003FFFF
000003FFFF
000001FFFF
0000007FFC
0000001FE0
ENDCHAR
STARTCHAR 0106
ENCODING 262
SWIDTH 580 0
DWIDTH 50 0
BBX 45 79 4 -1
BITMAP
000000002000
000000006000
00000001F000
00000003F800
00000007FC00
0000000FFE00
0000003FFF00
0000007FFF00
000000FFFF80
000001FFFFC0
000007FFFF80
00000FFFFE00
00001FFFF800
00000FFFF000
00000FFFC000
000007FF8000
000003FE0000
000001F80000
000000F00000
000000400000
000000000000
000003FF0000
00003FFFE000
0001FFFFFC00
0003FFFFFE00
000FFFFFFF80
001FFFFFFFC0
007FFFFFFFE0
00FFFFFFFFF0
01FFFFFFFFE0
03FFFFFFFFE0
03FFFFFFFFC0
07FFFFFFFF80
0FFFFFFFFF00
0FFFFE01FE00
1FFFF8007C00
1FFFF0001C00
3FFFE0000800
3FFFC0000000
7FFFC0000000
7FFF80000000
7FFF80000000
7FFF00000000
FFFF00000000
FFFF00000000
FFFE00000000
FFFE00000000
FFFE00000000
FFFE00000000
FFFE00000000
FFFE00000000
FFFE00000000
FFFE00000000
FFFE00000000
FFFE00000000
FFFF00000000
FFFF00000000
FFFF00000000
7FFF00000000
7FFF80000000
7FFF80000000
7FFFC0000000
3FFFE0000C00
3FFFF0001E00
1FFFF8007F00
1FFFFE01FF80
0FFFFFFFFF80
0FFFFFFFFFC0
07FFFFFFFFE0
03FFFFFFFFF0
03FFFFFFFFF8
01FFFFFFFFF0
00FFFFFFFFE0
003FFFFFFFC0
001FFFFFFF80
0007FFFFFE00
0003FFFFFC00
00007FFFE000
000007FF0000
ENDCHAR
STARTCHAR 0107
ENCODING 263
SWIDTH 476 0
DWIDTH 41 0
BBX 40 74 3 -1
BITMAP
0000000200
0000000300
0000000780
0000000FC0
0000001FE0
0000003FF0
0000007FF8
0000007FFC
000000FFFE
000001FFFF
000003FFFF
000007FFFE
00000FFFFC
00001FFFF8
00001FFFE0
00003FFFC0
00007FFF80
00003FFF00
00001FFE00
00000FF800
000007F000
000003E000
000001C000
0000008000
0000000000
0000000000
0000000000
0000000000
0000000000
00003FE000
0003FFFE00
000FFFFF80
003FFFFFC0
007FFFFFE0
01FFFFFFE0
03FFFFFFC0
07FFFFFF80
0FFFFFFF00
0FFFFFFF00
1FFFFFFE00
3FFFFFFC00
3FFFF03C00
7FFFE00800
7FFF800000
7FFF800000
7FFF000000
FFFF000000
FFFE000000
FFFE000000
FFFE000000
FFFE000000
FFFE000000
FFFE000000
FFFE000000
FFFE000000
FFFE000000
FFFF000000
FFFF000000
7FFF800000
7FFFC00000
7FFFE00E00
3FFFF03E00
3FFFFFFF00
1FFFFFFF80
1FFFFFFF80
0FFFFFFFC0
07FFFFFFC0
07FFFFFFE0
03FFFFFFE0
00FFFFFFE0
007FFFFFC0
001FFFFF00
0007FFFC00
0000FFC000
ENDCHAR
STARTCHAR 0108
ENCODING 264
SWIDTH 580 0
DWIDTH 50 0
BBX 45 73 4 -1
BITMAP
00007FFFC000
00007FFFE000
0000FFFFF000
0001FFFFF800
0003FFFFF800
0003FFFFFC00
0007FFFFFE00
000FFF0FFF00
001FFE07FF80
001FFC03FF80
000FF801FF00
0003E000FC00
0001C0003000
000000000000
000000000000
000003FF0000
00003FFFE000
0001FFFFFC00
0003FFFFFE00
000FFFFFFF80
001FFFFFFFC0
007FFFFFFFE0
00FFFFFFFFF0
01FFFFFFFFE0
03FFFFFFFFE0
03FFFFFFFFC0
07FFFFFFFF80
0FFFFFFFFF00
0FFFFE01FE00
1FFFF8007C00
1FFFF0001C00
3FFFE0000800
3FFFC0000000
7FFFC0000000
7FFF80000000
7FFF80000000
7FFF00000000
FFFF00000000
FFFF00000000
FFFE00000000
FFFE00000000
FFFE00000000
FFFE00000000
FFFE00000000
FFFE00000000
FFFE00000000
FFFE00000000
FFFE00000000
FFFE00000000
FFFF00000000
FFFF00000000
FFFF00000000
7FFF00000000
7FFF80000000
7FFF80000000
7FFFC0000000
3FFFE0000C00
3FFFF0001E00
1FFFF8007F00
1FFFFE01FF80
0FFFFFFFFF80
0FFFFFFFFFC0
07FFFFFFFFE0
03FFFFFFFFF0
03FFFFFFFFF8
01FFFFFFFFF0
00FFFFFFFFE0
003FFFFFFFC0
001FFFFFFF80
0007FFFFFE00
0003FFFFFC00
00007FFFE000
000007FF0000
ENDCHAR
STARTCHAR 0109
ENCODING 265
SWIDTH 476 0
DWIDTH 41 0
BBX 39 65 3 -1
BITMAP
0003FFFC00
0003FFFE00
0007FFFF00
000FFFFF80
001FFFFFC0
003FFFFFE0
007FFFFFE0
007FFFFFF0
00FFFFFFF8
01FFF9FFFC
03FFF07FFE
03FFC03FFE
01FF800FF8
00FE0003F0
007C0001E0
0010000040
0000000000
0000000000
0000000000
0000000000
00003FE000
0003FFFE00
000FFFFF80
003FFFFFC0
007FFFFFE0
01FFFFFFE0
03FFFFFFC0
07FFFFFF80
0FFFFFFF00
0FFFFFFF00
1FFFFFFE00
3FFFFFFC00
3FFFF03C00
7FFFE00800
7FFF800000
7FFF800000
7FFF000000
FFFF000000
FFFE000000
FFFE000000
FFFE000000
FFFE000000
FFFE000000
FFFE000000
FFFE000000
FFFE000000
FFFE000000
FFFF000000
FFFF000000
7FFF800000
7FFFC00000
7FFFE00E00
3FFFF03E00
3FFFFFFF00
1FFFFFFF80
1FFFFFFF80
0FFFFFFFC0
07FFFFFFC0
07FFFFFFE0
03FFFFFFE0
00FFFFFFE0
007FFFFFC0
001FFFFF00
0007FFFC00
0000FFC000
ENDCHAR
STARTCHAR 010A
ENCODING 266
SWIDTH 580 0
DWIDTH 50 0
BBX 45 76 4 -1
BITMAP
000000F00000
000007FE0000
00000FFF0000
00001FFF8000
00003FFFC000
00003FFFC000
00003FFFC000
00003FFFC000
00003FFFC000
00003FFFC000
00003FFFC000
00001FFF8000
00000FFF0000
000007FE0000
000001F80000
000000000000
000000000000
000000000000
000003FF0000
00003FFFE000
0001FFFFFC00
0003FFFFFE00
000FFFFFFF80
001FFFFFFFC0
007FFFFFFFE0
00FFFFFFFFF0
01FFFFFFFFE0
03FFFFFFFFE0
03FFFFFFFFC0
07FFFFFFFF80
0FFFFFFFFF00
0FFFFE01FE00
1FFFF8007C00
1FFFF0001C00
3FFFE0000800
3FFFC0000000
7FFFC0000000
7FFF80000000
7FFF80000000
7FFF00000000
FFFF00000000
FFFF00000000
FFFE00000000
FFFE00000000
FFFE00000000
FFFE00000000
FFFE00000000
FFFE00000000
FFFE00000000
FFFE00000000
FFFE00000000
FFFE00000000
FFFF00000000
FFFF00000000
FFFF00000000
7FFF00000000
7FFF80000000
7FFF80000000
7FFFC0000000
3FFFE0000C00
3FFFF0001E00
1FFFF8007F00
1FFFFE01FF80
0FFFFFFFFF80
0FFFFFFFFFC0
07FFFFFFFFE0
03FFFFFFFFF0
03FFFFFFFFF8
01FFFFFFFFF0
00FFFFFFFFE0
003FFFFFFFC0
001FFFFFFF80
0007FFFFFE00
0003FFFFFC00
00007FFFE000
000007FF0000
ENDCHAR
STARTCHAR 010B
ENCODING 267
SWIDTH 476 0
DWIDTH 41 0
BBX 35 64 3 -1
BITMAP
00001FC000
00003FE000
0000FFF800
0000FFF800
0001FFFC00
0001FFFC00
0001FFFC00
0003FFFC00
0001FFFC00
0001FFFC00
0001FFFC00
0000FFF800
0000FFF000
00003FE000
00000F8000
0000000000
0000000000
0000000000
0000000000
00003FE000
0003FFFE00
000FFFFF80
003FFFFFC0
007FFFFFE0
01FFFFFFE0
03FFFFFFC0
07FFFFFF80
0FFFFFFF00
0FFFFFFF00
1FFFFFFE00
3FFFFFFC00
3FFFF03C00
7FFFE00800
7FFF800000
7FFF800000
7FFF000000
FFFF000000
FFFE000000
FFFE000000
FFFE000000
FFFE000000
FFFE000000
FFFE000000
FFFE000000
FFFE000000
FFFE000000
FFFF000000
FFFF000000
7FFF800000
7FFFC00000
7FFFE00E00
3FFFF03E00
3FFFFFFF00
1FFFFFFF80
1FFFFFFF80
0FFFFFFFC0
07FFFFFFC0
07FFFFFFE0
03FFFFFFE0
00FFFFFFE0
007FFFFFC0
001FFFFF00
0007FFFC00
0000FFC000
ENDCHAR
STARTCHAR 010C
ENCODING 268
SWIDTH 580 0
DWIDTH 50 0
BBX 45 74 4 -1
BITMAP
0000C0003000
0003E0007C00
000FF801FF00
001FFC03FF80
001FFE07FF80
000FFF0FFF00
0007FFFFFE00
0003FFFFFC00
0003FFFFF800
0001FFFFF800
0000FFFFF000
00007FFFE000
00007FFFC000
000000000000
000000000000
000000000000
000003FF0000
00003FFFE000
0001FFFFFC00
0003FFFFFE00
000FFFFFFF80
001FFFFFFFC0
007FFFFFFFE0
00FFFFFFFFF0
01FFFFFFFFE0
03FFFFFFFFE0
03FFFFFFFFC0
07FFFFFFFF80
0FFFFFFFFF00
0FFFFE01FE00
1FFFF8007C00
1FFFF0001C00
3FFFE0000800
3FFFC0000000
7FFFC0000000
7FFF80000000
7FFF80000000
7FFF00000000
FFFF00000000
FFFF00000000
FFFE00000000
FFFE00000000
FFFE00000000
FFFE00000000
FFFE00000000
FFFE00000000
FFFE00000000
FFFE00000000
FFFE00000000
FFFE00000000
FFFF00000000
FFFF00000000
FFFF00000000
7FFF00000000
7FFF80000000
7FFF80000000
7FFFC0000000
3FFFE0000C00
3FFFF0001E00
1FFFF8007F00
1FFFFE01FF80
0FFFFFFFFF80
0FFFFFFFFFC0
07FFFFFFFFE0
03FFFFFFFFF0
03FFFFFFFFF8
01FFFFFFFFF0
00FFFFFFFFE0
003FFFFFFFC0
001FFFFFFF80
0007FFFFFE00
0003FFFFFC00
00007FFFE000
000007FF0000
ENDCHAR
STARTCHAR 010D
ENCODING 269
SWIDTH 476 0
DWIDTH 41 0
BBX 39 67 3 -1
BITMAP
0030000040
007C0001E0
00FE0007F0
01FF800FFC
03FFC03FFE
03FFF07FFE
01FFF9FFFC
00FFFFFFF8
007FFFFFF0
007FFFFFE0
003FFFFFE0
001FFFFFC0
000FFFFF80
0007FFFF00
0003FFFE00
0003FFFC00
0000000000
0000000000
0000000000
0000000000
0000000000
0000000000
00003FE000
0003FFFE00
000FFFFF80
003FFFFFC0
007FFFFFE0
01FFFFFFE0
03FFFFFFC0
07FFFFFF80
0FFFFFFF00
0FFFFFFF00
1FFFFFFE00
3FFFFFFC00
3FFFF03C00
7FFFE00800
7FFF800000
7FFF800000
7FFF000000
FFFF000000
FFFE000000
FFFE000000
FFFE000000
FFFE000000
FFFE000000
FFFE000000
FFFE000000
FFFE000000
FFFE000000
FFFF000000
FFFF000000
7FFF800000
7FFFC00000
7FFFE00E00
3FFFF03E00
3FFFFFFF00
1FFFFFFF80
1FFFFFFF80
0FFFFFFFC0
07FFFFFFC0
07FFFFFFE0
03FFFFFFE0
00FFFFFFE0
007FFFFFC0
001FFFFF00
0007FFFC00
0000FFC000
ENDCHAR
STARTCHAR 010E
ENCODING 270
SWIDTH 638 0
DWIDTH 55 0
BBX 45 73 6 0
BITMAP
001C00030000
003E000FC000
00FF001FE000
03FFC03FF800
01FFE07FF000
00FFF1FFF000
007FFBFFE000
007FFFFFC000
003FFFFF8000
001FFFFF0000
000FFFFF0000
000FFFFE0000
0007FFFC0000
000000000000
000000000000
000000000000
000000000000
FFFFFF000000
FFFFFFF00000
FFFFFFFE0000
FFFFFFFF8000
FFFFFFFFE000
FFFFFFFFF000
FFFFFFFFFC00
FFFFFFFFFE00
FFFFFFFFFF00
FFFFFFFFFF00
FFFFFFFFFF80
FFFFFFFFFFC0
FFFE07FFFFC0
FFFE00FFFFE0
FFFE003FFFE0
FFFE001FFFF0
FFFE000FFFF0
FFFE000FFFF0
FFFE0007FFF8
FFFE0007FFF8
FFFE0007FFF8
FFFE0003FFF8
FFFE0003FFF8
FFFE0003FFF8
FFFE0003FFF8
FFFE0003FFF8
FFFE0003FFF8
FFFE0003FFF8
FFFE0003FFF8
FFFE0003FFF8
FFFE0003FFF8
FFFE0003FFF8
FFFE0003FFF8
FFFE0003FFF8
FFFE0003FFF8
FFFE0007FFF8
FFFE0007FFF8
FFFE0007FFF0
FFFE000FFFF0
FFFE001FFFF0
FFFE001FFFE0
FFFE007FFFE0
FFFE00FFFFE0
FFFE07FFFFC0
FFFFFFFFFFC0
FFFFFFFFFF80
FFFFFFFFFF00
FFFFFFFFFE00
FFFFFFFFFC00
FFFFFFFFF800
FFFFFFFFF000
FFFFFFFFE000
FFFFFFFF8000
FFFFFFFE0000
FFFFFFF00000
FFFFFF000000
ENDCHAR
STARTCHAR 010F
ENCODING 271
SWIDTH 627 0
DWIDTH 54 0
BBX 54 67 3 -1
BITMAP
000000000007FC
000000000007FC
000000000007FC
000000000007FC
000000000007FC
000000000007FC
0000001FFFC7FC
0000001FFFC7FC
0000001FFFC7F8
0000001FFFC7F8
0000001FFFC7F8
0000001FFFC7F8
0000001FFFC7F8
0000001FFFC7F0
0000001FFFC7F0
0000001FFFC7F0
0000001FFFC7F0
0000001FFFC7F0
0000001FFFC7E0
0000001FFFC000
0000001FFFC000
0000001FFFC000
0003FC1FFFC000
001FFF1FFFC000
003FFFDFFFC000
00FFFFEFFFC000
01FFFFFFFFC000
03FFFFFFFFC000
07FFFFFFFFC000
0FFFFFFFFFC000
0FFFFFFFFFC000
1FFFFFFFFFC000
1FFFFFFFFFC000
3FFFFFFFFFC000
3FFFE0FFFFC000
3FFFC03FFFC000
7FFF801FFFC000
7FFF001FFFC000
7FFF001FFFC000
7FFF001FFFC000
FFFF001FFFC000
FFFE001FFFC000
FFFE001FFFC000
FFFE001FFFC000
FFFE001FFFC000
FFFE001FFFC000
FFFE001FFFC000
FFFE001FFFC000
FFFF001FFFC000
FFFF001FFFC000
7FFF001FFFC000
7FFF001FFFC000
7FFF801FFFC000
7FFFC03FFFC000
3FFFE0FFFFC000
3FFFFFFFFFC000
3FFFFFFFFFC000
1FFFFFFFFFC000
1FFFFFFFFFC000
0FFFFFFFFFC000
07FFFFFFFFC000
07FFFFFFFFC000
03FFFFF7FFC000
01FFFFE7FFC000
007FFF87FFC000
001FFF03FFC000
0007F800000000
ENDCHAR
STARTCHAR 0110
ENCODING 272
SWIDTH 673 0
DWIDTH 58 0
BBX 52 56 2 0
BITMAP
03FFFFFC000000
03FFFFFFE00000
03FFFFFFF80000
03FFFFFFFF0000
03FFFFFFFF8000
03FFFFFFFFE000
03FFFFFFFFF000
03FFFFFFFFF800
03FFFFFFFFFC00
03FFFFFFFFFE00
03FFFFFFFFFE00
03FFFFFFFFFF00
03FFF80FFFFF80
03FFF803FFFF80
03FFF800FFFF80
03FFF8007FFFC0
03FFF8003FFFC0
03FFF8003FFFE0
03FFF8001FFFE0
03FFF8001FFFE0
03FFF8000FFFE0
03FFF8000FFFE0
03FFF8000FFFE0
03FFF8000FFFF0
FFFFFFFE0FFFF0
FFFFFFFE0FFFF0
FFFFFFFE07FFF0
FFFFFFFE07FFF0
FFFFFFFE07FFF0
FFFFFFFE07FFF0
FFFFFFFE0FFFF0
03FFF8000FFFF0
03FFF8000FFFF0
03FFF8000FFFE0
03FFF8000FFFE0
03FFF8000FFFE0
03FFF8001FFFE0
03FFF8001FFFE0
03FFF8003FFFC0
03FFF8003FFFC0
03FFF8007FFFC0
03FFF800FFFF80
03FFF803FFFF80
03FFF80FFFFF00
03FFFFFFFFFF00
03FFFFFFFFFE00
03FFFFFFFFFC00
03FFFFFFFFFC00
03FFFFFFFFF800
03FFFFFFFFF000
03FFFFFFFFC000
03FFFFFFFF8000
03FFFFFFFE0000
03FFFFFFF80000
03FFFFFFE00000
03FFFFFC000000
ENDCHAR
STARTCHAR 0111
ENCODING 273
SWIDTH 580 0
DWIDTH 50 0
BBX 48 61 3 -1
BITMAP
0000001FFFC0
0000001FFFC0
0000001FFFC0
0000001FFFC0
0000001FFFC0
0000001FFFC0
0001FFFFFFFF
0001FFFFFFFF
0001FFFFFFFF
0001FFFFFFFF
0001FFFFFFFF
0001FFFFFFFF
0001FFFFFFC0
0000001FFFC0
0000001FFFC0
0000001FFFC0
0000001FFFC0
0000001FFFC0
0000001FFFC0
0000001FFFC0
0003FC1FFFC0
001FFF1FFFC0
007FFFDFFFC0
00FFFFEFFFC0
01FFFFFFFFC0
03FFFFFFFFC0
07FFFFFFFFC0
0FFFFFFFFFC0
1FFFFFFFFFC0
1FFFFFFFFFC0
3FFFFFFFFFC0
3FFFFFFFFFC0
7FFFE0FFFFC0
7FFFC03FFFC0
7FFF801FFFC0
7FFF001FFFC0
FFFF001FFFC0
FFFF001FFFC0
FFFE001FFFC0
FFFE001FFFC0
FFFE001FFFC0
FFFE001FFFC0
FFFE001FFFC0
FFFF001FFFC0
FFFF001FFFC0
7FFF001FFFC0
7FFF801FFFC0
7FFFC03FFFC0
7FFFE0FFFFC0
3FFFFFFFFFC0
3FFFFFFFFFC0
3FFFFFFFFFC0
1FFFFFFFFFC0
0FFFFFFFFFC0
0FFFFFFFFFC0
07FFFFFFFFC0
03FFFFFFFFC0
01FFFFE7FFC0
007FFFC7FFC0
003FFF07FFC0
0007F8000000
ENDCHAR
STARTCHAR 0112
ENCODING 274
SWIDTH 557 0
DWIDTH 48 0
BBX 37 71 6 0
BITMAP
07FFFFFF80
07FFFFFF80
07FFFFFF80
07FFFFFF80
07FFFFFF80
07FFFFFF80
07FFFFFF80
07FFFFFF80
07FFFFFF80
0000000000
0000000000
0000000000
0000000000
0000000000
0000000000
FFFFFFFFF0
FFFFFFFFF0
FFFFFFFFF0
FFFFFFFFF0
FFFFFFFFF0
FFFFFFFFF0
FFFFFFFFF0
FFFFFFFFF0
FFFFFFFFF0
FFFFFFFFF0
FFFFFFFFF0
FFFFFFFFF0
FFFE000000
FFFE000000
FFFE000000
FFFE000000
FFFE000000
FFFE000000
FFFE000000
FFFE000000
FFFE000000
FFFFFFFF80
FFFFFFFF80
FFFFFFFF80
FFFFFFFF80
FFFFFFFF80
FFFFFFFF80
FFFFFFFF80
FFFFFFFF80
FFFFFFFF80
FFFFFFFF80
FFFFFFFF80
FFFFFFFF80
FFFE000000
FFFE000000
FFFE000000
FFFE000000
FFFE000000
FFFE000000
FFFE000000
FFFE000000
FFFE000000
FFFE000000
FFFE000000
FFFFFFFFF8
FFFFFFFFF8
FFFFFFFFF8
FFFFFFFFF8
FFFFFFFFF8
FFFFFFFFF8
FFFFFFFFF8
FFFFFFFFF8
FFFFFFFFF8
FFFFFFFFF8
FFFFFFFFF8
FFFFFFFFF8
ENDCHAR
STARTCHAR 0113
ENCODING 275
SWIDTH 522 0
DWIDTH 45 0
BBX 39 61 3 -1
BITMAP
01FFFFFFC0
01FFFFFFC0
01FFFFFFC0
01FFFFFFC0
01FFFFFFC0
01FFFFFFC0
01FFFFFFC0
01FFFFFFC0
01FFFFFFC0
0000000000
0000000000
0000000000
0000000000
0000000000
0000000000
0000000000
0000FF8000
0007FFF000
001FFFFE00
007FFFFF00
00FFFFFF80
01FFFFFFC0
03FFFFFFE0
07FFFFFFF0
0FFFFFFFF0
1FFFFFFFF8
1FFFFFFFF8
3FFFE1FFFC
3FFF807FFC
7FFF003FFC
7FFE003FFE
7FFC003FFE
FFFC001FFE
FFFFFFFFFE
FFFFFFFFFE
FFFFFFFFFE
FFFFFFFFFE
FFFFFFFFFE
FFFFFFFFFE
FFFFFFFFFE
FFFFFFFFFE
FFFFFFFFFE
FFFFFFFFFE
FFFC000000
FFFE000000
7FFE000000
7FFF000000
7FFF800080
3FFFC003C0
3FFFF81FC0
1FFFFFFFE0
1FFFFFFFE0
0FFFFFFFF0
07FFFFFFF0
03FFFFFFF8
01FFFFFFF8
00FFFFFFF8
007FFFFFE0
001FFFFF80
0007FFFE00
00007FE000
ENDCHAR
STARTCHAR 0114
ENCODING 276
SWIDTH 557 0
DWIDTH 48 0
BBX 37 73 6 0
BITMAP
01F8007E00
0FF8007FC0
07FC00FF80
07FE01FF80
07FFFFFF80
07FFFFFF80
03FFFFFF00
03FFFFFF00
01FFFFFE00
00FFFFFC00
007FFFF800
001FFFE000
0003FF0000
0000000000
0000000000
0000000000
0000000000
FFFFFFFFF0
FFFFFFFFF0
FFFFFFFFF0
FFFFFFFFF0
FFFFFFFFF0
FFFFFFFFF0
FFFFFFFFF0
FFFFFFFFF0
FFFFFFFFF0
FFFFFFFFF0
FFFFFFFFF0
FFFFFFFFF0
FFFE000000
FFFE000000
FFFE000000
FFFE000000
FFFE000000
FFFE000000
FFFE000000
FFFE000000
FFFE000000
FFFFFFFF80
FFFFFFFF80
FFFFFFFF80
FFFFFFFF80
FFFFFFFF80
FFFFFFFF80
FFFFFFFF80
FFFFFFFF80
FFFFFFFF80
FFFFFFFF80
FFFFFFFF80
FFFFFFFF80
FFFE000000
FFFE000000
FFFE000000
FFFE000000
FFFE000000
FFFE000000
FFFE000000
FFFE000000
FFFE000000
FFFE000000
FFFE000000
FFFFFFFFF8
FFFFFFFFF8
FFFFFFFFF8
FFFFFFFFF8
FFFFFFFFF8
FFFFFFFFF8
FFFFFFFFF8
FFFFFFFFF8
FFFFFFFFF8
FFFFFFFFF8
FFFFFFFFF8
FFFFFFFFF8
ENDCHAR
STARTCHAR 0115
ENCODING 277
SWIDTH 522 0
DWIDTH 45 0
BBX 39 65 3 -1
BITMAP
003C001E00
07FC001FE0
03FE003FE0
03FE003FE0
03FF007FE0
03FFC1FFE0
03FFFFFFE0
01FFFFFFC0
01FFFFFFC0
00FFFFFF80
007FFFFF00
003FFFFE00
001FFFFC00
0007FFF000
0000FF8000
0000000000
0000000000
0000000000
0000000000
0000000000
0000FF8000
0007FFF000
001FFFFE00
007FFFFF00
00FFFFFF80
01FFFFFFC0
03FFFFFFE0
07FFFFFFF0
0FFFFFFFF0
1FFFFFFFF8
1FFFFFFFF8
3FFFE1FFFC
3FFF807FFC
7FFF003FFC
7FFE003FFE
7FFC003FFE
FFFC001FFE
FFFFFFFFFE
FFFFFFFFFE
FFFFFFFFFE
FFFFFFFFFE
FFFFFFFFFE
FFFFFFFFFE
FFFFFFFFFE
FFFFFFFFFE
FFFFFFFFFE
FFFFFFFFFE
FFFC000000
FFFE000000
7FFE000000
7FFF000000
7FFF800080
3FFFC003C0
3FFFF81FC0
1FFFFFFFE0
1FFFFFFFE0
0FFFFFFFF0
07FFFFFFF0
03FFFFFFF8
01FFFFFFF8
00FFFFFFF8
007FFFFFE0
001FFFFF80
0007FFFE00
00007FE000
ENDCHAR
STARTCHAR 0116
ENCODING 278
SWIDTH 557 0
DWIDTH 48 0
BBX 37 75 6 0
BITMAP
0000780000
0003FF0000
0007FF8000
000FFFC000
001FFFE000
001FFFE000
001FFFE000
001FFFE000
001FFFE000
001FFFE000
001FFFE000
000FFFC000
0007FF8000
0003FF0000
0000FC0000
0000000000
0000000000
0000000000
0000000000
FFFFFFFFF0
FFFFFFFFF0
FFFFFFFFF0
FFFFFFFFF0
FFFFFFFFF0
FFFFFFFFF0
FFFFFFFFF0
FFFFFFFFF0
FFFFFFFFF0
FFFFFFFFF0
FFFFFFFFF0
FFFFFFFFF0
FFFE000000
FFFE000000
FFFE000000
FFFE000000
FFFE000000
FFFE000000
FFFE000000
FFFE000000
FFFE000000
FFFFFFFF80
FFFFFFFF80
FFFFFFFF80
FFFFFFFF80
FFFFFFFF80
FFFFFFFF80
FFFFFFFF80
FFFFFFFF80
FFFFFFFF80
FFFFFFFF80
FFFFFFFF80
FFFFFFFF80
FFFE000000
FFFE000000
FFFE000000
FFFE000000
FFFE000000
FFFE000000
FFFE000000
FFFE000000
FFFE000000
FFFE000000
FFFE000000
FFFFFFFFF8
FFFFFFFFF8
FFFFFFFFF8
FFFFFFFFF8
FFFFFFFFF8
FFFFFFFFF8
FFFFFFFFF8
FFFFFFFFF8
FFFFFFFFF8
FFFFFFFFF8
FFFFFFFFF8
FFFFFFFFF8
ENDCHAR
STARTCHAR 0117
ENCODING 279
SWIDTH 522 0
DWIDTH 45 0
BBX 39 64 3 -1
BITMAP
00007F0000
0000FF8000
0003FFE000
0003FFE000
0007FFF000
0007FFF000
0007FFF000
000FFFF000
0007FFF000
0007FFF000
0007FFF000
0003FFE000
0003FFC000
0000FF8000
00003E0000
0000000000
0000000000
0000000000
0000000000
0000FF8000
0007FFF000
001FFFFE00
007FFFFF00
00FFFFFF80
01FFFFFFC0
03FFFFFFE0
07FFFFFFF0
0FFFFFFFF0
1FFFFFFFF8
1FFFFFFFF8
3FFFE1FFFC
3FFF807FFC
7FFF003FFC
7FFE003FFE
7FFC003FFE
FFFC001FFE
FFFFFFFFFE
FFFFFFFFFE
FFFFFFFFFE
FFFFFFFFFE
FFFFFFFFFE
FFFFFFFFFE
FFFFFFFFFE
FFFFFFFFFE
FFFFFFFFFE
FFFFFFFFFE
FFFC000000
FFFE000000
7FFE000000
7FFF000000
7FFF800080
3FFFC003C0
3FFFF81FC0
1FFFFFFFE0
1FFFFFFFE0
0FFFFFFFF0
07FFFFFFF0
03FFFFFFF8
01FFFFFFF8
00FFFFFFF8
007FFFFFE0
001FFFFF80
0007FFFE00
00007FE000
ENDCHAR
STARTCHAR 0118
ENCODING 280
SWIDTH 557 0
DWIDTH 48 0
BBX 39 75 6 -19
BITMAP
FFFFFFFFF0
FFFFFFFFF0
FFFFFFFFF0
FFFFFFFFF0
FFFFFFFFF0
FFFFFFFFF0
FFFFFFFFF0
FFFFFFFFF0
FFFFFFFFF0
FFFFFFFFF0
FFFFFFFFF0
FFFFFFFFF0
FFFE000000
FFFE000000
FFFE000000
FFFE000000
FFFE000000
FFFE000000
FFFE000000
FFFE000000
FFFE000000
FFFFFFFF80
FFFFFFFF80
FFFFFFFF80
FFFFFFFF80
FFFFFFFF80
FFFFFFFF80
FFFFFFFF80
FFFFFFFF80
FFFFFFFF80
FFFFFFFF80
FFFFFFFF80
FFFFFFFF80
FFFE000000
FFFE000000
FFFE000000
FFFE000000
FFFE000000
FFFE000000
FFFE000000
FFFE000000
FFFE000000
FFFE000000
FFFE000000
FFFFFFFFF8
FFFFFFFFF8
FFFFFFFFF8
FFFFFFFFF8
FFFFFFFFF8
FFFFFFFFF8
FFFFFFFFF8
FFFFFFFFF8
FFFFFFFFF8
FFFFFFFFF8
FFFFFFFFF8
FFFFFFFFF8
0000007FC0
000000FF00
000001FE00
000003FE00
000007FC00
00000FFC00
00000FFC00
00001FFC00
00001FFC00
00001FFE10
00001FFFF8
00001FFFF8
00001FFFF8
00001FFFFC
00000FFFFC
00000FFFFE
000007FFFE
000003FFF8
000000FFE0
ENDCHAR
STARTCHAR 0119
ENCODING 281
SWIDTH 522 0
DWIDTH 45 0
BBX 39 62 3 -18
BITMAP
0000FF8000
0007FFF000
001FFFFE00
007FFFFF00
00FFFFFF80
01FFFFFFC0
03FFFFFFE0
07FFFFFFF0
0FFFFFFFF0
1FFFFFFFF8
1FFFFFFFF8
3FFFE1FFFC
3FFF807FFC
7FFF003FFC
7FFE003FFE
7FFC003FFE
FFFC001FFE
FFFFFFFFFE
FFFFFFFFFE
FFFFFFFFFE
FFFFFFFFFE
FFFFFFFFFE
FFFFFFFFFE
FFFFFFFFFE
FFFFFFFFFE
FFFFFFFFFE
FFFFFFFFFE
FFFC000000
FFFE000000
7FFE000000
7FFF000000
7FFF800080
3FFFC003C0
3FFFF81FC0
1FFFFFFFE0
1FFFFFFFE0
0FFFFFFFF0
07FFFFFFF0
03FFFFFFF8
01FFFFFFF8
00FFFFFFF8
007FFFFFF0
001FFFFFC0
0007FFFF80
00007FFF00
000001FE00
000003FC00
000007F800
00000FF800
00000FF800
00000FF800
00001FF800
00001FF800
00001FFFE0
00001FFFF0
00001FFFF0
00001FFFF8
00000FFFF8
00000FFFFC
000007FFF8
000003FFE0
0000007F00
ENDCHAR
STARTCHAR 011A
ENCODING 282
SWIDTH 557 0
DWIDTH 48 0
BBX 37 73 6 0
BITMAP
0060001800
01F0003E00
07FC00FF80
0FFE01FFC0
0FFF03FFC0
07FF87FF80
03FFFFFF00
01FFFFFE00
01FFFFFC00
00FFFFFC00
007FFFF800
003FFFF000
003FFFE000
0000000000
0000000000
0000000000
0000000000
FFFFFFFFF0
FFFFFFFFF0
FFFFFFFFF0
FFFFFFFFF0
FFFFFFFFF0
FFFFFFFFF0
FFFFFFFFF0
FFFFFFFFF0
FFFFFFFFF0
FFFFFFFFF0
FFFFFFFFF0
FFFFFFFFF0
FFFE000000
FFFE000000
FFFE000000
FFFE000000
FFFE000000
FFFE000000
FFFE000000
FFFE000000
FFFE000000
FFFFFFFF80
FFFFFFFF80
FFFFFFFF80
FFFFFFFF80
FFFFFFFF80
FFFFFFFF80
FFFFFFFF80
FFFFFFFF80
FFFFFFFF80
FFFFFFFF80
FFFFFFFF80
FFFFFFFF80
FFFE000000
FFFE000000
FFFE000000
FFFE000000
FFFE000000
FFFE000000
FFFE000000
FFFE000000
FFFE000000
FFFE000000
FFFE000000
FFFFFFFFF8
FFFFFFFFF8
FFFFFFFFF8
FFFFFFFFF8
FFFFFFFFF8
FFFFFFFFF8
FFFFFFFFF8
FFFFFFFFF8
FFFFFFFFF8
FFFFFFFFF8
FFFFFFFFF8
FFFFFFFFF8
ENDCHAR
STARTCHAR 011B
ENCODING 283
SWIDTH 522 0
DWIDTH 45 0
BBX 39 67 3 -1
BITMAP
0040000100
01F0000780
03F8000FC0
07FE003FF0
0FFF00FFF8
0FFFC1FFF8
07FFE7FFF0
03FFFFFFE0
01FFFFFFC0
01FFFFFF80
00FFFFFF80
007FFFFF00
003FFFFE00
001FFFFC00
000FFFF800
000FFFF000
0000000000
0000000000
0000000000
0000000000
0000000000
0000000000
0000FF8000
0007FFF000
001FFFFE00
007FFFFF00
00FFFFFF80
01FFFFFFC0
03FFFFFFE0
07FFFFFFF0
0FFFFFFFF0
1FFFFFFFF8
1FFFFFFFF8
3FFFE1FFFC
3FFF807FFC
7FFF003FFC
7FFE003FFE
7FFC003FFE
FFFC001FFE
FFFFFFFFFE
FFFFFFFFFE
FFFFFFFFFE
FFFFFFFFFE
FFFFFFFFFE
FFFFFFFFFE
FFFFFFFFFE
FFFFFFFFFE
FFFFFFFFFE
FFFFFFFFFE
FFFC000000
FFFE000000
7FFE000000
7FFF000000
7FFF800080
3FFFC003C0
3FFFF81FC0
1FFFFFFFE0
1FFFFFFFE0
0FFFFFFFF0
07FFFFFFF0
03FFFFFFF8
01FFFFFFF8
00FFFFFFF8
007FFFFFE0
001FFFFF80
0007FFFE00
00007FE000
ENDCHAR
STARTCHAR 011C
ENCODING 284
SWIDTH 650 0
DWIDTH 56 0
BBX 47 73 4 -1
BITMAP
00000FFFF800
00001FFFF800
00003FFFFC00
00007FFFFE00
00007FFFFF00
0000FFFFFF00
0001FFFFFF80
0003FFC3FFC0
0007FF81FFE0
0007FF00FFE0
0003FE007FC0
0000F8001F00
000030000E00
000000000000
000000000000
000003FF8000
00003FFFF800
0000FFFFFE00
0003FFFFFF80
000FFFFFFFE0
001FFFFFFFF0
007FFFFFFFF8
00FFFFFFFFFC
01FFFFFFFFF8
03FFFFFFFFF0
03FFFFFFFFE0
07FFFFFFFFE0
0FFFFFFFFFC0
0FFFFF007F80
1FFFFC001F00
1FFFF0000600
3FFFE0000000
3FFFC0000000
7FFFC0000000
7FFF80000000
7FFF00000000
7FFF00000000
FFFF00000000
FFFF00000000
FFFE003FFFFE
FFFE003FFFFE
FFFE003FFFFE
FFFE003FFFFE
FFFE003FFFFE
FFFE003FFFFE
FFFE003FFFFE
FFFE003FFFFE
FFFE003FFFFE
FFFE003FFFFE
FFFF003FFFFE
FFFF003FFFFE
FFFF00003FFE
7FFF80003FFE
7FFF80003FFE
7FFFC0003FFE
3FFFC0003FFE
3FFFE0003FFE
3FFFF0003FFE
1FFFFC003FFE
1FFFFF007FFE
0FFFFFFFFFFE
0FFFFFFFFFFE
07FFFFFFFFFE
03FFFFFFFFFE
01FFFFFFFFFE
00FFFFFFFFFE
007FFFFFFFFE
003FFFFFFFF8
001FFFFFFFF0
0007FFFFFFC0
0001FFFFFF00
00003FFFF800
000003FF8000
ENDCHAR
STARTCHAR 011D
ENCODING 285
SWIDTH 545 0
DWIDTH 47 0
BBX 43 82 3 -18
BITMAP
0007FFF80000
0007FFFC0000
000FFFFE0000
001FFFFF0000
003FFFFF8000
007FFFFFC000
00FFFFFFC000
00FFFFFFE000
01FFFFFFF000
03FFF3FFF800
07FFE0FFFC00
07FF803FFC00
03FF001FF800
01FC0007E000
00780003C000
002000008000
000000000000
000000000000
000000000000
000000000000
0003FF000000
001FFFFFFFC0
00FFFFFFFFC0
01FFFFFFFFC0
03FFFFFFFFC0
07FFFFFFFFC0
0FFFFFFFFFC0
1FFFFFFFFFC0
3FFFFFFFFFC0
3FFFFFFFFFC0
7FFF87FFFFC0
7FFF01FFFFC0
7FFE01FFF000
7FFE01FFF000
7FFC00FFF000
7FFC00FFF000
7FFC00FFF000
7FFE00FFF000
7FFE01FFF000
7FFE01FFF000
7FFF03FFF000
3FFF87FFF000
3FFFFFFFE000
1FFFFFFFE000
0FFFFFFFC000
07FFFFFF8000
03FFFFFF0000
03FFFFFE0000
07FFFFFC0000
0FFFFFE00000
1FFCFE000000
1FF800000000
3FF800000000
3FFC00000000
3FFF00000000
3FFFFFFF8000
3FFFFFFFF000
3FFFFFFFFC00
3FFFFFFFFF00
1FFFFFFFFF80
0FFFFFFFFF80
0FFFFFFFFFC0
03FFFFFFFFC0
0FFFFFFFFFC0
1FFFFFFFFFE0
3FFFFFFFFFE0
7FF0001FFFE0
FFF0000FFFE0
FFF0000FFFC0
FFF0000FFFC0
FFF0000FFFC0
FFF8001FFF80
FFFF00FFFF80
FFFFFFFFFF00
FFFFFFFFFF00
7FFFFFFFFE00
7FFFFFFFF800
3FFFFFFFF000
1FFFFFFFC000
07FFFFFF0000
01FFFFF80000
001FFF000000
ENDCHAR
STARTCHAR 011E
ENCODING 286
SWIDTH 650 0
DWIDTH 56 0
BBX 47 74 4 -1
BITMAP
000018001C00
0007FC003FE0
0003FC003FE0
0003FE007FC0
0003FF81FFC0
0003FFFFFFC0
0001FFFFFF80
0001FFFFFF80
0000FFFFFF00
00007FFFFE00
00003FFFFC00
00001FFFF800
000007FFE000
000000000000
000000000000
000000000000
000003FF8000
00003FFFF800
0000FFFFFE00
0003FFFFFF80
000FFFFFFFE0
001FFFFFFFF0
007FFFFFFFF8
00FFFFFFFFFC
01FFFFFFFFF8
03FFFFFFFFF0
03FFFFFFFFE0
07FFFFFFFFE0
0FFFFFFFFFC0
0FFFFF007F80
1FFFFC001F00
1FFFF0000600
3FFFE0000000
3FFFC0000000
7FFFC0000000
7FFF80000000
7FFF00000000
7FFF00000000
FFFF00000000
FFFF00000000
FFFE003FFFFE
FFFE003FFFFE
FFFE003FFFFE
FFFE003FFFFE
FFFE003FFFFE
FFFE003FFFFE
FFFE003FFFFE
FFFE003FFFFE
FFFE003FFFFE
FFFE003FFFFE
FFFF003FFFFE
FFFF003FFFFE
FFFF00003FFE
7FFF80003FFE
7FFF80003FFE
7FFFC0003FFE
3FFFC0003FFE
3FFFE0003FFE
3FFFF0003FFE
1FFFFC003FFE
1FFFFF007FFE
0FFFFFFFFFFE
0FFFFFFFFFFE
07FFFFFFFFFE
03FFFFFFFFFE
01FFFFFFFFFE
00FFFFFFFFFE
007FFFFFFFFE
003FFFFFFFF8
001FFFFFFFF0
0007FFFFFFC0
0001FFFFFF00
00003FFFF800
000003FF8000
ENDCHAR
STARTCHAR 011F
ENCODING 287
SWIDTH 545 0
DWIDTH 47 0
BBX 43 82 3 -18
BITMAP
001E000F0000
03FE000FF000
01FF001FF000
01FF001FF000
01FF803FF000
01FFE0FFF000
01FFFFFFF000
00FFFFFFE000
00FFFFFFE000
007FFFFFC000
003FFFFF8000
001FFFFF0000
000FFFFE0000
0003FFF80000
00007FC00000
000000000000
000000000000
000000000000
000000000000
000000000000
0003FF000000
001FFFFFFFC0
00FFFFFFFFC0
01FFFFFFFFC0
03FFFFFFFFC0
07FFFFFFFFC0
0FFFFFFFFFC0
1FFFFFFFFFC0
3FFFFFFFFFC0
3FFFFFFFFFC0
7FFF87FFFFC0
7FFF01FFFFC0
7FFE01FFF000
7FFE01FFF000
7FFC00FFF000
7FFC00FFF000
7FFC00FFF000
7FFE00FFF000
7FFE01FFF000
7FFE01FFF000
7FFF03FFF000
3FFF87FFF000
3FFFFFFFE000
1FFFFFFFE000
0FFFFFFFC000
07FFFFFF8000
03FFFFFF0000
03FFFFFE0000
07FFFFFC0000
0FFFFFE00000
1FFCFE000000
1FF800000000
3FF800000000
3FFC00000000
3FFF00000000
3FFFFFFF8000
3FFFFFFFF000
3FFFFFFFFC00
3FFFFFFFFF00
1FFFFFFFFF80
0FFFFFFFFF80
0FFFFFFFFFC0
03FFFFFFFFC0
0FFFFFFFFFC0
1FFFFFFFFFE0
3FFFFFFFFFE0
7FF0001FFFE0
FFF0000FFFE0
FFF0000FFFC0
FFF0000FFFC0
FFF0000FFFC0
FFF8001FFF80
FFFF00FFFF80
FFFFFFFFFF00
FFFFFFFFFF00
7FFFFFFFFE00
7FFFFFFFF800
3FFFFFFFF000
1FFFFFFFC000
07FFFFFF0000
01FFFFF80000
001FFF000000
ENDCHAR
STARTCHAR 0120
ENCODING 288
SWIDTH 650 0
DWIDTH 56 0
BBX 47 76 4 -1
BITMAP
0000003C0000
000001FF8000
000003FFC000
000007FFE000
00000FFFF000
00000FFFF000
00000FFFF000
00000FFFF000
00000FFFF000
00000FFFF000
00000FFFF000
000007FFE000
000003FFC000
000001FF8000
0000007E0000
000000000000
000000000000
000000000000
000003FF8000
00003FFFF800
0000FFFFFE00
0003FFFFFF80
000FFFFFFFE0
001FFFFFFFF0
007FFFFFFFF8
00FFFFFFFFFC
01FFFFFFFFF8
03FFFFFFFFF0
03FFFFFFFFE0
07FFFFFFFFE0
0FFFFFFFFFC0
0FFFFF007F80
1FFFFC001F00
1FFFF0000600
3FFFE0000000
3FFFC0000000
7FFFC0000000
7FFF80000000
7FFF00000000
7FFF00000000
FFFF00000000
FFFF00000000
FFFE003FFFFE
FFFE003FFFFE
FFFE003FFFFE
FFFE003FFFFE
FFFE003FFFFE
FFFE003FFFFE
FFFE003FFFFE
FFFE003FFFFE
FFFE003FFFFE
FFFE003FFFFE
FFFF003FFFFE
FFFF003FFFFE
FFFF00003FFE
7FFF80003FFE
7FFF80003FFE
7FFFC0003FFE
3FFFC0003FFE
3FFFE0003FFE
3FFFF0003FFE
1FFFFC003FFE
1FFFFF007FFE
0FFFFFFFFFFE
0FFFFFFFFFFE
07FFFFFFFFFE
03FFFFFFFFFE
01FFFFFFFFFE
00FFFFFFFFFE
007FFFFFFFFE
003FFFFFFFF8
001FFFFFFFF0
0007FFFFFFC0
0001FFFFFF00
00003FFFF800
000003FF8000
ENDCHAR
STARTCHAR 0121
ENCODING 289
SWIDTH 545 0
DWIDTH 47 0
BBX 43 81 3 -18
BITMAP
00001F800000
00007FE00000
0001FFF00000
0001FFF00000
0003FFF80000
0003FFF80000
0003FFF80000
0003FFF80000
0003FFF80000
0003FFF80000
0003FFF80000
0001FFF00000
0000FFE00000
00007FC00000
00001F000000
000000000000
000000000000
000000000000
000000000000
0003FF000000
001FFFFFFFC0
00FFFFFFFFC0
01FFFFFFFFC0
03FFFFFFFFC0
07FFFFFFFFC0
0FFFFFFFFFC0
1FFFFFFFFFC0
3FFFFFFFFFC0
3FFFFFFFFFC0
7FFF87FFFFC0
7FFF01FFFFC0
7FFE01FFF000
7FFE01FFF000
7FFC00FFF000
7FFC00FFF000
7FFC00FFF000
7FFE00FFF000
7FFE01FFF000
7FFE01FFF000
7FFF03FFF000
3FFF87FFF000
3FFFFFFFE000
1FFFFFFFE000
0FFFFFFFC000
07FFFFFF8000
03FFFFFF0000
03FFFFFE0000
07FFFFFC0000
0FFFFFE00000
1FFCFE000000
1FF800000000
3FF800000000
3FFC00000000
3FFF00000000
3FFFFFFF8000
3FFFFFFFF000
3FFFFFFFFC00
3FFFFFFFFF00
1FFFFFFFFF80
0FFFFFFFFF80
0FFFFFFFFFC0
03FFFFFFFFC0
0FFFFFFFFFC0
1FFFFFFFFFE0
3FFFFFFFFFE0
7FF0001FFFE0
FFF0000FFFE0
FFF0000FFFC0
FFF0000FFFC0
FFF0000FFFC0
FFF8001FFF80
FFFF00FFFF80
FFFFFFFFFF00
FFFFFFFFFF00
7FFFFFFFFE00
7FFFFFFFF800
3FFFFFFFF000
1FFFFFFFC000
07FFFFFF0000
01FFFFF80000
001FFF000000
ENDCHAR
STARTCHAR 0122
ENCODING 290
SWIDTH 650 0
DWIDTH 56 0
BBX 47 78 4 -21
BITMAP
000003FF8000
00003FFFF800
0000FFFFFE00
0003FFFFFF80
000FFFFFFFE0
001FFFFFFFF0
007FFFFFFFF8
00FFFFFFFFFC
01FFFFFFFFF8
03FFFFFFFFF0
03FFFFFFFFE0
07FFFFFFFFE0
0FFFFFFFFFC0
0FFFFF007F80
1FFFFC001F00
1FFFF0000600
3FFFE0000000
3FFFC0000000
7FFFC0000000
7FFF80000000
7FFF00000000
7FFF00000000
FFFF00000000
FFFF00000000
FFFE003FFFFE
FFFE003FFFFE
FFFE003FFFFE
FFFE003FFFFE
FFFE003FFFFE
FFFE003FFFFE
FFFE003FFFFE
FFFE003FFFFE
FFFE003FFFFE
FFFE003FFFFE
FFFF003FFFFE
FFFF003FFFFE
FFFF00003FFE
7FFF80003FFE
7FFF80003FFE
7FFFC0003FFE
3FFFC0003FFE
3FFFE0003FFE
3FFFF0003FFE
1FFFFC003FFE
1FFFFF007FFE
0FFFFFFFFFFE
0FFFFFFFFFFE
07FFFFFFFFFE
03FFFFFFFFFE
01FFFFFFFFFE
00FFFFFFFFFE
007FFFFFFFFE
003FFFFFFFF8
001FFFFFFFF0
0007FFFFFFC0
0001FFFFFF00
00003FFFF800
000003FF8000
000000000000
000000000000
000000000000
000001F00000
000001FF0000
000003FFC000
000003FFE000
000007FFF000
000001FFF000
0000007FF000
0000003FF000
0000003FF000
0000007FF000
000000FFF000
00007FFFE000
00003FFFE000
00003FFF8000
00003FFF0000
00003FF80000
00003F000000
ENDCHAR
STARTCHAR 0123
ENCODING 291
SWIDTH 545 0
DWIDTH 47 0
BBX 43 84 3 -18
BITMAP
0000000E0000
000007FE0000
00003FFE0000
0000FFFE0000
0001FFFF0000
0003FFFF0000
0007FFE00000
0007FF000000
0007FE000000
0007FE000000
0007FF000000
0007FFC00000
0007FFF00000
0003FFF00000
0001FFE00000
00007FC00000
00000FC00000
000000000000
000000000000
000000000000
000000000000
000000000000
0003FF000000
001FFFFFFFC0
00FFFFFFFFC0
01FFFFFFFFC0
03FFFFFFFFC0
07FFFFFFFFC0
0FFFFFFFFFC0
1FFFFFFFFFC0
3FFFFFFFFFC0
3FFFFFFFFFC0
7FFF87FFFFC0
7FFF01FFFFC0
7FFE01FFF000
7FFE01FFF000
7FFC00FFF000
7FFC00FFF000
7FFC00FFF000
7FFE00FFF000
7FFE01FFF000
7FFE01FFF000
7FFF03FFF000
3FFF87FFF000
3FFFFFFFE000
1FFFFFFFE000
0FFFFFFFC000
07FFFFFF8000
03FFFFFF0000
03FFFFFE0000
07FFFFFC0000
0FFFFFE00000
1FFCFE000000
1FF800000000
3FF800000000
3FFC00000000
3FFF00000000
3FFFFFFF8000
3FFFFFFFF000
3FFFFFFFFC00
3FFFFFFFFF00
1FFFFFFFFF80
0FFFFFFFFF80
0FFFFFFFFFC0
03FFFFFFFFC0
0FFFFFFFFFC0
1FFFFFFFFFE0
3FFFFFFFFFE0
7FF0001FFFE0
FFF0000FFFE0
FFF0000FFFC0
FFF0000FFFC0
FFF0000FFFC0
FFF8001FFF80
FFFF00FFFF80
FFFFFFFFFF00
FFFFFFFFFF00
7FFFFFFFFE00
7FFFFFFFF800
3FFFFFFFF000
1FFFFFFFC000
07FFFFFF0000
01FFFFF80000
001FFF000000
ENDCHAR
STARTCHAR 0124
ENCODING 292
SWIDTH 685 0
DWIDTH 59 0
BBX 47 72 6 0
BITMAP
0001FFFF0000
0003FFFF8000
0007FFFF8000
0007FFFFC000
000FFFFFE000
001FFFFFF000
003FFEFFF000
007FFC7FF800
007FF03FFC00
00FFE01FFE00
003FC007F800
001F8003E000
00060001C000
000000000000
000000000000
000000000000
FFFE0000FFFE
FFFE0000FFFE
FFFE0000FFFE
FFFE0000FFFE
FFFE0000FFFE
FFFE0000FFFE
FFFE0000FFFE
FFFE0000FFFE
FFFE0000FFFE
FFFE0000FFFE
FFFE0000FFFE
FFFE0000FFFE
FFFE0000FFFE
FFFE0000FFFE
FFFE0000FFFE
FFFE0000FFFE
FFFE0000FFFE
FFFE0000FFFE
FFFE0000FFFE
FFFE0000FFFE
FFFE0000FFFE
FFFFFFFFFFFE
FFFFFFFFFFFE
FFFFFFFFFFFE
FFFFFFFFFFFE
FFFFFFFFFFFE
FFFFFFFFFFFE
FFFFFFFFFFFE
FFFFFFFFFFFE
FFFFFFFFFFFE
FFFFFFFFFFFE
FFFFFFFFFFFE
FFFFFFFFFFFE
FFFFFFFFFFFE
FFFE0000FFFE
FFFE0000FFFE
FFFE0000FFFE
FFFE0000FFFE
FFFE0000FFFE
FFFE0000FFFE
FFFE0000FFFE
FFFE0000FFFE
FFFE0000FFFE
FFFE0000FFFE
FFFE0000FFFE
FFFE0000FFFE
FFFE0000FFFE
FFFE0000FFFE
FFFE0000FFFE
FFFE0000FFFE
FFFE0000FFFE
FFFE0000FFFE
FFFE0000FFFE
FFFE0000FFFE
FFFE0000FFFE
FFFE0000FFFE
ENDCHAR
STARTCHAR 0125
ENCODING 293
SWIDTH 580 0
DWIDTH 50 0
BBX 48 76 -3 0
BITMAP
03FFFF000000
03FFFF800000
07FFFF800000
0FFFFFC00000
1FFFFFE00000
1FFFFFF00000
3FFCFFF80000
7FF87FF80000
FFF03FFC0000
FFE00FFC0000
3F8007F00000
0F0003E00000
060001800000
000000000000
000000000000
000000000000
00FFFE000000
00FFFE000000
00FFFE000000
00FFFE000000
00FFFE000000
00FFFE000000
00FFFE000000
00FFFE000000
00FFFE000000
00FFFE000000
00FFFE000000
00FFFE000000
00FFFE000000
00FFFE000000
00FFFE000000
00FFFE000000
00FFFE01FE00
00FFFC0FFFC0
00FFFC3FFFE0
00FFFC7FFFF0
00FFFDFFFFF8
00FFFFFFFFFC
00FFFFFFFFFC
00FFFFFFFFFE
00FFFFFFFFFE
00FFFFFFFFFF
00FFFFFFFFFF
00FFFFFFFFFF
00FFFFFFFFFF
00FFFFC0FFFF
00FFFF007FFF
00FFFE007FFF
00FFFE007FFF
00FFFE003FFF
00FFFE003FFF
00FFFE003FFF
00FFFE003FFF
00FFFE003FFF
00FFFE003FFF
00FFFE003FFF
00FFFE003FFF
00FFFE003FFF
00FFFE003FFF
00FFFE003FFF
00FFFE003FFF
00FFFE003FFF
00FFFE003FFF
00FFFE003FFF
00FFFE003FFF
00FFFE003FFF
00FFFE003FFF
00FFFE003FFF
00FFFE003FFF
00FFFE003FFF
00FFFE003FFF
00FFFE003FFF
00FFFE003FFF
00FFFE003FFF
00FFFE003FFF
00FFFE003FFF
ENDCHAR
STARTCHAR 0126
ENCODING 294
SWIDTH 720 0
DWIDTH 62 0
BBX 58 56 2 0
BITMAP
03FFF80007FFF000
03FFF80007FFF000
03FFF80007FFF000
03FFF80007FFF000
03FFF80007FFF000
03FFF80007FFF000
03FFF80007FFF000
3FFFFFFFFFFFFFC0
FFFFFFFFFFFFFFC0
FFFFFFFFFFFFFFC0
FFFFFFFFFFFFFFC0
FFFFFFFFFFFFFFC0
FFFFFFFFFFFFFFC0
FFFFFFFFFFFFFFC0
03FFF80007FFF000
03FFF80007FFF000
03FFF80007FFF000
03FFF80007FFF000
03FFF80007FFF000
03FFF80007FFF000
03FFF80007FFF000
03FFFFFFFFFFF000
03FFFFFFFFFFF000
03FFFFFFFFFFF000
03FFFFFFFFFFF000
03FFFFFFFFFFF000
03FFFFFFFFFFF000
03FFFFFFFFFFF000
03FFFFFFFFFFF000
03FFFFFFFFFFF000
03FFFFFFFFFFF000
03FFFFFFFFFFF000
03FFFFFFFFFFF000
03FFFFFFFFFFF000
03FFF80007FFF000
03FFF80007FFF000
03FFF80007FFF000
03FFF80007FFF000
03FFF80007FFF000
03FFF80007FFF000
03FFF80007FFF000
03FFF80007FFF000
03FFF80007FFF000
03FFF80007FFF000
03FFF80007FFF000
03FFF80007FFF000
03FFF80007FFF000
03FFF80007FFF000
03FFF80007FFF000
03FFF80007FFF000
03FFF80007FFF000
03FFF80007FFF000
03FFF80007FFF000
03FFF80007FFF000
03FFF80007FFF000
03FFF80007FFF000
ENDCHAR
STARTCHAR 0127
ENCODING 295
SWIDTH 580 0
DWIDTH 50 0
BBX 46 60 -1 0
BITMAP
03FFF8000000
03FFF8000000
03FFF8000000
03FFF8000000
03FFF8000000
03FFF8000000
FFFFFFFFE000
FFFFFFFFE000
FFFFFFFFE000
FFFFFFFFE000
FFFFFFFFE000
FFFFFFFFE000
FFFFFFFFE000
03FFF8000000
03FFF8000000
03FFF8000000
03FFF8000000
03FFF8000000
03FFF8000000
03FFF8000000
03FFF800C000
03FFF81FFE00
03FFF07FFF80
03FFF1FFFFC0
03FFF3FFFFE0
03FFF7FFFFF0
03FFFFFFFFF0
03FFFFFFFFF8
03FFFFFFFFF8
03FFFFFFFFF8
03FFFFFFFFFC
03FFFFFFFFFC
03FFFFFFFFFC
03FFFF83FFFC
03FFFE01FFFC
03FFFC01FFFC
03FFF801FFFC
03FFF800FFFC
03FFF800FFFC
03FFF800FFFC
03FFF800FFFC
03FFF800FFFC
03FFF800FFFC
03FFF800FFFC
03FFF800FFFC
03FFF800FFFC
03FFF800FFFC
03FFF800FFFC
03FFF800FFFC
03FFF800FFFC
03FFF800FFFC
03FFF800FFFC
03FFF800FFFC
03FFF800FFFC
03FFF800FFFC
03FFF800FFFC
03FFF800FFFC
03FFF800FFFC
03FFF800FFFC
03FFF800FFFC
ENDCHAR
STARTCHAR 0128
ENCODING 296
SWIDTH 313 0
DWIDTH 27 0
BBX 35 74 -4 0
BITMAP
00FE000000
03FF803C00
0FFFE03FE0
1FFFF87FE0
3FFFFCFFE0
3FFFFFFFE0
7FFFFFFFE0
7FFFFFFFC0
7FFFFFFFC0
FFFFFFFF80
FFE7FFFF80
FFC1FFFF00
FFC0FFFE00
0F803FFC00
00000FE000
0000000000
0000000000
0000000000
003FFF8000
003FFF8000
003FFF8000
003FFF8000
003FFF8000
003FFF8000
003FFF8000
003FFF8000
003FFF8000
003FFF8000
003FFF8000
003FFF8000
003FFF8000
003FFF8000
003FFF8000
003FFF8000
003FFF8000
003FFF8000
003FFF8000
003FFF8000
003FFF8000
003FFF8000
003FFF8000
003FFF8000
003FFF8000
003FFF8000
003FFF8000
003FFF8000
003FFF8000
003FFF8000
003FFF8000
003FFF8000
003FFF8000
003FFF8000
003FFF8000
003FFF8000
003FFF8000
003FFF8000
003FFF8000
003FFF8000
003FFF8000
003FFF8000
003FFF8000
003FFF8000
003FFF8000
003FFF8000
003FFF8000
003FFF8000
003FFF8000
003FFF8000
003FFF8000
003FFF8000
003FFF8000
003FFF8000
003FFF8000
003FFF8000
ENDCHAR
STARTCHAR 0129
ENCODING 297
SWIDTH 290 0
DWIDTH 25 0
BBX 33 64 -4 0
BITMAP
01FC000000
07FF00FF80
1FFFC0FF80
3FFFE0FF80
3FFFF9FF80
7FFFFFFF80
7FFFFFFF80
FFFFFFFF00
FFFFFFFF00
FFFFFFFF00
FFC7FFFE00
FF83FFFC00
FF81FFF800
7F807FF000
00001FC000
0000000000
0000000000
0000000000
0000000000
0000000000
0000000000
007FFF0000
007FFF0000
007FFF0000
007FFF0000
007FFF0000
007FFF0000
007FFF0000
007FFF0000
007FFF0000
007FFF0000
007FFF0000
007FFF0000
007FFF0000
007FFF0000
007FFF0000
007FFF0000
007FFF0000
007FFF0000
007FFF0000
007FFF0000
007FFF0000
007FFF0000
007FFF0000
007FFF0000
007FFF0000
007FFF0000
007FFF0000
007FFF0000
007FFF0000
007FFF0000
007FFF0000
007FFF0000
007FFF0000
007FFF0000
007FFF0000
007FFF0000
007FFF0000
007FFF0000
007FFF0000
007FFF0000
007FFF0000
007FFF0000
007FFF0000
ENDCHAR
STARTCHAR 012A
ENCODING 298
SWIDTH 313 0
DWIDTH 27 0
BBX 27 71 0 0
BITMAP
FFFFFFE0
FFFFFFE0
FFFFFFE0
FFFFFFE0
FFFFFFE0
FFFFFFE0
FFFFFFE0
FFFFFFE0
FFFFFFE0
00000000
00000000
00000000
00000000
00000000
00000000
03FFF800
03FFF800
03FFF800
03FFF800
03FFF800
03FFF800
03FFF800
03FFF800
03FFF800
03FFF800
03FFF800
03FFF800
03FFF800
03FFF800
03FFF800
03FFF800
03FFF800
03FFF800
03FFF800
03FFF800
03FFF800
03FFF800
03FFF800
03FFF800
03FFF800
03FFF800
03FFF800
03FFF800
03FFF800
03FFF800
03FFF800
03FFF800
03FFF800
03FFF800
03FFF800
03FFF800
03FFF800
03FFF800
03FFF800
03FFF800
03FFF800
03FFF800
03FFF800
03FFF800
03FFF800
03FFF800
03FFF800
03FFF800
03FFF800
03FFF800
03FFF800
03FFF800
03FFF800
03FFF800
03FFF800
03FFF800
ENDCHAR
STARTCHAR 012B
ENCODING 299
SWIDTH 290 0
DWIDTH 25 0
BBX 27 60 -1 0
BITMAP
FFFFFFE0
FFFFFFE0
FFFFFFE0
FFFFFFE0
FFFFFFE0
FFFFFFE0
FFFFFFE0
FFFFFFE0
FFFFFFE0
00000000
00000000
00000000
00000000
00000000
00000000
00000000
00000000
03FFF800
03FFF800
03FFF800
03FFF800
03FFF800
03FFF800
03FFF800
03FFF800
03FFF800
03FFF800
03FFF800
03FFF800
03FFF800
03FFF800
03FFF800
03FFF800
03FFF800
03FFF800
03FFF800
03FFF800
03FFF800
03FFF800
03FFF800
03FFF800
03FFF800
03FFF800
03FFF800
03FFF800
03FFF800
03FFF800
03FFF800
03FFF800
03FFF800
03FFF800
03FFF800
03FFF800
03FFF800
03FFF800
03FFF800
03FFF800
03FFF800
03FFF800
03FFF800
ENDCHAR
STARTCHAR 012C
ENCODING 300
SWIDTH 313 0
DWIDTH 27 0
BBX 29 73 -1 0
BITMAP
1F0007E0
FF8007F8
FF800FF8
FFE01FF8
7FFDFFF8
7FFFFFF0
7FFFFFF0
3FFFFFE0
1FFFFFC0
0FFFFFC0
07FFFF00
01FFFC00
003FF000
00000000
00000000
00000000
00000000
01FFFC00
01FFFC00
01FFFC00
01FFFC00
01FFFC00
01FFFC00
01FFFC00
01FFFC00
01FFFC00
01FFFC00
01FFFC00
01FFFC00
01FFFC00
01FFFC00
01FFFC00
01FFFC00
01FFFC00
01FFFC00
01FFFC00
01FFFC00
01FFFC00
01FFFC00
01FFFC00
01FFFC00
01FFFC00
01FFFC00
01FFFC00
01FFFC00
01FFFC00
01FFFC00
01FFFC00
01FFFC00
01FFFC00
01FFFC00
01FFFC00
01FFFC00
01FFFC00
01FFFC00
01FFFC00
01FFFC00
01FFFC00
01FFFC00
01FFFC00
01FFFC00
01FFFC00
01FFFC00
01FFFC00
01FFFC00
01FFFC00
01FFFC00
01FFFC00
01FFFC00
01FFFC00
01FFFC00
01FFFC00
01FFFC00
ENDCHAR
STARTCHAR 012D
ENCODING 301
SWIDTH 290 0
DWIDTH 25 0
BBX 30 64 -3 0
BITMAP
078003C0
FF8003FC
FFC007FC
7FC007FC
7FE00FFC
7FF83FFC
7FFFFFFC
3FFFFFF8
3FFFFFF8
1FFFFFF0
0FFFFFE0
07FFFFC0
03FFFF80
00FFFE00
001FF000
00000000
00000000
00000000
00000000
00000000
00000000
00FFFE00
00FFFE00
00FFFE00
00FFFE00
00FFFE00
00FFFE00
00FFFE00
00FFFE00
00FFFE00
00FFFE00
00FFFE00
00FFFE00
00FFFE00
00FFFE00
00FFFE00
00FFFE00
00FFFE00
00FFFE00
00FFFE00
00FFFE00
00FFFE00
00FFFE00
00FFFE00
00FFFE00
00FFFE00
00FFFE00
00FFFE00
00FFFE00
00FFFE00
00FFFE00
00FFFE00
00FFFE00
00FFFE00
00FFFE00
00FFFE00
00FFFE00
00FFFE00
00FFFE00
00FFFE00
00FFFE00
00FFFE00
00FFFE00
00FFFE00
ENDCHAR
STARTCHAR 012E
ENCODING 302
SWIDTH 313 0
DWIDTH 27 0
BBX 20 75 4 -19
BITMAP
3FFF80
3FFF80
3FFF80
3FFF80
3FFF80
3FFF80
3FFF80
3FFF80
3FFF80
3FFF80
3FFF80
3FFF80
3FFF80
3FFF80
3FFF80
3FFF80
3FFF80
3FFF80
3FFF80
3FFF80
3FFF80
3FFF80
3FFF80
3FFF80
3FFF80
3FFF80
3FFF80
3FFF80
3FFF80
3FFF80
3FFF80
3FFF80
3FFF80
3FFF80
3FFF80
3FFF80
3FFF80
3FFF80
3FFF80
3FFF80
3FFF80
3FFF80
3FFF80
3FFF80
3FFF80
3FFF80
3FFF80
3FFF80
3FFF80
3FFF80
3FFF80
3FFF80
3FFF80
3FFF80
3FFF80
3FFF80
03FF00
0FFC00
1FF000
3FE000
3FE000
7FE000
7FC000
FFC000
FFE000
FFF080
FFFF80
FFFFC0
FFFFC0
FFFFE0
FFFFE0
7FFFF0
3FFFF0
1FFFC0
07FE00
ENDCHAR
STARTCHAR 012F
ENCODING 303
SWIDTH 290 0
DWIDTH 25 0
BBX 19 81 4 -18
BITMAP
07F000
1FFC00
3FFE00
7FFF00
7FFF00
FFFF00
FFFF80
FFFF80
FFFF80
FFFF00
7FFF00
7FFE00
3FFE00
1FF800
03E000
000000
000000
000000
000000
000000
7FFF00
7FFF00
7FFF00
7FFF00
7FFF00
7FFF00
7FFF00
7FFF00
7FFF00
7FFF00
7FFF00
7FFF00
7FFF00
7FFF00
7FFF00
7FFF00
7FFF00
7FFF00
7FFF00
7FFF00
7FFF00
7FFF00
7FFF00
7FFF00
7FFF00
7FFF00
7FFF00
7FFF00
7FFF00
7FFF00
7FFF00
7FFF00
7FFF00
7FFF00
7FFF00
7FFF00
7FFF00
7FFF00
7FFF00
7FFF00
7FFF00
7FFF00
7FFF00
07FC00
0FF000
1FE000
3FC000
7FC000
7FC000
FF8000
FFC000
FFC000
FFFF00
FFFF80
FFFF80
FFFFC0
FFFFC0
7FFFE0
3FFFC0
1FFF00
07F800
ENDCHAR
STARTCHAR 0130
ENCODING 304
SWIDTH 313 0
DWIDTH 27 0
BBX 17 75 5 0
BITMAP
03E000
0FFC00
1FFE00
3FFF00
7FFF00
7FFF80
FFFF80
FFFF80
FFFF80
7FFF80
7FFF00
7FFF00
3FFE00
1FFC00
07F000
000000
000000
000000
000000
7FFF00
7FFF00
7FFF00
7FFF00
7FFF00
7FFF00
7FFF00
7FFF00
7FFF00
7FFF00
7FFF00
7FFF00
7FFF00
7FFF00
7FFF00
7FFF00
7FFF00
7FFF00
7FFF00
7FFF00
7FFF00
7FFF00
7FFF00
7FFF00
7FFF00
7FFF00
7FFF00
7FFF00
7FFF00
7FFF00
7FFF00
7FFF00
7FFF00
7FFF00
7FFF00
7FFF00
7FFF00
7FFF00
7FFF00
7FFF00
7FFF00
7FFF00
7FFF00
7FFF00
7FFF00
7FFF00
7FFF00
7FFF00
7FFF00
7FFF00
7FFF00
7FFF00
7FFF00
7FFF00
7FFF00
7FFF00
ENDCHAR
STARTCHAR 0131
ENCODING 305
SWIDTH 290 0
DWIDTH 25 0
BBX 15 43 5 0
BITMAP
FFFE
FFFE
FFFE
FFFE
FFFE
FFFE
FFFE
FFFE
FFFE
FFFE
FFFE
FFFE
FFFE
FFFE
FFFE
FFFE
FFFE
FFFE
FFFE
FFFE
FFFE
FFFE
FFFE
FFFE
FFFE
FFFE
FFFE
FFFE
FFFE
FFFE
FFFE
FFFE
FFFE
FFFE
FFFE
FFFE
FFFE
FFFE
FFFE
FFFE
FFFE
FFFE
FFFE
ENDCHAR
STARTCHAR 0132
ENCODING 306
SWIDTH 627 0
DWIDTH 54 0
BBX 42 72 6 -16
BITMAP
FFFE001FFFC0
FFFE001FFFC0
FFFE001FFFC0
FFFE001FFFC0
FFFE001FFFC0
FFFE001FFFC0
FFFE001FFFC0
FFFE001FFFC0
FFFE001FFFC0
FFFE001FFFC0
FFFE001FFFC0
FFFE001FFFC0
FFFE001FFFC0
FFFE001FFFC0
FFFE001FFFC0
FFFE001FFFC0
FFFE001FFFC0
FFFE001FFFC0
FFFE001FFFC0
FFFE001FFFC0
FFFE001FFFC0
FFFE001FFFC0
FFFE001FFFC0
FFFE001FFFC0
FFFE001FFFC0
FFFE001FFFC0
FFFE001FFFC0
FFFE001FFFC0
FFFE001FFFC0
FFFE001FFFC0
FFFE001FFFC0
FFFE001FFFC0
FFFE001FFFC0
FFFE001FFFC0
FFFE001FFFC0
FFFE001FFFC0
FFFE001FFFC0
FFFE001FFFC0
FFFE001FFFC0
FFFE001FFFC0
FFFE001FFFC0
FFFE001FFFC0
FFFE001FFFC0
FFFE001FFFC0
FFFE001FFFC0
FFFE001FFFC0
FFFE001FFFC0
FFFE001FFFC0
FFFE001FFFC0
FFFE001FFFC0
FFFE001FFFC0
FFFE001FFFC0
FFFE001FFFC0
FFFE001FFFC0
FFFE001FFFC0
FFFE001FFFC0
0000001FFFC0
0000001FFFC0
0000001FFFC0
0000003FFFC0
00000FFFFF80
00000FFFFF80
00001FFFFF80
00001FFFFF00
00001FFFFF00
00001FFFFE00
00003FFFFE00
00003FFFFC00
00003FFFF800
00003FFFE000
00007FFFC000
00000FFC0000
ENDCHAR
STARTCHAR 0133
ENCODING 307
SWIDTH 580 0
DWIDTH 50 0
BBX 42 79 4 -16
BITMAP
07F00003F800
1FFC000FFE00
3FFE001FFF00
7FFF003FFF80
7FFF003FFF80
FFFF007FFF80
FFFF807FFFC0
FFFF807FFFC0
FFFF807FFFC0
FFFF007FFF80
7FFF003FFF80
7FFE003FFF00
3FFE001FFF00
1FF8000FFC00
03E00001F000
000000000000
000000000000
000000000000
000000000000
000000000000
7FFF003FFF80
7FFF003FFF80
7FFF003FFF80
7FFF003FFF80
7FFF003FFF80
7FFF003FFF80
7FFF003FFF80
7FFF003FFF80
7FFF003FFF80
7FFF003FFF80
7FFF003FFF80
7FFF003FFF80
7FFF003FFF80
7FFF003FFF80
7FFF003FFF80
7FFF003FFF80
7FFF003FFF80
7FFF003FFF80
7FFF003FFF80
7FFF003FFF80
7FFF003FFF80
7FFF003FFF80
7FFF003FFF80
7FFF003FFF80
7FFF003FFF80
7FFF003FFF80
7FFF003FFF80
7FFF003FFF80
7FFF003FFF80
7FFF003FFF80
7FFF003FFF80
7FFF003FFF80
7FFF003FFF80
7FFF003FFF80
7FFF003FFF80
7FFF003FFF80
7FFF003FFF80
7FFF003FFF80
7FFF003FFF80
7FFF003FFF80
7FFF003FFF80
7FFF003FFF80
7FFF003FFF80
0000003FFF80
0000003FFF80
0000007FFF00
0000007FFF00
00003FFFFF00
00003FFFFF00
00003FFFFE00
00003FFFFE00
00007FFFFC00
00007FFFFC00
00007FFFF800
00007FFFF000
00007FFFE000
0000FFFFC000
0000FFFF0000
00003FF80000
ENDCHAR
STARTCHAR 0134
ENCODING 308
SWIDTH 522 0
DWIDTH 45 0
BBX 46 73 1 -1
BITMAP
000003FFFE00
000007FFFF00
00000FFFFF00
00000FFFFF80
00001FFFFFC0
00003FFFFFE0
00007FFDFFE0
00007FF8FFF0
0000FFE07FF8
0001FFC03FFC
00007F800FF0
00003F0007C0
00000C000380
000000000000
000000000000
000000000000
000001FFFC00
000001FFFC00
000001FFFC00
000001FFFC00
000001FFFC00
000001FFFC00
000001FFFC00
000001FFFC00
000001FFFC00
000001FFFC00
000001FFFC00
000001FFFC00
000001FFFC00
000001FFFC00
000001FFFC00
000001FFFC00
000001FFFC00
000001FFFC00
000001FFFC00
000001FFFC00
000001FFFC00
000001FFFC00
000001FFFC00
000001FFFC00
000001FFFC00
000001FFFC00
000001FFFC00
000001FFFC00
000001FFFC00
000001FFFC00
000001FFFC00
000001FFFC00
000001FFFC00
000001FFFC00
000001FFFC00
000001FFFC00
000001FFFC00
000001FFFC00
000001FFFC00
004001FFFC00
00E001FFFC00
03F003FFF800
07F807FFF800
0FFC0FFFF800
3FFFFFFFF800
7FFFFFFFF000
FFFFFFFFF000
7FFFFFFFF000
7FFFFFFFE000
3FFFFFFFC000
1FFFFFFFC000
0FFFFFFF8000
07FFFFFF0000
03FFFFFE0000
00FFFFF80000
003FFFE00000
0007FF000000
ENDCHAR
STARTCHAR 0135
ENCODING 309
SWIDTH 290 0
DWIDTH 25 0
BBX 34 80 -5 -16
BITMAP
003FFFC000
007FFFC000
00FFFFE000
01FFFFF000
03FFFFF800
07FFFFFC00
07FFFFFE00
0FFFFFFE00
1FFFFFFF00
3FFF9FFF80
7FFE0FFFC0
7FF803FFC0
3FF001FF80
0FC0007F00
0780003C00
0200000800
0000000000
0000000000
0000000000
0000000000
0000000000
003FFF8000
003FFF8000
003FFF8000
003FFF8000
003FFF8000
003FFF8000
003FFF8000
003FFF8000
003FFF8000
003FFF8000
003FFF8000
003FFF8000
003FFF8000
003FFF8000
003FFF8000
003FFF8000
003FFF8000
003FFF8000
003FFF8000
003FFF8000
003FFF8000
003FFF8000
003FFF8000
003FFF8000
003FFF8000
003FFF8000
003FFF8000
003FFF8000
003FFF8000
003FFF8000
003FFF8000
003FFF8000
003FFF8000
003FFF8000
003FFF8000
003FFF8000
003FFF8000
003FFF8000
003FFF8000
003FFF8000
003FFF8000
003FFF8000
003FFF8000
003FFF8000
003FFF8000
007FFF8000
007FFF0000
1FFFFF0000
3FFFFF0000
3FFFFF0000
3FFFFE0000
3FFFFE0000
7FFFFC0000
7FFFF80000
7FFFF80000
7FFFE00000
FFFFC00000
FFFF000000
1FF8000000
ENDCHAR
STARTCHAR 0136
ENCODING 310
SWIDTH 627 0
DWIDTH 54 0
BBX 49 77 6 -21
BITMAP
FFFE0007FFF800
FFFE000FFFF800
FFFE000FFFF000
FFFE001FFFE000
FFFE003FFFC000
FFFE003FFFC000
FFFE007FFF8000
FFFE00FFFF0000
FFFE00FFFE0000
FFFE01FFFE0000
FFFE03FFFC0000
FFFE03FFF80000
FFFE07FFF00000
FFFE0FFFF00000
FFFE0FFFE00000
FFFE1FFFC00000
FFFE3FFFC00000
FFFE3FFF800000
FFFE7FFF000000
FFFEFFFE000000
FFFEFFFE000000
FFFFFFFC000000
FFFFFFF8000000
FFFFFFF8000000
FFFFFFFC000000
FFFFFFFE000000
FFFFFFFE000000
FFFFFFFF000000
FFFFFFFF000000
FFFFFFFF800000
FFFFFFFFC00000
FFFFFFFFC00000
FFFFFFFFE00000
FFFFFFFFE00000
FFFFFFFFF00000
FFFFF7FFF80000
FFFFE7FFF80000
FFFFC3FFFC0000
FFFFC1FFFC0000
FFFF81FFFE0000
FFFF00FFFF0000
FFFE00FFFF0000
FFFE007FFF8000
FFFE003FFF8000
FFFE003FFFC000
FFFE001FFFE000
FFFE001FFFE000
FFFE000FFFF000
FFFE000FFFF000
FFFE0007FFF800
FFFE0003FFFC00
FFFE0003FFFC00
FFFE0001FFFE00
FFFE0001FFFE00
FFFE0000FFFF00
FFFE0000FFFF80
00000000000000
00000000000000
00000000000000
00000000000000
00003E00000000
00003FE0000000
00007FF8000000
00007FFC000000
0000FFFE000000
00003FFE000000
00000FFF000000
000007FF000000
000007FE000000
000007FE000000
00001FFE000000
000FFFFC000000
0007FFFC000000
0007FFF0000000
0007FFE0000000
0007FF00000000
0007E000000000
ENDCHAR
STARTCHAR 0137
ENCODING 311
SWIDTH 569 0
DWIDTH 49 0
BBX 43 81 5 -21
BITMAP
FFFC00000000
FFFC00000000
FFFC00000000
FFFC00000000
FFFC00000000
FFFC00000000
FFFC00000000
FFFC00000000
FFFC00000000
FFFC00000000
FFFC00000000
FFFC00000000
FFFC00000000
FFFC00000000
FFFC00000000
FFFC00000000
FFFC00000000
FFFC003FFFC0
FFFC007FFF80
FFFC007FFF80
FFFC00FFFF00
FFFC01FFFE00
FFFC03FFFC00
FFFC03FFF800
FFFC07FFF000
FFFC0FFFE000
FFFC1FFFE000
FFFC3FFFC000
FFFC3FFF8000
FFFC7FFF0000
FFFCFFFE0000
FFFDFFFC0000
FFFFFFF80000
FFFFFFF80000
FFFFFFF00000
FFFFFFF00000
FFFFFFF00000
FFFFFFF80000
FFFFFFFC0000
FFFFFFFC0000
FFFFFFFE0000
FFFFFFFF0000
FFFFFFFF0000
FFFFFFFF8000
FFFFFFFFC000
FFFFDFFFC000
FFFF8FFFE000
FFFF0FFFF000
FFFF07FFF000
FFFE03FFF800
FFFC03FFF800
FFFC01FFFC00
FFFC01FFFE00
FFFC00FFFE00
FFFC00FFFF00
FFFC007FFF80
FFFC003FFF80
FFFC003FFFC0
FFFC001FFFE0
FFFC001FFFE0
000000000000
000000000000
000000000000
000000000000
00007C000000
0000FF800000
0000FFE00000
0001FFF80000
0001FFF80000
0000FFFC0000
00001FFC0000
00001FFC0000
00001FFC0000
00001FFC0000
00007FF80000
001FFFF80000
001FFFF00000
001FFFE00000
001FFF800000
000FFE000000
000FC0000000
ENDCHAR
STARTCHAR 0138
ENCODING 312
SWIDTH 569 0
DWIDTH 49 0
BBX 43 43 5 0
BITMAP
FFFE003FFFC0
FFFE003FFF80
FFFE007FFF80
FFFE00FFFF00
FFFE01FFFE00
FFFE01FFFC00
FFFE03FFF800
FFFE07FFF000
FFFE0FFFF000
FFFE0FFFE000
FFFE1FFFC000
FFFE3FFF8000
FFFE7FFF0000
FFFE7FFE0000
FFFEFFFE0000
FFFFFFFC0000
FFFFFFF80000
FFFFFFF00000
FFFFFFF00000
FFFFFFF80000
FFFFFFF80000
FFFFFFFC0000
FFFFFFFE0000
FFFFFFFE0000
FFFFFFFF0000
FFFFFFFF8000
FFFFFFFF8000
FFFFFFFFC000
FFFFFFFFC000
FFFFCFFFE000
FFFF8FFFF000
FFFF07FFF000
FFFE07FFF800
FFFE03FFFC00
FFFE01FFFC00
FFFE01FFFE00
FFFE00FFFE00
FFFE00FFFF00
FFFE007FFF80
FFFE007FFF80
FFFE003FFFC0
FFFE001FFFE0
FFFE001FFFE0
ENDCHAR
STARTCHAR 0139
ENCODING 313
SWIDTH 534 0
DWIDTH 46 0
BBX 36 78 6 0
BITMAP
0000800000
0001800000
0007C00000
000FE00000
001FF00000
003FF80000
00FFFC0000
01FFFC0000
03FFFE0000
07FFFF0000
1FFFFE0000
3FFFF80000
7FFFE00000
3FFFC00000
3FFF000000
1FFE000000
0FF8000000
07E0000000
03C0000000
0100000000
0000000000
0000000000
FFFE000000
FFFE000000
FFFE000000
FFFE000000
FFFE000000
FFFE000000
FFFE000000
FFFE000000
FFFE000000
FFFE000000
FFFE000000
FFFE000000
FFFE000000
FFFE000000
FFFE000000
FFFE000000
FFFE000000
FFFE000000
FFFE000000
FFFE000000
FFFE000000
FFFE000000
FFFE000000
FFFE000000
FFFE000000
FFFE000000
FFFE000000
FFFE000000
FFFE000000
FFFE000000
FFFE000000
FFFE000000
FFFE000000
FFFE000000
FFFE000000
FFFE000000
FFFE000000
FFFE000000
FFFE000000
FFFE000000
FFFE000000
FFFE000000
FFFE000000
FFFE000000
FFFFFFFFF0
FFFFFFFFF0
FFFFFFFFF0
FFFFFFFFF0
FFFFFFFFF0
FFFFFFFFF0
FFFFFFFFF0
FFFFFFFFF0
FFFFFFFFF0
FFFFFFFFF0
FFFFFFFFF0
FFFFFFFFF0
ENDCHAR
STARTCHAR 013A
ENCODING 314
SWIDTH 301 0
DWIDTH 26 0
BBX 24 83 5 0
BITMAP
000180
0007C0
000FE0
001FF0
003FF8
00FFF8
01FFFC
03FFFE
07FFFF
1FFFFE
3FFFF8
7FFFF0
7FFFC0
3FFF00
1FFE00
0FF800
07E000
03C000
010000
000000
000000
000000
FFFE00
FFFE00
FFFE00
FFFE00
FFFE00
FFFE00
FFFE00
FFFE00
FFFE00
FFFE00
FFFE00
FFFE00
FFFE00
FFFE00
FFFE00
FFFE00
FFFE00
FFFE00
FFFE00
FFFE00
FFFE00
FFFE00
FFFE00
FFFE00
FFFE00
FFFE00
FFFE00
FFFE00
FFFE00
FFFE00
FFFE00
FFFE00
FFFE00
FFFE00
FFFE00
FFFE00
FFFE00
FFFE00
FFFE00
FFFE00
FFFE00
FFFE00
FFFE00
FFFE00
FFFE00
FFFE00
FFFE00
FFFE00
FFFF00
FFFFE0
FFFFE0
7FFFE0
7FFFE0
7FFFE0
3FFFF0
3FFFF0
1FFFF0
0FFFF0
07FFF0
03FFF0
007FC0
ENDCHAR
STARTCHAR 013B
ENCODING 315
SWIDTH 534 0
DWIDTH 46 0
BBX 36 77 6 -21
BITMAP
FFFE000000
FFFE000000
FFFE000000
FFFE000000
FFFE000000
FFFE000000
FFFE000000
FFFE000000
FFFE000000
FFFE000000
FFFE000000
FFFE000000
FFFE000000
FFFE000000
FFFE000000
FFFE000000
FFFE000000
FFFE000000
FFFE000000
FFFE000000
FFFE000000
FFFE000000
FFFE000000
FFFE000000
FFFE000000
FFFE000000
FFFE000000
FFFE000000
FFFE000000
FFFE000000
FFFE000000
FFFE000000
FFFE000000
FFFE000000
FFFE000000
FFFE000000
FFFE000000
FFFE000000
FFFE000000
FFFE000000
FFFE000000
FFFE000000
FFFE000000
FFFE000000
FFFFFFFFF0
FFFFFFFFF0
FFFFFFFFF0
FFFFFFFFF0
FFFFFFFFF0
FFFFFFFFF0
FFFFFFFFF0
FFFFFFFFF0
FFFFFFFFF0
FFFFFFFFF0
FFFFFFFFF0
FFFFFFFFF0
0000000000
0000000000
0000000000
0000000000
0001E00000
0003FE0000
0003FF8000
0007FFC000
0007FFE000
0003FFF000
00007FF000
00007FF000
00007FF000
00007FF000
0001FFE000
007FFFE000
007FFFC000
007FFF8000
007FFE0000
007FF80000
003F000000
ENDCHAR
ENDFONT
